WaldbaYebse-Regular.ufo
<glyph name="exclam" format="2">
  <advance width="600"/>
  <unicode hex="0021"/>
  <outline>
    <contour>
      <point x="361" y="591" type="line"/>
      <point x="240" y="591" type="line"/>
      <point x="259" y="187" type="line"/>
      <point x="341" y="187" type="line"/>
    </contour>
    <contour>
      <point x="300" y="141" type="qcurve"/>
      <point x="264" y="141"/>
      <point x="213" y="95"/>
      <point x="213" y="63" type="qcurve"/>
      <point x="213" y="31"/>
      <point x="262" y="-16"/>
      <point x="300" y="-16" type="qcurve"/>
      <point x="338" y="-16"/>
      <point x="387" y="31"/>
      <point x="387" y="63" type="qcurve"/>
      <point x="387" y="95"/>
      <point x="336" y="141"/>
    </contour>
  </outline>
</glyph>
<glyph name="quotedbl" format="2">
  <advance width="600"/>
  <unicode hex="0022"/>
  <outline>
    <contour>
      <point x="142" y="583" type="line"/>
      <point x="154" y="272" type="line"/>
      <point x="263" y="272" type="line"/>
      <point x="274" y="583" type="line"/>
    </contour>
    <contour>
      <point x="326" y="583" type="line"/>
      <point x="338" y="272" type="line"/>
      <point x="447" y="272" type="line"/>
      <point x="458" y="583" type="line"/>
    </contour>
  </outline>
</glyph>
<glyph name="numbersign" format="2">
  <advance width="600"/>
  <unicode hex="0023"/>
  <outline>
    <contour>
      <point x="170" y="658" type="line"/>
      <point x="159" y="473" type="line"/>
      <point x="53" y="473" type="line"/>
      <point x="53" y="375" type="line"/>
      <point x="153" y="375" type="line"/>
      <point x="144" y="219" type="line"/>
      <point x="50" y="219" type="line"/>
      <point x="50" y="121" type="line"/>
      <point x="141" y="121" type="line"/>
      <point x="127" y="-73" type="line"/>
      <point x="212" y="-73" type="line"/>
      <point x="226" y="121" type="line"/>
      <point x="378" y="121" type="line"/>
      <point x="367" y="-73" type="line"/>
      <point x="452" y="-73" type="line"/>
      <point x="463" y="121" type="line"/>
      <point x="569" y="121" type="line"/>
      <point x="569" y="219" type="line"/>
      <point x="469" y="219" type="line"/>
      <point x="476" y="375" type="line"/>
      <point x="574" y="375" type="line"/>
      <point x="574" y="473" type="line"/>
      <point x="483" y="473" type="line"/>
      <point x="494" y="658" type="line"/>
      <point x="409" y="658" type="line"/>
      <point x="398" y="473" type="line"/>
      <point x="246" y="473" type="line"/>
      <point x="257" y="658" type="line"/>
    </contour>
    <contour>
      <point x="391" y="375" type="line"/>
      <point x="383" y="219" type="line"/>
      <point x="230" y="219" type="line"/>
      <point x="240" y="375" type="line"/>
    </contour>
  </outline>
</glyph>
<glyph name="dollar" format="2">
  <advance width="600"/>
  <unicode hex="0024"/>
  <outline>
    <contour>
      <point x="405" y="522" type="line"/>
      <point x="389" y="545"/>
      <point x="353" y="564"/>
      <point x="334" y="568" type="qcurve"/>
      <point x="334" y="672" type="line"/>
      <point x="263" y="672" type="line"/>
      <point x="263" y="568" type="line"/>
      <point x="235" y="565"/>
      <point x="180" y="542"/>
      <point x="136" y="503"/>
      <point x="109" y="447"/>
      <point x="109" y="411" type="qcurve"/>
      <point x="109" y="370"/>
      <point x="142" y="316"/>
      <point x="189" y="281"/>
      <point x="242" y="263"/>
      <point x="263" y="257" type="qcurve"/>
      <point x="263" y="102" type="line"/>
      <point x="236" y="104"/>
      <point x="202" y="134"/>
      <point x="183" y="174"/>
      <point x="175" y="218"/>
      <point x="173" y="235" type="qcurve"/>
      <point x="93" y="235" type="line"/>
      <point x="97" y="207"/>
      <point x="105" y="137"/>
      <point x="105" y="100" type="qcurve"/>
      <point x="105" y="69"/>
      <point x="100" y="28"/>
      <point x="98" y="8" type="qcurve"/>
      <point x="179" y="8" type="line"/>
      <point x="188" y="62" type="line"/>
      <point x="205" y="42"/>
      <point x="236" y="23"/>
      <point x="263" y="15" type="qcurve"/>
      <point x="263" y="-131" type="line"/>
      <point x="334" y="-131" type="line"/>
      <point x="334" y="15" type="line"/>
      <point x="386" y="23"/>
      <point x="450" y="60"/>
      <point x="485" y="105"/>
      <point x="497" y="151"/>
      <point x="497" y="169" type="qcurve"/>
      <point x="497" y="211"/>
      <point x="466" y="264"/>
      <point x="418" y="298"/>
      <point x="360" y="316"/>
      <point x="334" y="323" type="qcurve"/>
      <point x="334" y="479" type="line"/>
      <point x="355" y="473"/>
      <point x="383" y="444"/>
      <point x="400" y="407"/>
      <point x="409" y="362"/>
      <point x="412" y="340" type="qcurve"/>
      <point x="490" y="349" type="line"/>
      <point x="487" y="372"/>
      <point x="480" y="438"/>
      <point x="480" y="472" type="qcurve"/>
      <point x="480" y="498"/>
      <point x="484" y="548"/>
      <point x="486" y="568" type="qcurve"/>
      <point x="412" y="568" type="line"/>
    </contour>
    <contour>
      <point x="263" y="345" type="line"/>
      <point x="234" y="354"/>
      <point x="191" y="383"/>
      <point x="191" y="415" type="qcurve"/>
      <point x="191" y="441"/>
      <point x="225" y="478"/>
      <point x="263" y="483" type="qcurve"/>
    </contour>
    <contour>
      <point x="334" y="239" type="line"/>
      <point x="369" y="231"/>
      <point x="415" y="202"/>
      <point x="415" y="170" type="qcurve"/>
      <point x="415" y="148"/>
      <point x="396" y="122"/>
      <point x="369" y="108"/>
      <point x="342" y="102"/>
      <point x="334" y="101" type="qcurve"/>
    </contour>
  </outline>
</glyph>
<glyph name="percent" format="2">
  <advance width="600"/>
  <unicode hex="0025"/>
  <outline>
    <contour>
      <point x="427" y="274" type="qcurve"/>
      <point x="391" y="274"/>
      <point x="334" y="248"/>
      <point x="295" y="207"/>
      <point x="275" y="156"/>
      <point x="275" y="130" type="qcurve"/>
      <point x="275" y="103"/>
      <point x="296" y="52"/>
      <point x="335" y="11"/>
      <point x="391" y="-14"/>
      <point x="427" y="-14" type="qcurve"/>
      <point x="463" y="-14"/>
      <point x="519" y="12"/>
      <point x="558" y="53"/>
      <point x="579" y="104"/>
      <point x="579" y="130" type="qcurve"/>
      <point x="579" y="155"/>
      <point x="559" y="206"/>
      <point x="520" y="248"/>
      <point x="464" y="274"/>
    </contour>
    <contour>
      <point x="427" y="206" type="qcurve"/>
      <point x="465" y="206"/>
      <point x="504" y="158"/>
      <point x="504" y="130" type="qcurve"/>
      <point x="504" y="117"/>
      <point x="495" y="90"/>
      <point x="475" y="68"/>
      <point x="446" y="54"/>
      <point x="427" y="54" type="qcurve"/>
      <point x="407" y="54"/>
      <point x="378" y="68"/>
      <point x="359" y="91"/>
      <point x="350" y="118"/>
      <point x="350" y="130" type="qcurve"/>
      <point x="350" y="143"/>
      <point x="359" y="170"/>
      <point x="379" y="192"/>
      <point x="407" y="206"/>
    </contour>
    <contour>
      <point x="173" y="634" type="qcurve"/>
      <point x="138" y="634"/>
      <point x="82" y="610"/>
      <point x="43" y="569"/>
      <point x="21" y="517"/>
      <point x="21" y="490" type="qcurve"/>
      <point x="21" y="464"/>
      <point x="41" y="413"/>
      <point x="79" y="372"/>
      <point x="136" y="346"/>
      <point x="173" y="346" type="qcurve"/>
      <point x="210" y="346"/>
      <point x="266" y="372"/>
      <point x="305" y="413"/>
      <point x="325" y="464"/>
      <point x="325" y="490" type="qcurve"/>
      <point x="325" y="517"/>
      <point x="303" y="569"/>
      <point x="264" y="609"/>
      <point x="207" y="634"/>
    </contour>
    <contour>
      <point x="173" y="566" type="qcurve"/>
      <point x="209" y="566"/>
      <point x="250" y="519"/>
      <point x="250" y="490" type="qcurve"/>
      <point x="250" y="459"/>
      <point x="208" y="414"/>
      <point x="173" y="414" type="qcurve"/>
      <point x="137" y="414"/>
      <point x="96" y="460"/>
      <point x="96" y="490" type="qcurve"/>
      <point x="96" y="519"/>
      <point x="136" y="566"/>
    </contour>
    <contour>
      <point x="507" y="438" type="line"/>
      <point x="82" y="250" type="line"/>
      <point x="110" y="195" type="line"/>
      <point x="535" y="383" type="line"/>
    </contour>
  </outline>
</glyph>
<glyph name="ampersand" format="2">
  <advance width="600"/>
  <unicode hex="0026"/>
  <outline>
    <contour>
      <point x="415" y="309" type="line"/>
      <point x="415" y="307"/>
      <point x="411" y="297"/>
      <point x="411" y="295" type="qcurve"/>
      <point x="407" y="281"/>
      <point x="402" y="264"/>
      <point x="396" y="249"/>
      <point x="389" y="231"/>
      <point x="383" y="216" type="qcurve"/>
      <point x="295" y="348" type="line"/>
      <point x="293" y="350"/>
      <point x="285" y="363"/>
      <point x="274" y="378"/>
      <point x="265" y="391"/>
      <point x="264" y="394" type="qcurve"/>
      <point x="262" y="396"/>
      <point x="244" y="428"/>
      <point x="244" y="444" type="qcurve"/>
      <point x="244" y="452"/>
      <point x="259" y="476"/>
      <point x="286" y="476" type="qcurve"/>
      <point x="303" y="476"/>
      <point x="354" y="459"/>
      <point x="398" y="427" type="qcurve"/>
      <point x="465" y="530" type="line"/>
      <point x="454" y="528"/>
      <point x="438" y="525"/>
      <point x="431" y="525" type="qcurve"/>
      <point x="420" y="525"/>
      <point x="398" y="531"/>
      <point x="389" y="535" type="qcurve"/>
      <point x="387" y="537"/>
      <point x="366" y="544"/>
      <point x="364" y="546" type="qcurve"/>
      <point x="345" y="554"/>
      <point x="310" y="561"/>
      <point x="290" y="561" type="qcurve"/>
      <point x="257" y="561"/>
      <point x="203" y="540"/>
      <point x="165" y="504"/>
      <point x="145" y="458"/>
      <point x="145" y="433" type="qcurve"/>
      <point x="145" y="401"/>
      <point x="171" y="349"/>
      <point x="192" y="318" type="qcurve"/>
      <point x="152" y="297"/>
      <point x="109" y="245"/>
      <point x="89" y="197"/>
      <point x="86" y="159"/>
      <point x="86" y="152" type="qcurve"/>
      <point x="86" y="125"/>
      <point x="105" y="69"/>
      <point x="145" y="23"/>
      <point x="204" y="-7"/>
      <point x="245" y="-7" type="qcurve"/>
      <point x="272" y="-7"/>
      <point x="313" y="4"/>
      <point x="345" y="20"/>
      <point x="368" y="39"/>
      <point x="376" y="47" type="qcurve"/>
      <point x="409" y="0" type="line"/>
      <point x="553" y="0" type="line"/>
      <point x="553" y="82" type="line"/>
      <point x="474" y="82" type="line"/>
      <point x="439" y="135" type="line"/>
      <point x="447" y="149"/>
      <point x="457" y="168"/>
      <point x="464" y="186"/>
      <point x="472" y="208"/>
      <point x="477" y="224" type="qcurve"/>
      <point x="540" y="224" type="line"/>
      <point x="540" y="309" type="line"/>
    </contour>
    <contour>
      <point x="327" y="118" type="line"/>
      <point x="317" y="107"/>
      <point x="286" y="82"/>
      <point x="261" y="82" type="qcurve"/>
      <point x="245" y="82"/>
      <point x="219" y="97"/>
      <point x="201" y="122"/>
      <point x="191" y="153"/>
      <point x="191" y="168" type="qcurve"/>
      <point x="191" y="188"/>
      <point x="211" y="231"/>
      <point x="240" y="248" type="qcurve"/>
    </contour>
  </outline>
</glyph>
<glyph name="quotesingle" format="2">
  <advance width="1334"/>
  <unicode hex="0027"/>
  <outline>
    <contour>
      <point x="498" y="1296" type="line"/>
      <point x="547" y="605" type="line"/>
      <point x="787" y="605" type="line"/>
      <point x="836" y="1296" type="line"/>
    </contour>
  </outline>
</glyph>
<glyph name="parenleft" format="2">
  <advance width="600"/>
  <unicode hex="0028"/>
  <outline>
    <contour>
      <point x="398" y="666" type="line"/>
      <point x="395" y="662" type="line"/>
      <point x="393" y="660"/>
      <point x="385" y="647"/>
      <point x="383" y="645" type="qcurve"/>
      <point x="366" y="619"/>
      <point x="325" y="538"/>
      <point x="291" y="442"/>
      <point x="268" y="337"/>
      <point x="268" y="287" type="qcurve"/>
      <point x="268" y="244"/>
      <point x="286" y="148"/>
      <point x="319" y="51"/>
      <point x="364" y="-43"/>
      <point x="391" y="-83" type="qcurve"/>
      <point x="394" y="-87"/>
      <point x="396" y="-90"/>
      <point x="398" y="-93" type="qcurve"/>
      <point x="490" y="-93" type="line"/>
      <point x="467" y="-49"/>
      <point x="422" y="41"/>
      <point x="387" y="134"/>
      <point x="365" y="233"/>
      <point x="365" y="287" type="qcurve"/>
      <point x="365" y="341"/>
      <point x="388" y="442"/>
      <point x="424" y="536"/>
      <point x="468" y="625"/>
      <point x="490" y="666" type="qcurve"/>
    </contour>
  </outline>
</glyph>
<glyph name="parenright" format="2">
  <advance width="1334"/>
  <unicode hex="0029"/>
  <outline>
    <contour>
      <point x="452" y="-206" type="line"/>
      <point x="471" y="-174"/>
      <point x="509" y="-113"/>
      <point x="547" y="-47"/>
      <point x="587" y="31"/>
      <point x="609" y="82" type="qcurve"/>
      <point x="664" y="212"/>
      <point x="738" y="500"/>
      <point x="738" y="638" type="qcurve"/>
      <point x="738" y="691"/>
      <point x="719" y="863"/>
      <point x="658" y="1080"/>
      <point x="547" y="1334"/>
      <point x="458" y="1472" type="qcurve"/>
      <point x="452" y="1472"/>
      <point x="452" y="1480" type="qcurve"/>
      <point x="244" y="1480" type="line"/>
      <point x="297" y="1376"/>
      <point x="401" y="1175"/>
      <point x="475" y="971"/>
      <point x="522" y="755"/>
      <point x="522" y="638" type="qcurve"/>
      <point x="522" y="518"/>
      <point x="471" y="293"/>
      <point x="393" y="87"/>
      <point x="303" y="-98"/>
      <point x="260" y="-176" type="qcurve"/>
      <point x="258" y="-180"/>
      <point x="246" y="-202"/>
      <point x="244" y="-206" type="qcurve"/>
    </contour>
  </outline>
</glyph>
<glyph name="asterisk" format="2">
  <advance width="600"/>
  <unicode hex="002A"/>
  <outline>
    <contour>
      <point x="246" y="583" type="line"/>
      <point x="252" y="447" type="line"/>
      <point x="126" y="493" type="line"/>
      <point x="93" y="392" type="line"/>
      <point x="224" y="357" type="line"/>
      <point x="139" y="251" type="line"/>
      <point x="224" y="188" type="line"/>
      <point x="300" y="301" type="line"/>
      <point x="376" y="188" type="line"/>
      <point x="461" y="251" type="line"/>
      <point x="376" y="357" type="line"/>
      <point x="507" y="392" type="line"/>
      <point x="475" y="493" type="line"/>
      <point x="348" y="447" type="line"/>
      <point x="354" y="583" type="line"/>
    </contour>
  </outline>
</glyph>
<glyph name="plus" format="2">
  <advance width="1334"/>
  <unicode hex="002B"/>
  <outline>
    <contour>
      <point x="569" y="1230" type="line"/>
      <point x="569" y="791" type="line"/>
      <point x="120" y="791" type="line"/>
      <point x="120" y="596" type="line"/>
      <point x="569" y="596" type="line"/>
      <point x="569" y="157" type="line"/>
      <point x="765" y="157" type="line"/>
      <point x="765" y="596" type="line"/>
      <point x="1213" y="596" type="line"/>
      <point x="1213" y="791" type="line"/>
      <point x="765" y="791" type="line"/>
      <point x="765" y="1230" type="line"/>
    </contour>
  </outline>
</glyph>
<glyph name="comma" format="2">
  <advance width="1334"/>
  <unicode hex="002C"/>
  <outline>
    <contour>
      <point x="536" y="373" type="line"/>
      <point x="342" y="-236" type="line"/>
      <point x="583" y="-236" type="line"/>
      <point x="855" y="373" type="line"/>
    </contour>
  </outline>
</glyph>
<glyph name="hyphen" format="2">
  <advance width="600"/>
  <unicode hex="002D"/>
  <outline>
    <contour>
      <point x="189" y="345" type="line"/>
      <point x="189" y="253" type="line"/>
      <point x="411" y="253" type="line"/>
      <point x="411" y="345" type="line"/>
    </contour>
  </outline>
</glyph>
<glyph name="period" format="2">
  <advance width="600"/>
  <unicode hex="002E"/>
  <outline>
    <contour>
      <point x="300" y="154" type="qcurve"/>
      <point x="283" y="154"/>
      <point x="250" y="142"/>
      <point x="223" y="120"/>
      <point x="206" y="89"/>
      <point x="206" y="69" type="qcurve"/>
      <point x="206" y="49"/>
      <point x="223" y="17"/>
      <point x="250" y="-5"/>
      <point x="283" y="-16"/>
      <point x="300" y="-16" type="qcurve"/>
      <point x="317" y="-16"/>
      <point x="351" y="-4"/>
      <point x="378" y="18"/>
      <point x="394" y="49"/>
      <point x="394" y="69" type="qcurve"/>
      <point x="394" y="89"/>
      <point x="377" y="121"/>
      <point x="350" y="143"/>
      <point x="316" y="154"/>
    </contour>
  </outline>
</glyph>
<glyph name="slash" format="2">
  <advance width="600"/>
  <unicode hex="002F"/>
  <outline>
    <contour>
      <point x="450" y="724" type="line"/>
      <point x="72" y="-98" type="line"/>
      <point x="149" y="-133" type="line"/>
      <point x="528" y="691" type="line"/>
    </contour>
  </outline>
</glyph>
<glyph name="zero" format="2">
  <advance width="600"/>
  <unicode hex="0030"/>
  <outline>
    <contour>
      <point x="300" y="639" type="qcurve"/>
      <point x="255" y="639"/>
      <point x="191" y="608"/>
      <point x="146" y="556"/>
      <point x="118" y="488"/>
      <point x="102" y="416"/>
      <point x="97" y="343"/>
      <point x="97" y="313" type="qcurve"/>
      <point x="97" y="268"/>
      <point x="110" y="155"/>
      <point x="153" y="54"/>
      <point x="233" y="-14"/>
      <point x="300" y="-14" type="qcurve"/>
      <point x="367" y="-14"/>
      <point x="448" y="54"/>
      <point x="490" y="155"/>
      <point x="503" y="268"/>
      <point x="503" y="313" type="qcurve"/>
      <point x="503" y="343"/>
      <point x="498" y="415"/>
      <point x="483" y="488"/>
      <point x="455" y="555"/>
      <point x="410" y="608"/>
      <point x="345" y="639"/>
    </contour>
    <contour>
      <point x="300" y="556" type="qcurve"/>
      <point x="338" y="556"/>
      <point x="383" y="503"/>
      <point x="406" y="427"/>
      <point x="412" y="344"/>
      <point x="412" y="313" type="qcurve"/>
      <point x="412" y="285"/>
      <point x="406" y="202"/>
      <point x="384" y="124"/>
      <point x="339" y="69"/>
      <point x="300" y="69" type="qcurve"/>
      <point x="262" y="69"/>
      <point x="218" y="121"/>
      <point x="195" y="197"/>
      <point x="188" y="281"/>
      <point x="188" y="313" type="qcurve"/>
      <point x="188" y="378"/>
      <point x="210" y="491"/>
      <point x="228" y="517" type="qcurve"/>
      <point x="248" y="543"/>
      <point x="289" y="556"/>
    </contour>
  </outline>
</glyph>
<glyph name="one" format="2">
  <advance width="1334"/>
  <unicode hex="0031"/>
  <outline>
    <contour>
      <point x="189" y="1209" type="line"/>
      <point x="267" y="1035" type="line"/>
      <point x="589" y="1180" type="line"/>
      <point x="589" y="182" type="line"/>
      <point x="216" y="182" type="line"/>
      <point x="216" y="0" type="line"/>
      <point x="1152" y="0" type="line"/>
      <point x="1152" y="182" type="line"/>
      <point x="783" y="182" type="line"/>
      <point x="783" y="1421" type="line"/>
      <point x="662" y="1421" type="line"/>
    </contour>
  </outline>
</glyph>
<glyph name="two" format="2">
  <advance width="600"/>
  <unicode hex="0032"/>
  <outline>
    <contour>
      <point x="402" y="180" type="line"/>
      <point x="402" y="82" type="line"/>
      <point x="204" y="82" type="line"/>
      <point x="301" y="170" type="line"/>
      <point x="352" y="216"/>
      <point x="423" y="286"/>
      <point x="467" y="346"/>
      <point x="487" y="404"/>
      <point x="487" y="440" type="qcurve"/>
      <point x="487" y="481"/>
      <point x="455" y="554"/>
      <point x="401" y="608"/>
      <point x="327" y="639"/>
      <point x="285" y="639" type="qcurve"/>
      <point x="273" y="639"/>
      <point x="231" y="634"/>
      <point x="178" y="615"/>
      <point x="118" y="575"/>
      <point x="89" y="540" type="qcurve"/>
      <point x="89" y="453" type="line"/>
      <point x="179" y="453" type="line"/>
      <point x="177" y="463"/>
      <point x="177" y="474" type="qcurve"/>
      <point x="177" y="498"/>
      <point x="201" y="528"/>
      <point x="235" y="545"/>
      <point x="270" y="551"/>
      <point x="282" y="551" type="qcurve"/>
      <point x="309" y="551"/>
      <point x="351" y="534"/>
      <point x="381" y="504"/>
      <point x="396" y="465"/>
      <point x="396" y="443" type="qcurve"/>
      <point x="396" y="414"/>
      <point x="375" y="363"/>
      <point x="313" y="301"/>
      <point x="234" y="228"/>
      <point x="156" y="157"/>
      <point x="89" y="98"/>
      <point x="70" y="82" type="qcurve"/>
      <point x="70" y="0" type="line"/>
      <point x="486" y="0" type="line"/>
      <point x="486" y="180" type="line"/>
    </contour>
  </outline>
</glyph>
<glyph name="three" format="2">
  <advance width="600"/>
  <unicode hex="0033"/>
  <outline>
    <contour>
      <point x="106" y="27" type="line"/>
      <point x="144" y="11"/>
      <point x="219" y="-14"/>
      <point x="267" y="-14" type="qcurve"/>
      <point x="311" y="-14"/>
      <point x="389" y="14"/>
      <point x="447" y="66"/>
      <point x="481" y="139"/>
      <point x="481" y="185" type="qcurve"/>
      <point x="481" y="233"/>
      <point x="436" y="317"/>
      <point x="394" y="341" type="qcurve"/>
      <point x="402" y="349"/>
      <point x="422" y="371"/>
      <point x="439" y="402"/>
      <point x="451" y="443"/>
      <point x="451" y="471" type="qcurve"/>
      <point x="451" y="510"/>
      <point x="419" y="572"/>
      <point x="368" y="616"/>
      <point x="301" y="639"/>
      <point x="267" y="639" type="qcurve"/>
      <point x="212" y="639"/>
      <point x="124" y="594"/>
      <point x="76" y="562" type="qcurve"/>
      <point x="120" y="490" type="line"/>
      <point x="148" y="507"/>
      <point x="188" y="531"/>
      <point x="220" y="546"/>
      <point x="249" y="552"/>
      <point x="266" y="552" type="qcurve"/>
      <point x="282" y="552"/>
      <point x="316" y="543"/>
      <point x="344" y="523"/>
      <point x="362" y="490"/>
      <point x="362" y="467" type="qcurve"/>
      <point x="362" y="432"/>
      <point x="331" y="393"/>
      <point x="286" y="375"/>
      <point x="237" y="371"/>
      <point x="218" y="371" type="qcurve"/>
      <point x="218" y="288" type="line"/>
      <point x="241" y="290"/>
      <point x="254" y="290" type="qcurve"/>
      <point x="267" y="290"/>
      <point x="270" y="290" type="qcurve"/>
      <point x="327" y="290"/>
      <point x="392" y="235"/>
      <point x="392" y="184" type="qcurve"/>
      <point x="392" y="155"/>
      <point x="370" y="112"/>
      <point x="335" y="84"/>
      <point x="292" y="71"/>
      <point x="270" y="71" type="qcurve"/>
      <point x="223" y="71"/>
      <point x="133" y="106"/>
      <point x="100" y="123" type="qcurve"/>
      <point x="66" y="43" type="line"/>
    </contour>
  </outline>
</glyph>
<glyph name="four" format="2">
  <advance width="1334"/>
  <unicode hex="0034"/>
  <outline>
    <contour>
      <point x="905" y="1421" type="line"/>
      <point x="636" y="1421" type="line"/>
      <point x="98" y="545" type="line"/>
      <point x="98" y="367" type="line"/>
      <point x="711" y="367" type="line"/>
      <point x="711" y="182" type="line"/>
      <point x="422" y="182" type="line"/>
      <point x="422" y="0" type="line"/>
      <point x="1118" y="0" type="line"/>
      <point x="1118" y="182" type="line"/>
      <point x="905" y="182" type="line"/>
      <point x="905" y="367" type="line"/>
      <point x="1118" y="367" type="line"/>
      <point x="1118" y="556" type="line"/>
      <point x="905" y="556" type="line"/>
    </contour>
    <contour>
      <point x="293" y="556" type="line"/>
      <point x="707" y="1245" type="line"/>
      <point x="711" y="1245" type="line"/>
      <point x="711" y="556" type="line"/>
    </contour>
  </outline>
</glyph>
<glyph name="five" format="2">
  <advance width="1334"/>
  <unicode hex="0035"/>
  <outline>
    <contour>
      <point x="249" y="1389" type="line"/>
      <point x="249" y="669" type="line"/>
      <point x="352" y="611" type="line"/>
      <point x="373" y="630"/>
      <point x="429" y="671"/>
      <point x="498" y="704"/>
      <point x="583" y="727"/>
      <point x="634" y="727" type="qcurve"/>
      <point x="698" y="727"/>
      <point x="800" y="683"/>
      <point x="874" y="607"/>
      <point x="914" y="503"/>
      <point x="914" y="443" type="qcurve"/>
      <point x="914" y="398"/>
      <point x="887" y="300"/>
      <point x="821" y="218"/>
      <point x="702" y="163"/>
      <point x="611" y="163" type="qcurve"/>
      <point x="556" y="163"/>
      <point x="452" y="182"/>
      <point x="358" y="212"/>
      <point x="280" y="242"/>
      <point x="251" y="256" type="qcurve"/>
      <point x="249" y="258"/>
      <point x="236" y="263"/>
      <point x="231" y="265" type="qcurve"/>
      <point x="163" y="85" type="line"/>
      <point x="231" y="58"/>
      <point x="346" y="15"/>
      <point x="454" y="-15"/>
      <point x="560" y="-31"/>
      <point x="622" y="-31" type="qcurve"/>
      <point x="760" y="-31"/>
      <point x="949" y="62"/>
      <point x="1067" y="206"/>
      <point x="1118" y="376"/>
      <point x="1118" y="449" type="qcurve"/>
      <point x="1118" y="545"/>
      <point x="1050" y="713"/>
      <point x="927" y="840"/>
      <point x="753" y="912"/>
      <point x="649" y="912" type="qcurve"/>
      <point x="569" y="912"/>
      <point x="456" y="880"/>
      <point x="433" y="872" type="qcurve"/>
      <point x="433" y="1198" type="line"/>
      <point x="1054" y="1198" type="line"/>
      <point x="1054" y="1389" type="line"/>
    </contour>
  </outline>
</glyph>
<glyph name="six" format="2">
  <advance width="1334"/>
  <unicode hex="0036"/>
  <outline>
    <contour>
      <point x="1114" y="1414" type="line"/>
      <point x="1078" y="1416"/>
      <point x="989" y="1421"/>
      <point x="944" y="1421" type="qcurve"/>
      <point x="914" y="1421"/>
      <point x="793" y="1416"/>
      <point x="647" y="1383"/>
      <point x="494" y="1313"/>
      <point x="429" y="1249" type="qcurve"/>
      <point x="354" y="1173"/>
      <point x="263" y="993"/>
      <point x="214" y="814"/>
      <point x="198" y="653"/>
      <point x="198" y="598" type="qcurve"/>
      <point x="198" y="416"/>
      <point x="291" y="174"/>
      <point x="433" y="27"/>
      <point x="600" y="-34"/>
      <point x="674" y="-34" type="qcurve"/>
      <point x="765" y="-34"/>
      <point x="918" y="38"/>
      <point x="1031" y="163"/>
      <point x="1096" y="327"/>
      <point x="1096" y="418" type="qcurve"/>
      <point x="1096" y="511"/>
      <point x="1031" y="678"/>
      <point x="920" y="804"/>
      <point x="765" y="878"/>
      <point x="676" y="878" type="qcurve"/>
      <point x="664" y="878"/>
      <point x="615" y="876"/>
      <point x="547" y="861"/>
      <point x="462" y="825"/>
      <point x="420" y="793" type="qcurve"/>
      <point x="445" y="956"/>
      <point x="575" y="1131"/>
      <point x="734" y="1213"/>
      <point x="889" y="1227"/>
      <point x="940" y="1227" type="qcurve"/>
      <point x="952" y="1227"/>
      <point x="996" y="1227" type="qcurve"/>
      <point x="1043" y="1227"/>
      <point x="1114" y="1222" type="qcurve"/>
    </contour>
    <contour>
      <point x="405" y="487" type="qcurve"/>
      <point x="431" y="554"/>
      <point x="509" y="632"/>
      <point x="589" y="674"/>
      <point x="658" y="685"/>
      <point x="678" y="685" type="qcurve"/>
      <point x="727" y="685"/>
      <point x="804" y="640"/>
      <point x="861" y="567"/>
      <point x="891" y="469"/>
      <point x="891" y="418" type="qcurve"/>
      <point x="891" y="297"/>
      <point x="762" y="160"/>
      <point x="671" y="160" type="qcurve"/>
      <point x="632" y="160"/>
      <point x="543" y="195"/>
      <point x="465" y="274"/>
      <point x="411" y="398"/>
    </contour>
  </outline>
</glyph>
<glyph name="seven" format="2">
  <advance width="600"/>
  <unicode hex="0037"/>
  <outline>
    <contour>
      <point x="90" y="625" type="line"/>
      <point x="90" y="453" type="line"/>
      <point x="176" y="453" type="line"/>
      <point x="176" y="540" type="line"/>
      <point x="412" y="540" type="line"/>
      <point x="218" y="0" type="line"/>
      <point x="315" y="0" type="line"/>
      <point x="508" y="557" type="line"/>
      <point x="508" y="625" type="line"/>
    </contour>
  </outline>
</glyph>
<glyph name="eight" format="2">
  <advance width="600"/>
  <unicode hex="0038"/>
  <outline>
    <contour>
      <point x="174" y="320" type="qcurve"/>
      <point x="136" y="294"/>
      <point x="94" y="214"/>
      <point x="94" y="172" type="qcurve"/>
      <point x="94" y="140"/>
      <point x="120" y="74"/>
      <point x="172" y="20"/>
      <point x="249" y="-14"/>
      <point x="300" y="-14" type="qcurve"/>
      <point x="351" y="-14"/>
      <point x="429" y="21"/>
      <point x="480" y="75"/>
      <point x="506" y="141"/>
      <point x="506" y="173" type="qcurve"/>
      <point x="506" y="190"/>
      <point x="497" y="229"/>
      <point x="478" y="268"/>
      <point x="448" y="305"/>
      <point x="426" y="320" type="qcurve"/>
      <point x="466" y="352"/>
      <point x="495" y="429"/>
      <point x="495" y="461" type="qcurve"/>
      <point x="495" y="499"/>
      <point x="464" y="564"/>
      <point x="411" y="612"/>
      <point x="340" y="639"/>
      <point x="300" y="639" type="qcurve"/>
      <point x="259" y="639"/>
      <point x="188" y="611"/>
      <point x="136" y="563"/>
      <point x="105" y="498"/>
      <point x="105" y="461" type="qcurve"/>
      <point x="105" y="450"/>
      <point x="109" y="418"/>
      <point x="123" y="380"/>
      <point x="150" y="339"/>
    </contour>
    <contour>
      <point x="300" y="554" type="qcurve"/>
      <point x="321" y="554"/>
      <point x="359" y="541"/>
      <point x="388" y="517"/>
      <point x="405" y="482"/>
      <point x="405" y="460" type="qcurve"/>
      <point x="405" y="438"/>
      <point x="387" y="401"/>
      <point x="358" y="374"/>
      <point x="320" y="359"/>
      <point x="300" y="359" type="qcurve"/>
      <point x="279" y="359"/>
      <point x="241" y="375"/>
      <point x="212" y="402"/>
      <point x="195" y="439"/>
      <point x="195" y="460" type="qcurve"/>
      <point x="195" y="503"/>
      <point x="257" y="554"/>
    </contour>
    <contour>
      <point x="300" y="272" type="qcurve"/>
      <point x="328" y="272"/>
      <point x="371" y="254"/>
      <point x="401" y="225"/>
      <point x="416" y="189"/>
      <point x="416" y="170" type="qcurve"/>
      <point x="416" y="150"/>
      <point x="398" y="113"/>
      <point x="367" y="85"/>
      <point x="325" y="69"/>
      <point x="300" y="69" type="qcurve"/>
      <point x="275" y="69"/>
      <point x="233" y="86"/>
      <point x="202" y="114"/>
      <point x="184" y="150"/>
      <point x="184" y="170" type="qcurve"/>
      <point x="184" y="188"/>
      <point x="199" y="224"/>
      <point x="228" y="254"/>
      <point x="271" y="272"/>
    </contour>
  </outline>
</glyph>
<glyph name="nine" format="2">
  <advance width="600"/>
  <unicode hex="0039"/>
  <outline>
    <contour>
      <point x="67" y="-12" type="line"/>
      <point x="83" y="-13"/>
      <point x="123" y="-15"/>
      <point x="143" y="-15" type="qcurve"/>
      <point x="157" y="-15"/>
      <point x="211" y="-13"/>
      <point x="277" y="2"/>
      <point x="346" y="33"/>
      <point x="375" y="62" type="qcurve"/>
      <point x="409" y="96"/>
      <point x="450" y="177"/>
      <point x="472" y="258"/>
      <point x="479" y="330"/>
      <point x="479" y="355" type="qcurve"/>
      <point x="479" y="437"/>
      <point x="437" y="546"/>
      <point x="373" y="612"/>
      <point x="298" y="639"/>
      <point x="265" y="639" type="qcurve"/>
      <point x="224" y="639"/>
      <point x="155" y="606"/>
      <point x="104" y="551"/>
      <point x="75" y="477"/>
      <point x="75" y="436" type="qcurve"/>
      <point x="75" y="394"/>
      <point x="104" y="319"/>
      <point x="154" y="262"/>
      <point x="223" y="229"/>
      <point x="264" y="229" type="qcurve"/>
      <point x="268" y="229"/>
      <point x="291" y="230"/>
      <point x="322" y="237"/>
      <point x="359" y="253"/>
      <point x="379" y="267" type="qcurve"/>
      <point x="368" y="194"/>
      <point x="309" y="115"/>
      <point x="238" y="78"/>
      <point x="168" y="72"/>
      <point x="145" y="72" type="qcurve"/>
      <point x="140" y="72"/>
      <point x="122" y="72" type="qcurve"/>
      <point x="105" y="72"/>
      <point x="73" y="74" type="qcurve"/>
    </contour>
    <contour>
      <point x="386" y="405" type="qcurve"/>
      <point x="374" y="375"/>
      <point x="339" y="340"/>
      <point x="303" y="321"/>
      <point x="272" y="316"/>
      <point x="263" y="316" type="qcurve"/>
      <point x="241" y="316"/>
      <point x="206" y="336"/>
      <point x="181" y="369"/>
      <point x="167" y="413"/>
      <point x="167" y="436" type="qcurve"/>
      <point x="167" y="490"/>
      <point x="225" y="552"/>
      <point x="266" y="552" type="qcurve"/>
      <point x="284" y="552"/>
      <point x="324" y="536"/>
      <point x="359" y="501"/>
      <point x="383" y="445"/>
    </contour>
  </outline>
</glyph>
<glyph name="colon" format="2">
  <advance width="600"/>
  <unicode hex="003A"/>
  <outline>
    <contour>
      <point x="300" y="416" type="qcurve"/>
      <point x="263" y="416"/>
      <point x="206" y="369"/>
      <point x="206" y="331" type="qcurve"/>
      <point x="206" y="311"/>
      <point x="223" y="280"/>
      <point x="250" y="258"/>
      <point x="283" y="246"/>
      <point x="300" y="246" type="qcurve"/>
      <point x="316" y="246"/>
      <point x="350" y="258"/>
      <point x="377" y="280"/>
      <point x="394" y="311"/>
      <point x="394" y="331" type="qcurve"/>
      <point x="394" y="350"/>
      <point x="378" y="381"/>
      <point x="352" y="404"/>
      <point x="318" y="416"/>
    </contour>
    <contour>
      <point x="300" y="154" type="qcurve"/>
      <point x="284" y="154"/>
      <point x="251" y="143"/>
      <point x="224" y="121"/>
      <point x="206" y="90"/>
      <point x="206" y="69" type="qcurve"/>
      <point x="206" y="49"/>
      <point x="223" y="17"/>
      <point x="250" y="-5"/>
      <point x="283" y="-16"/>
      <point x="300" y="-16" type="qcurve"/>
      <point x="317" y="-16"/>
      <point x="350" y="-5"/>
      <point x="377" y="17"/>
      <point x="394" y="49"/>
      <point x="394" y="69" type="qcurve"/>
      <point x="394" y="90"/>
      <point x="377" y="121"/>
      <point x="350" y="143"/>
      <point x="316" y="154"/>
    </contour>
  </outline>
</glyph>
<glyph name="semicolon" format="2">
  <advance width="600"/>
  <unicode hex="003B"/>
  <outline>
    <contour>
      <point x="245" y="169" type="line"/>
      <point x="159" y="-105" type="line"/>
      <point x="267" y="-105" type="line"/>
      <point x="389" y="169" type="line"/>
    </contour>
    <contour>
      <point x="300" y="419" type="qcurve"/>
      <point x="263" y="419"/>
      <point x="207" y="372"/>
      <point x="207" y="334" type="qcurve"/>
      <point x="207" y="314"/>
      <point x="223" y="283"/>
      <point x="249" y="261"/>
      <point x="283" y="249"/>
      <point x="300" y="249" type="qcurve"/>
      <point x="317" y="249"/>
      <point x="350" y="261"/>
      <point x="377" y="283"/>
      <point x="394" y="314"/>
      <point x="394" y="334" type="qcurve"/>
      <point x="394" y="354"/>
      <point x="378" y="385"/>
      <point x="351" y="407"/>
      <point x="318" y="419"/>
    </contour>
  </outline>
</glyph>
<glyph name="less" format="2">
  <advance width="1334"/>
  <unicode hex="003C"/>
  <outline>
    <contour>
      <point x="1147" y="1236" type="line"/>
      <point x="11" y="709" type="line"/>
      <point x="1147" y="167" type="line"/>
      <point x="1227" y="344" type="line"/>
      <point x="454" y="707" type="line"/>
      <point x="1230" y="1060" type="line"/>
    </contour>
  </outline>
</glyph>
<glyph name="equal" format="2">
  <advance width="1334"/>
  <unicode hex="003D"/>
  <outline>
    <contour>
      <point x="120" y="987" type="line"/>
      <point x="120" y="791" type="line"/>
      <point x="1213" y="791" type="line"/>
      <point x="1213" y="987" type="line"/>
    </contour>
    <contour>
      <point x="120" y="598" type="line"/>
      <point x="120" y="403" type="line"/>
      <point x="1213" y="403" type="line"/>
      <point x="1213" y="598" type="line"/>
    </contour>
  </outline>
</glyph>
<glyph name="greater" format="2">
  <advance width="1334"/>
  <unicode hex="003E"/>
  <outline>
    <contour>
      <point x="153" y="1236" type="line"/>
      <point x="72" y="1060" type="line"/>
      <point x="844" y="707" type="line"/>
      <point x="74" y="344" type="line"/>
      <point x="151" y="167" type="line"/>
      <point x="1289" y="709" type="line"/>
    </contour>
  </outline>
</glyph>
<glyph name="question" format="2">
  <advance width="1334"/>
  <unicode hex="003F"/>
  <outline>
    <contour>
      <point x="238" y="933" type="line"/>
      <point x="431" y="933" type="line"/>
      <point x="431" y="1084" type="line"/>
      <point x="475" y="1101" type="line"/>
      <point x="492" y="1107"/>
      <point x="536" y="1114"/>
      <point x="587" y="1120"/>
      <point x="634" y="1122"/>
      <point x="651" y="1122" type="qcurve"/>
      <point x="694" y="1122"/>
      <point x="778" y="1098"/>
      <point x="844" y="1047"/>
      <point x="887" y="974"/>
      <point x="887" y="925" type="qcurve"/>
      <point x="887" y="863"/>
      <point x="829" y="783"/>
      <point x="740" y="732"/>
      <point x="632" y="700"/>
      <point x="581" y="687" type="qcurve"/>
      <point x="567" y="685"/>
      <point x="534" y="678"/>
      <point x="520" y="674" type="qcurve"/>
      <point x="516" y="674"/>
      <point x="505" y="669"/>
      <point x="503" y="669" type="qcurve"/>
      <point x="503" y="398" type="line"/>
      <point x="694" y="398" type="line"/>
      <point x="694" y="522" type="line"/>
      <point x="740" y="536"/>
      <point x="876" y="585"/>
      <point x="999" y="674"/>
      <point x="1084" y="814"/>
      <point x="1084" y="920" type="qcurve"/>
      <point x="1084" y="999"/>
      <point x="1025" y="1141"/>
      <point x="910" y="1251"/>
      <point x="738" y="1316"/>
      <point x="627" y="1316" type="qcurve"/>
      <point x="547" y="1316"/>
      <point x="407" y="1287"/>
      <point x="303" y="1251" type="qcurve"/>
      <point x="269" y="1241"/>
      <point x="249" y="1234"/>
      <point x="238" y="1230" type="qcurve"/>
    </contour>
    <contour>
      <point x="594" y="316" type="qcurve"/>
      <point x="509" y="316"/>
      <point x="403" y="212"/>
      <point x="403" y="140" type="qcurve"/>
      <point x="403" y="68"/>
      <point x="511" y="-36"/>
      <point x="594" y="-36" type="qcurve"/>
      <point x="674" y="-36"/>
      <point x="787" y="66"/>
      <point x="787" y="140" type="qcurve"/>
      <point x="787" y="214"/>
      <point x="674" y="316"/>
    </contour>
  </outline>
</glyph>
<glyph name="at" format="2">
  <advance width="1334"/>
  <unicode hex="0040"/>
  <outline>
    <contour>
      <point x="1147" y="280" type="line"/>
      <point x="1092" y="251"/>
      <point x="978" y="195"/>
      <point x="859" y="151"/>
      <point x="725" y="125"/>
      <point x="649" y="125" type="qcurve"/>
      <point x="503" y="125"/>
      <point x="327" y="240"/>
      <point x="233" y="403"/>
      <point x="204" y="575"/>
      <point x="204" y="634" type="qcurve"/>
      <point x="204" y="707"/>
      <point x="244" y="893"/>
      <point x="349" y="1058"/>
      <point x="536" y="1169"/>
      <point x="683" y="1169" type="qcurve"/>
      <point x="770" y="1169"/>
      <point x="931" y="1120"/>
      <point x="1056" y="1018"/>
      <point x="1129" y="861"/>
      <point x="1129" y="751" type="qcurve"/>
      <point x="1129" y="687"/>
      <point x="1101" y="575"/>
      <point x="1052" y="494"/>
      <point x="984" y="445"/>
      <point x="949" y="445" type="qcurve"/>
      <point x="912" y="445"/>
      <point x="872" y="492"/>
      <point x="872" y="511" type="qcurve"/>
      <point x="872" y="520"/>
      <point x="878" y="554"/>
      <point x="885" y="585"/>
      <point x="891" y="609"/>
      <point x="893" y="613" type="qcurve"/>
      <point x="996" y="989" type="line"/>
      <point x="834" y="989" type="line"/>
      <point x="823" y="942" type="line"/>
      <point x="800" y="965"/>
      <point x="749" y="1001"/>
      <point x="702" y="1001" type="qcurve"/>
      <point x="630" y="1001"/>
      <point x="503" y="914"/>
      <point x="409" y="778"/>
      <point x="356" y="613"/>
      <point x="356" y="536" type="qcurve"/>
      <point x="356" y="465"/>
      <point x="398" y="369"/>
      <point x="458" y="312"/>
      <point x="524" y="287"/>
      <point x="551" y="287" type="qcurve"/>
      <point x="560" y="287"/>
      <point x="600" y="291"/>
      <point x="656" y="312"/>
      <point x="723" y="352"/>
      <point x="758" y="389" type="qcurve"/>
      <point x="785" y="354"/>
      <point x="842" y="314"/>
      <point x="895" y="295"/>
      <point x="938" y="293"/>
      <point x="944" y="293" type="qcurve"/>
      <point x="1007" y="293"/>
      <point x="1129" y="352"/>
      <point x="1224" y="462"/>
      <point x="1283" y="630"/>
      <point x="1283" y="740" type="qcurve"/>
      <point x="1283" y="874"/>
      <point x="1194" y="1086"/>
      <point x="1033" y="1236"/>
      <point x="816" y="1316"/>
      <point x="687" y="1316" type="qcurve"/>
      <point x="577" y="1316"/>
      <point x="352" y="1247"/>
      <point x="167" y="1086"/>
      <point x="49" y="823"/>
      <point x="49" y="624" type="qcurve"/>
      <point x="49" y="469"/>
      <point x="138" y="227"/>
      <point x="293" y="60"/>
      <point x="511" y="-27"/>
      <point x="640" y="-27" type="qcurve"/>
      <point x="793" y="-27"/>
      <point x="1082" y="68"/>
      <point x="1216" y="147" type="qcurve"/>
    </contour>
    <contour>
      <point x="562" y="443" type="qcurve"/>
      <point x="547" y="443"/>
      <point x="529" y="465"/>
      <point x="518" y="494"/>
      <point x="513" y="522"/>
      <point x="513" y="529" type="qcurve"/>
      <point x="513" y="577"/>
      <point x="547" y="689"/>
      <point x="600" y="783"/>
      <point x="662" y="844"/>
      <point x="691" y="844" type="qcurve"/>
      <point x="711" y="844"/>
      <point x="747" y="798"/>
      <point x="747" y="755" type="qcurve"/>
      <point x="747" y="709"/>
      <point x="715" y="600"/>
      <point x="662" y="505"/>
      <point x="596" y="443"/>
    </contour>
  </outline>
</glyph>
<glyph name="B" format="2">
  <advance width="600"/>
  <unicode hex="0042"/>
  <outline>
    <contour>
      <point x="34" y="583" type="line"/>
      <point x="34" y="501" type="line"/>
      <point x="115" y="501" type="line"/>
      <point x="115" y="82" type="line"/>
      <point x="34" y="82" type="line"/>
      <point x="34" y="0" type="line"/>
      <point x="309" y="0" type="line"/>
      <point x="337" y="0"/>
      <point x="421" y="5"/>
      <point x="500" y="37"/>
      <point x="556" y="107"/>
      <point x="556" y="171" type="qcurve"/>
      <point x="556" y="205"/>
      <point x="535" y="254"/>
      <point x="507" y="286"/>
      <point x="476" y="304"/>
      <point x="467" y="309" type="qcurve"/>
      <point x="487" y="324"/>
      <point x="509" y="359"/>
      <point x="519" y="391"/>
      <point x="521" y="417"/>
      <point x="521" y="423" type="qcurve"/>
      <point x="521" y="460"/>
      <point x="492" y="519"/>
      <point x="468" y="540" type="qcurve"/>
      <point x="445" y="560"/>
      <point x="379" y="583"/>
      <point x="318" y="583" type="qcurve"/>
    </contour>
    <contour>
      <point x="316" y="501" type="line"/>
      <point x="325" y="501"/>
      <point x="363" y="499"/>
      <point x="402" y="485"/>
      <point x="432" y="455"/>
      <point x="432" y="428" type="qcurve"/>
      <point x="432" y="397"/>
      <point x="405" y="363"/>
      <point x="368" y="347"/>
      <point x="326" y="344"/>
      <point x="311" y="344" type="qcurve"/>
      <point x="202" y="344" type="line"/>
      <point x="202" y="501" type="line"/>
    </contour>
    <contour>
      <point x="303" y="262" type="line"/>
      <point x="321" y="262"/>
      <point x="376" y="258"/>
      <point x="429" y="240"/>
      <point x="466" y="201"/>
      <point x="466" y="166" type="qcurve"/>
      <point x="466" y="137"/>
      <point x="442" y="104"/>
      <point x="400" y="87"/>
      <point x="342" y="82"/>
      <point x="307" y="82" type="qcurve"/>
      <point x="202" y="82" type="line"/>
      <point x="202" y="262" type="line"/>
    </contour>
  </outline>
</glyph>
<glyph name="C" format="2">
  <advance width="600"/>
  <unicode hex="0043"/>
  <outline>
    <contour>
      <point x="553" y="178" type="line"/>
      <point x="537" y="163"/>
      <point x="493" y="126"/>
      <point x="438" y="93"/>
      <point x="371" y="70"/>
      <point x="332" y="70" type="qcurve"/>
      <point x="283" y="70"/>
      <point x="212" y="109"/>
      <point x="166" y="174"/>
      <point x="144" y="256"/>
      <point x="144" y="299" type="qcurve"/>
      <point x="144" y="351"/>
      <point x="174" y="432"/>
      <point x="225" y="486"/>
      <point x="292" y="514"/>
      <point x="328" y="514" type="qcurve"/>
      <point x="373" y="514"/>
      <point x="425" y="484"/>
      <point x="454" y="439"/>
      <point x="466" y="384"/>
      <point x="470" y="360" type="qcurve"/>
      <point x="553" y="371" type="line"/>
      <point x="549" y="397"/>
      <point x="543" y="453"/>
      <point x="543" y="496" type="qcurve"/>
      <point x="543" y="526"/>
      <point x="546" y="574"/>
      <point x="548" y="593" type="qcurve"/>
      <point x="465" y="593" type="line"/>
      <point x="459" y="537" type="line"/>
      <point x="446" y="549"/>
      <point x="418" y="571"/>
      <point x="383" y="589"/>
      <point x="341" y="600"/>
      <point x="314" y="600" type="qcurve"/>
      <point x="269" y="600"/>
      <point x="176" y="560"/>
      <point x="100" y="484"/>
      <point x="52" y="371"/>
      <point x="52" y="298" type="qcurve"/>
      <point x="52" y="233"/>
      <point x="90" y="119"/>
      <point x="162" y="33"/>
      <point x="267" y="-16"/>
      <point x="333" y="-16" type="qcurve"/>
      <point x="387" y="-16"/>
      <point x="477" y="15"/>
      <point x="548" y="57"/>
      <point x="598" y="101"/>
      <point x="611" y="114" type="qcurve"/>
    </contour>
  </outline>
</glyph>
<glyph name="D" format="2">
  <advance width="600"/>
  <unicode hex="0044"/>
  <outline>
    <contour>
      <point x="23" y="583" type="line"/>
      <point x="23" y="501" type="line"/>
      <point x="100" y="501" type="line"/>
      <point x="100" y="82" type="line"/>
      <point x="23" y="82" type="line"/>
      <point x="23" y="0" type="line"/>
      <point x="281" y="0" type="line"/>
      <point x="295" y="0"/>
      <point x="342" y="2"/>
      <point x="396" y="13"/>
      <point x="452" y="38"/>
      <point x="476" y="61" type="qcurve"/>
      <point x="492" y="76"/>
      <point x="522" y="121"/>
      <point x="546" y="180"/>
      <point x="561" y="255"/>
      <point x="561" y="301" type="qcurve"/>
      <point x="561" y="315"/>
      <point x="558" y="361"/>
      <point x="546" y="415"/>
      <point x="520" y="475"/>
      <point x="476" y="531"/>
      <point x="427" y="563"/>
      <point x="374" y="579"/>
      <point x="316" y="583"/>
      <point x="284" y="583" type="qcurve"/>
    </contour>
    <contour>
      <point x="285" y="501" type="line"/>
      <point x="312" y="501"/>
      <point x="354" y="498"/>
      <point x="388" y="486"/>
      <point x="417" y="464"/>
      <point x="430" y="445" type="qcurve"/>
      <point x="447" y="420"/>
      <point x="469" y="349"/>
      <point x="469" y="300" type="qcurve"/>
      <point x="469" y="237"/>
      <point x="437" y="148"/>
      <point x="412" y="123" type="qcurve"/>
      <point x="397" y="108"/>
      <point x="361" y="91"/>
      <point x="325" y="83"/>
      <point x="293" y="82"/>
      <point x="281" y="82" type="qcurve"/>
      <point x="187" y="82" type="line"/>
      <point x="187" y="501" type="line"/>
    </contour>
  </outline>
</glyph>
<glyph name="E" format="2">
  <advance width="1334"/>
  <unicode hex="0045"/>
  <outline>
    <contour>
      <point x="100" y="1296" type="line"/>
      <point x="100" y="1114" type="line"/>
      <point x="284" y="1114" type="line"/>
      <point x="284" y="182" type="line"/>
      <point x="100" y="182" type="line"/>
      <point x="100" y="0" type="line"/>
      <point x="1230" y="0" type="line"/>
      <point x="1230" y="482" type="line"/>
      <point x="1045" y="482" type="line"/>
      <point x="1033" y="182" type="line"/>
      <point x="478" y="182" type="line"/>
      <point x="478" y="592" type="line"/>
      <point x="740" y="592" type="line"/>
      <point x="740" y="433" type="line"/>
      <point x="925" y="433" type="line"/>
      <point x="925" y="933" type="line"/>
      <point x="740" y="933" type="line"/>
      <point x="740" y="774" type="line"/>
      <point x="478" y="774" type="line"/>
      <point x="478" y="1114" type="line"/>
      <point x="1014" y="1114" type="line"/>
      <point x="1033" y="816" type="line"/>
      <point x="1218" y="816" type="line"/>
      <point x="1207" y="1296" type="line"/>
    </contour>
  </outline>
</glyph>
<glyph name="F" format="2">
  <advance width="600"/>
  <unicode hex="0046"/>
  <outline>
    <contour>
      <point x="62" y="583" type="line"/>
      <point x="62" y="501" type="line"/>
      <point x="138" y="501" type="line"/>
      <point x="138" y="82" type="line"/>
      <point x="62" y="82" type="line"/>
      <point x="62" y="0" type="line"/>
      <point x="352" y="0" type="line"/>
      <point x="352" y="82" type="line"/>
      <point x="225" y="82" type="line"/>
      <point x="225" y="266" type="line"/>
      <point x="343" y="266" type="line"/>
      <point x="343" y="195" type="line"/>
      <point x="426" y="195" type="line"/>
      <point x="426" y="420" type="line"/>
      <point x="343" y="420" type="line"/>
      <point x="343" y="348" type="line"/>
      <point x="225" y="348" type="line"/>
      <point x="225" y="501" type="line"/>
      <point x="465" y="501" type="line"/>
      <point x="477" y="368" type="line"/>
      <point x="558" y="368" type="line"/>
      <point x="552" y="583" type="line"/>
    </contour>
  </outline>
</glyph>
<glyph name="G" format="2">
  <advance width="600"/>
  <unicode hex="0047"/>
  <outline>
    <contour>
      <point x="450" y="593" type="line"/>
      <point x="444" y="538" type="line"/>
      <point x="426" y="558"/>
      <point x="388" y="582"/>
      <point x="351" y="596"/>
      <point x="318" y="600"/>
      <point x="306" y="600" type="qcurve"/>
      <point x="252" y="600"/>
      <point x="154" y="554"/>
      <point x="80" y="472"/>
      <point x="37" y="358"/>
      <point x="37" y="289" type="qcurve"/>
      <point x="37" y="232"/>
      <point x="71" y="123"/>
      <point x="141" y="37"/>
      <point x="249" y="-16"/>
      <point x="323" y="-16" type="qcurve"/>
      <point x="358" y="-16"/>
      <point x="422" y="-5"/>
      <point x="478" y="12"/>
      <point x="524" y="30"/>
      <point x="541" y="37" type="qcurve"/>
      <point x="541" y="196" type="line"/>
      <point x="588" y="196" type="line"/>
      <point x="588" y="278" type="line"/>
      <point x="310" y="278" type="line"/>
      <point x="310" y="196" type="line"/>
      <point x="454" y="196" type="line"/>
      <point x="454" y="97" type="line"/>
      <point x="402" y="77"/>
      <point x="332" y="70"/>
      <point x="324" y="70" type="qcurve"/>
      <point x="274" y="70"/>
      <point x="201" y="104"/>
      <point x="153" y="163"/>
      <point x="129" y="243"/>
      <point x="129" y="290" type="qcurve"/>
      <point x="129" y="342"/>
      <point x="157" y="425"/>
      <point x="207" y="483"/>
      <point x="273" y="514"/>
      <point x="312" y="514" type="qcurve"/>
      <point x="358" y="514"/>
      <point x="412" y="482"/>
      <point x="441" y="435"/>
      <point x="451" y="381"/>
      <point x="454" y="360" type="qcurve"/>
      <point x="538" y="371" type="line"/>
      <point x="534" y="390"/>
      <point x="526" y="447"/>
      <point x="526" y="495" type="qcurve"/>
      <point x="526" y="526"/>
      <point x="528" y="574"/>
      <point x="530" y="593" type="qcurve"/>
    </contour>
  </outline>
</glyph>
<glyph name="H" format="2">
  <advance width="600"/>
  <unicode hex="0048"/>
  <outline>
    <contour>
      <point x="28" y="583" type="line"/>
      <point x="28" y="501" type="line"/>
      <point x="101" y="501" type="line"/>
      <point x="101" y="82" type="line"/>
      <point x="28" y="82" type="line"/>
      <point x="28" y="0" type="line"/>
      <point x="260" y="0" type="line"/>
      <point x="260" y="82" type="line"/>
      <point x="188" y="82" type="line"/>
      <point x="188" y="260" type="line"/>
      <point x="412" y="260" type="line"/>
      <point x="412" y="82" type="line"/>
      <point x="340" y="82" type="line"/>
      <point x="340" y="0" type="line"/>
      <point x="572" y="0" type="line"/>
      <point x="572" y="82" type="line"/>
      <point x="499" y="82" type="line"/>
      <point x="499" y="501" type="line"/>
      <point x="572" y="501" type="line"/>
      <point x="572" y="583" type="line"/>
      <point x="340" y="583" type="line"/>
      <point x="340" y="501" type="line"/>
      <point x="412" y="501" type="line"/>
      <point x="412" y="342" type="line"/>
      <point x="188" y="342" type="line"/>
      <point x="188" y="501" type="line"/>
      <point x="260" y="501" type="line"/>
      <point x="260" y="583" type="line"/>
    </contour>
  </outline>
</glyph>
<glyph name="I" format="2">
  <advance width="1334"/>
  <unicode hex="0049"/>
  <outline>
    <contour>
      <point x="195" y="1296" type="line"/>
      <point x="195" y="1114" type="line"/>
      <point x="571" y="1114" type="line"/>
      <point x="571" y="182" type="line"/>
      <point x="195" y="182" type="line"/>
      <point x="195" y="0" type="line"/>
      <point x="1141" y="0" type="line"/>
      <point x="1141" y="182" type="line"/>
      <point x="765" y="182" type="line"/>
      <point x="765" y="1114" type="line"/>
      <point x="1141" y="1114" type="line"/>
      <point x="1141" y="1296" type="line"/>
    </contour>
  </outline>
</glyph>
<glyph name="J" format="2">
  <advance width="1334"/>
  <unicode hex="004A"/>
  <outline>
    <contour>
      <point x="420" y="1296" type="line"/>
      <point x="420" y="1114" type="line"/>
      <point x="842" y="1114" type="line"/>
      <point x="842" y="482" type="line"/>
      <point x="842" y="414"/>
      <point x="834" y="295"/>
      <point x="791" y="206"/>
      <point x="700" y="155"/>
      <point x="618" y="155" type="qcurve"/>
      <point x="569" y="155"/>
      <point x="454" y="178"/>
      <point x="403" y="206" type="qcurve"/>
      <point x="344" y="238"/>
      <point x="312" y="325"/>
      <point x="307" y="403" type="qcurve"/>
      <point x="295" y="653" type="line"/>
      <point x="104" y="653" type="line"/>
      <point x="127" y="109" type="line"/>
      <point x="212" y="64"/>
      <point x="356" y="7"/>
      <point x="478" y="-25"/>
      <point x="583" y="-36"/>
      <point x="624" y="-36" type="qcurve"/>
      <point x="640" y="-36"/>
      <point x="725" y="-29"/>
      <point x="825" y="0"/>
      <point x="929" y="64"/>
      <point x="967" y="123" type="qcurve"/>
      <point x="1016" y="198"/>
      <point x="1035" y="393"/>
      <point x="1035" y="482" type="qcurve"/>
      <point x="1035" y="1114" type="line"/>
      <point x="1311" y="1114" type="line"/>
      <point x="1311" y="1296" type="line"/>
    </contour>
  </outline>
</glyph>
<glyph name="K" format="2">
  <advance width="600"/>
  <unicode hex="004B"/>
  <outline>
    <contour>
      <point x="48" y="583" type="line"/>
      <point x="48" y="501" type="line"/>
      <point x="130" y="501" type="line"/>
      <point x="130" y="82" type="line"/>
      <point x="48" y="82" type="line"/>
      <point x="48" y="0" type="line"/>
      <point x="299" y="0" type="line"/>
      <point x="299" y="82" type="line"/>
      <point x="217" y="82" type="line"/>
      <point x="217" y="210" type="line"/>
      <point x="268" y="258" type="line"/>
      <point x="322" y="226"/>
      <point x="404" y="96"/>
      <point x="441" y="0" type="qcurve"/>
      <point x="598" y="0" type="line"/>
      <point x="598" y="82" type="line"/>
      <point x="502" y="82" type="line"/>
      <point x="485" y="117"/>
      <point x="451" y="185"/>
      <point x="411" y="245"/>
      <point x="362" y="298"/>
      <point x="330" y="318" type="qcurve"/>
      <point x="515" y="501" type="line"/>
      <point x="570" y="501" type="line"/>
      <point x="570" y="583" type="line"/>
      <point x="342" y="583" type="line"/>
      <point x="342" y="501" type="line"/>
      <point x="402" y="501" type="line"/>
      <point x="217" y="321" type="line"/>
      <point x="217" y="501" type="line"/>
      <point x="299" y="501" type="line"/>
      <point x="299" y="583" type="line"/>
    </contour>
  </outline>
</glyph>
<glyph name="L" format="2">
  <advance width="1334"/>
  <unicode hex="004C"/>
  <outline>
    <contour>
      <point x="106" y="1296" type="line"/>
      <point x="106" y="1114" type="line"/>
      <point x="320" y="1114" type="line"/>
      <point x="320" y="182" type="line"/>
      <point x="106" y="182" type="line"/>
      <point x="106" y="0" type="line"/>
      <point x="1227" y="0" type="line"/>
      <point x="1256" y="622" type="line"/>
      <point x="1067" y="622" type="line"/>
      <point x="1038" y="182" type="line"/>
      <point x="513" y="182" type="line"/>
      <point x="513" y="1114" type="line"/>
      <point x="780" y="1114" type="line"/>
      <point x="780" y="1296" type="line"/>
    </contour>
  </outline>
</glyph>
<glyph name="M" format="2">
  <advance width="1334"/>
  <unicode hex="004D"/>
  <outline>
    <contour>
      <point x="653" y="643" type="line"/>
      <point x="433" y="1296" type="line"/>
      <point x="7" y="1296" type="line"/>
      <point x="7" y="1114" type="line"/>
      <point x="149" y="1114" type="line"/>
      <point x="136" y="182" type="line"/>
      <point x="7" y="182" type="line"/>
      <point x="7" y="0" type="line"/>
      <point x="556" y="0" type="line"/>
      <point x="556" y="182" type="line"/>
      <point x="322" y="182" type="line"/>
      <point x="333" y="974" type="line"/>
      <point x="360" y="974" type="line"/>
      <point x="569" y="342" type="line"/>
      <point x="765" y="342" type="line"/>
      <point x="976" y="974" type="line"/>
      <point x="1003" y="974" type="line"/>
      <point x="1014" y="182" type="line"/>
      <point x="780" y="182" type="line"/>
      <point x="780" y="0" type="line"/>
      <point x="1330" y="0" type="line"/>
      <point x="1330" y="182" type="line"/>
      <point x="1200" y="182" type="line"/>
      <point x="1187" y="1114" type="line"/>
      <point x="1325" y="1114" type="line"/>
      <point x="1325" y="1296" type="line"/>
      <point x="898" y="1296" type="line"/>
      <point x="694" y="643" type="line"/>
    </contour>
  </outline>
</glyph>
<glyph name="N" format="2">
  <advance width="600"/>
  <unicode hex="004E"/>
  <outline>
    <contour>
      <point x="5" y="583" type="line"/>
      <point x="5" y="501" type="line"/>
      <point x="83" y="501" type="line"/>
      <point x="83" y="82" type="line"/>
      <point x="5" y="82" type="line"/>
      <point x="5" y="0" type="line"/>
      <point x="264" y="0" type="line"/>
      <point x="264" y="82" type="line"/>
      <point x="163" y="82" type="line"/>
      <point x="163" y="428" type="line"/>
      <point x="181" y="428" type="line"/>
      <point x="420" y="-12" type="line"/>
      <point x="527" y="-12" type="line"/>
      <point x="527" y="501" type="line"/>
      <point x="594" y="501" type="line"/>
      <point x="594" y="583" type="line"/>
      <point x="347" y="583" type="line"/>
      <point x="347" y="501" type="line"/>
      <point x="447" y="501" type="line"/>
      <point x="447" y="150" type="line"/>
      <point x="430" y="150" type="line"/>
      <point x="196" y="583" type="line"/>
    </contour>
  </outline>
</glyph>
<glyph name="P" format="2">
  <advance width="600"/>
  <unicode hex="0050"/>
  <outline>
    <contour>
      <point x="81" y="583" type="line"/>
      <point x="81" y="501" type="line"/>
      <point x="158" y="501" type="line"/>
      <point x="158" y="82" type="line"/>
      <point x="81" y="82" type="line"/>
      <point x="81" y="0" type="line"/>
      <point x="387" y="0" type="line"/>
      <point x="387" y="82" type="line"/>
      <point x="245" y="82" type="line"/>
      <point x="245" y="213" type="line"/>
      <point x="280" y="213" type="line"/>
      <point x="324" y="213"/>
      <point x="384" y="215"/>
      <point x="430" y="221"/>
      <point x="467" y="234"/>
      <point x="487" y="246" type="qcurve"/>
      <point x="522" y="266"/>
      <point x="566" y="349"/>
      <point x="566" y="394" type="qcurve"/>
      <point x="566" y="444"/>
      <point x="514" y="532"/>
      <point x="472" y="555" type="qcurve"/>
      <point x="443" y="571"/>
      <point x="373" y="583"/>
      <point x="320" y="583" type="qcurve"/>
    </contour>
    <contour>
      <point x="321" y="501" type="line"/>
      <point x="346" y="501"/>
      <point x="379" y="499"/>
      <point x="403" y="494"/>
      <point x="419" y="488"/>
      <point x="427" y="484" type="qcurve"/>
      <point x="445" y="474"/>
      <point x="474" y="428"/>
      <point x="474" y="397" type="qcurve"/>
      <point x="474" y="365"/>
      <point x="445" y="322"/>
      <point x="434" y="316" type="qcurve"/>
      <point x="425" y="311"/>
      <point x="405" y="303"/>
      <point x="372" y="298"/>
      <point x="321" y="295"/>
      <point x="281" y="295" type="qcurve"/>
      <point x="245" y="295" type="line"/>
      <point x="245" y="501" type="line"/>
    </contour>
  </outline>
</glyph>
<glyph name="Q" format="2">
  <advance width="600"/>
  <unicode hex="0051"/>
  <outline>
    <contour>
      <point x="515" y="-3" type="line"/>
      <point x="497" y="-17"/>
      <point x="457" y="-38"/>
      <point x="439" y="-38" type="qcurve"/>
      <point x="422" y="-38"/>
      <point x="371" y="-20"/>
      <point x="354" y="-6" type="qcurve"/>
      <point x="341" y="-6" type="line"/>
      <point x="341" y="-4" type="line"/>
      <point x="352" y="-4"/>
      <point x="394" y="6"/>
      <point x="445" y="30"/>
      <point x="497" y="72"/>
      <point x="540" y="137"/>
      <point x="567" y="229"/>
      <point x="567" y="291" type="qcurve"/>
      <point x="567" y="364"/>
      <point x="524" y="478"/>
      <point x="451" y="558"/>
      <point x="353" y="600"/>
      <point x="299" y="600" type="qcurve"/>
      <point x="246" y="600"/>
      <point x="150" y="559"/>
      <point x="77" y="481"/>
      <point x="33" y="368"/>
      <point x="33" y="295" type="qcurve"/>
      <point x="33" y="241"/>
      <point x="62" y="128"/>
      <point x="103" y="77" type="qcurve"/>
      <point x="128" y="46"/>
      <point x="174" y="19"/>
      <point x="197" y="8" type="qcurve"/>
      <point x="184" y="-6"/>
      <point x="167" y="-22"/>
      <point x="151" y="-35"/>
      <point x="134" y="-46"/>
      <point x="121" y="-53" type="qcurve"/>
      <point x="163" y="-125" type="line"/>
      <point x="164" y="-124"/>
      <point x="170" y="-121"/>
      <point x="171" y="-120" type="qcurve"/>
      <point x="191" y="-108"/>
      <point x="221" y="-92"/>
      <point x="246" y="-82"/>
      <point x="269" y="-78"/>
      <point x="284" y="-78" type="qcurve"/>
      <point x="299" y="-78"/>
      <point x="327" y="-84"/>
      <point x="351" y="-95" type="qcurve"/>
      <point x="377" y="-106"/>
      <point x="416" y="-119"/>
      <point x="442" y="-119" type="qcurve"/>
      <point x="480" y="-119"/>
      <point x="533" y="-90"/>
      <point x="558" y="-73" type="qcurve"/>
      <point x="567" y="-67" type="line"/>
    </contour>
    <contour>
      <point x="296" y="73" type="qcurve"/>
      <point x="263" y="73"/>
      <point x="201" y="99"/>
      <point x="153" y="153"/>
      <point x="125" y="237"/>
      <point x="125" y="295" type="qcurve"/>
      <point x="125" y="361"/>
      <point x="163" y="446"/>
      <point x="217" y="495"/>
      <point x="277" y="514"/>
      <point x="299" y="514" type="qcurve"/>
      <point x="317" y="514"/>
      <point x="376" y="499"/>
      <point x="433" y="451"/>
      <point x="475" y="363"/>
      <point x="475" y="290" type="qcurve"/>
      <point x="475" y="237"/>
      <point x="452" y="164"/>
      <point x="417" y="115"/>
      <point x="375" y="89"/>
      <point x="335" y="76"/>
      <point x="303" y="73"/>
    </contour>
  </outline>
</glyph>
<glyph name="R" format="2">
  <advance width="1334"/>
  <unicode hex="0052"/>
  <outline>
    <contour>
      <point x="78" y="1296" type="line"/>
      <point x="78" y="1114" type="line"/>
      <point x="251" y="1114" type="line"/>
      <point x="251" y="182" type="line"/>
      <point x="78" y="182" type="line"/>
      <point x="78" y="0" type="line"/>
      <point x="638" y="0" type="line"/>
      <point x="638" y="182" type="line"/>
      <point x="445" y="182" type="line"/>
      <point x="445" y="554" type="line"/>
      <point x="558" y="554" type="line"/>
      <point x="585" y="554"/>
      <point x="624" y="541"/>
      <point x="664" y="505"/>
      <point x="713" y="441"/>
      <point x="749" y="386" type="qcurve"/>
      <point x="751" y="384"/>
      <point x="793" y="316"/>
      <point x="859" y="206"/>
      <point x="931" y="72"/>
      <point x="965" y="0" type="qcurve"/>
      <point x="1307" y="0" type="line"/>
      <point x="1307" y="182" type="line"/>
      <point x="1098" y="182" type="line"/>
      <point x="1040" y="278"/>
      <point x="965" y="405"/>
      <point x="910" y="492"/>
      <point x="869" y="549"/>
      <point x="849" y="575" type="qcurve"/>
      <point x="956" y="607"/>
      <point x="1071" y="713"/>
      <point x="1127" y="823"/>
      <point x="1136" y="914"/>
      <point x="1136" y="931" type="qcurve"/>
      <point x="1136" y="1020"/>
      <point x="1054" y="1185"/>
      <point x="989" y="1230" type="qcurve"/>
      <point x="923" y="1276"/>
      <point x="776" y="1296"/>
      <point x="671" y="1296" type="qcurve"/>
    </contour>
    <contour>
      <point x="671" y="1114" type="line"/>
      <point x="732" y="1114"/>
      <point x="827" y="1101"/>
      <point x="895" y="1063"/>
      <point x="931" y="993"/>
      <point x="931" y="938" type="qcurve"/>
      <point x="931" y="859"/>
      <point x="851" y="774"/>
      <point x="745" y="738"/>
      <point x="638" y="736"/>
      <point x="609" y="736" type="qcurve"/>
      <point x="445" y="736" type="line"/>
      <point x="445" y="1114" type="line"/>
    </contour>
  </outline>
</glyph>
<glyph name="S" format="2">
  <advance width="1334"/>
  <unicode hex="0053"/>
  <outline>
    <contour>
      <point x="967" y="1318" type="line"/>
      <point x="949" y="1194" type="line"/>
      <point x="936" y="1207"/>
      <point x="889" y="1254"/>
      <point x="816" y="1300"/>
      <point x="713" y="1334"/>
      <point x="647" y="1334" type="qcurve"/>
      <point x="564" y="1334"/>
      <point x="401" y="1271"/>
      <point x="271" y="1162"/>
      <point x="189" y="1012"/>
      <point x="189" y="923" type="qcurve"/>
      <point x="189" y="840"/>
      <point x="244" y="723"/>
      <point x="333" y="640"/>
      <point x="445" y="589"/>
      <point x="560" y="560"/>
      <point x="664" y="547"/>
      <point x="704" y="543" type="qcurve"/>
      <point x="755" y="538"/>
      <point x="849" y="520"/>
      <point x="923" y="480"/>
      <point x="967" y="416"/>
      <point x="967" y="365" type="qcurve"/>
      <point x="967" y="307"/>
      <point x="912" y="227"/>
      <point x="825" y="178"/>
      <point x="721" y="155"/>
      <point x="671" y="155" type="qcurve"/>
      <point x="592" y="155"/>
      <point x="480" y="204"/>
      <point x="409" y="289"/>
      <point x="376" y="401"/>
      <point x="369" y="462" type="qcurve"/>
      <point x="191" y="462" type="line"/>
      <point x="195" y="409"/>
      <point x="209" y="209"/>
      <point x="209" y="106" type="qcurve"/>
      <point x="209" y="51"/>
      <point x="206" y="-9"/>
      <point x="202" y="-42" type="qcurve"/>
      <point x="382" y="-42" type="line"/>
      <point x="401" y="91" type="line"/>
      <point x="420" y="68"/>
      <point x="469" y="25"/>
      <point x="538" y="-13"/>
      <point x="634" y="-36"/>
      <point x="700" y="-36" type="qcurve"/>
      <point x="798" y="-36"/>
      <point x="967" y="27"/>
      <point x="1094" y="136"/>
      <point x="1167" y="282"/>
      <point x="1167" y="369" type="qcurve"/>
      <point x="1167" y="478"/>
      <point x="1069" y="620"/>
      <point x="1009" y="658" type="qcurve"/>
      <point x="942" y="700"/>
      <point x="793" y="727"/>
      <point x="683" y="740" type="qcurve"/>
      <point x="647" y="745"/>
      <point x="547" y="760"/>
      <point x="454" y="798"/>
      <point x="389" y="869"/>
      <point x="389" y="927" type="qcurve"/>
      <point x="389" y="963"/>
      <point x="420" y="1038"/>
      <point x="492" y="1101"/>
      <point x="598" y="1143"/>
      <point x="676" y="1143" type="qcurve"/>
      <point x="774" y="1143"/>
      <point x="887" y="1069"/>
      <point x="949" y="963"/>
      <point x="971" y="844"/>
      <point x="978" y="800" type="qcurve"/>
      <point x="1154" y="825" type="line"/>
      <point x="1154" y="829"/>
      <point x="1152" y="874"/>
      <point x="1149" y="878" type="qcurve"/>
      <point x="1145" y="918"/>
      <point x="1136" y="1056"/>
      <point x="1136" y="1127" type="qcurve"/>
      <point x="1136" y="1185"/>
      <point x="1141" y="1281"/>
      <point x="1145" y="1318" type="qcurve"/>
    </contour>
  </outline>
</glyph>
<glyph name="T" format="2">
  <advance width="1334"/>
  <unicode hex="0054"/>
  <outline>
    <contour>
      <point x="111" y="1296" type="line"/>
      <point x="68" y="709" type="line"/>
      <point x="260" y="683" type="line"/>
      <point x="289" y="1114" type="line"/>
      <point x="571" y="1114" type="line"/>
      <point x="571" y="182" type="line"/>
      <point x="314" y="182" type="line"/>
      <point x="314" y="0" type="line"/>
      <point x="1027" y="0" type="line"/>
      <point x="1027" y="182" type="line"/>
      <point x="765" y="182" type="line"/>
      <point x="765" y="1114" type="line"/>
      <point x="1047" y="1114" type="line"/>
      <point x="1076" y="683" type="line"/>
      <point x="1267" y="709" type="line"/>
      <point x="1224" y="1296" type="line"/>
    </contour>
  </outline>
</glyph>
<glyph name="U" format="2">
  <advance width="1334"/>
  <unicode hex="0055"/>
  <outline>
    <contour>
      <point x="34" y="1296" type="line"/>
      <point x="34" y="1114" type="line"/>
      <point x="187" y="1114" type="line"/>
      <point x="187" y="547" type="line"/>
      <point x="187" y="511"/>
      <point x="189" y="414"/>
      <point x="204" y="305"/>
      <point x="236" y="195"/>
      <point x="267" y="151" type="qcurve"/>
      <point x="303" y="98"/>
      <point x="403" y="25"/>
      <point x="509" y="-17"/>
      <point x="620" y="-36"/>
      <point x="666" y="-36" type="qcurve"/>
      <point x="742" y="-36"/>
      <point x="859" y="-17"/>
      <point x="952" y="25"/>
      <point x="1029" y="96"/>
      <point x="1067" y="151" type="qcurve"/>
      <point x="1098" y="198"/>
      <point x="1131" y="307"/>
      <point x="1145" y="414"/>
      <point x="1147" y="511"/>
      <point x="1147" y="547" type="qcurve"/>
      <point x="1147" y="1114" type="line"/>
      <point x="1300" y="1114" type="line"/>
      <point x="1300" y="1296" type="line"/>
      <point x="736" y="1296" type="line"/>
      <point x="736" y="1114" type="line"/>
      <point x="954" y="1114" type="line"/>
      <point x="954" y="547" type="line"/>
      <point x="954" y="475"/>
      <point x="942" y="335"/>
      <point x="887" y="225"/>
      <point x="772" y="155"/>
      <point x="666" y="155" type="qcurve"/>
      <point x="562" y="155"/>
      <point x="447" y="225"/>
      <point x="391" y="335"/>
      <point x="380" y="475"/>
      <point x="380" y="547" type="qcurve"/>
      <point x="380" y="1114" type="line"/>
      <point x="598" y="1114" type="line"/>
      <point x="598" y="1296" type="line"/>
    </contour>
  </outline>
</glyph>
<glyph name="V" format="2">
  <advance width="600"/>
  <unicode hex="0056"/>
  <outline>
    <contour>
      <point x="303" y="124" type="line"/>
      <point x="164" y="501" type="line"/>
      <point x="246" y="501" type="line"/>
      <point x="246" y="583" type="line"/>
      <point x="0" y="583" type="line"/>
      <point x="0" y="501" type="line"/>
      <point x="72" y="501" type="line"/>
      <point x="259" y="0" type="line"/>
      <point x="345" y="0" type="line"/>
      <point x="534" y="501" type="line"/>
      <point x="600" y="501" type="line"/>
      <point x="600" y="583" type="line"/>
      <point x="355" y="583" type="line"/>
      <point x="355" y="501" type="line"/>
      <point x="445" y="501" type="line"/>
    </contour>
  </outline>
</glyph>
<glyph name="W" format="2">
  <advance width="1334"/>
  <unicode hex="0057"/>
  <outline>
    <contour>
      <point x="0" y="1296" type="line"/>
      <point x="0" y="1114" type="line"/>
      <point x="106" y="1114" type="line"/>
      <point x="240" y="0" type="line"/>
      <point x="416" y="0" type="line"/>
      <point x="656" y="683" type="line"/>
      <point x="660" y="683" type="line"/>
      <point x="910" y="0" type="line"/>
      <point x="1084" y="0" type="line"/>
      <point x="1230" y="1114" type="line"/>
      <point x="1334" y="1114" type="line"/>
      <point x="1334" y="1296" type="line"/>
      <point x="827" y="1296" type="line"/>
      <point x="827" y="1114" type="line"/>
      <point x="1043" y="1114" type="line"/>
      <point x="963" y="435" type="line"/>
      <point x="958" y="435" type="line"/>
      <point x="738" y="1022" type="line"/>
      <point x="605" y="1022" type="line"/>
      <point x="378" y="435" type="line"/>
      <point x="373" y="435" type="line"/>
      <point x="297" y="1114" type="line"/>
      <point x="511" y="1114" type="line"/>
      <point x="511" y="1296" type="line"/>
    </contour>
  </outline>
</glyph>
<glyph name="X" format="2">
  <advance width="600"/>
  <unicode hex="0058"/>
  <outline>
    <contour>
      <point x="41" y="583" type="line"/>
      <point x="41" y="501" type="line"/>
      <point x="102" y="501" type="line"/>
      <point x="249" y="305" type="line"/>
      <point x="81" y="82" type="line"/>
      <point x="22" y="82" type="line"/>
      <point x="22" y="0" type="line"/>
      <point x="267" y="0" type="line"/>
      <point x="267" y="82" type="line"/>
      <point x="185" y="82" type="line"/>
      <point x="301" y="237" type="line"/>
      <point x="411" y="82" type="line"/>
      <point x="343" y="82" type="line"/>
      <point x="343" y="0" type="line"/>
      <point x="578" y="0" type="line"/>
      <point x="578" y="82" type="line"/>
      <point x="518" y="82" type="line"/>
      <point x="352" y="305" type="line"/>
      <point x="500" y="501" type="line"/>
      <point x="559" y="501" type="line"/>
      <point x="559" y="583" type="line"/>
      <point x="343" y="583" type="line"/>
      <point x="343" y="501" type="line"/>
      <point x="396" y="501" type="line"/>
      <point x="301" y="371" type="line"/>
      <point x="208" y="501" type="line"/>
      <point x="267" y="501" type="line"/>
      <point x="267" y="583" type="line"/>
    </contour>
  </outline>
</glyph>
<glyph name="Y" format="2">
  <advance width="600"/>
  <unicode hex="0059"/>
  <outline>
    <contour>
      <point x="21" y="583" type="line"/>
      <point x="21" y="501" type="line"/>
      <point x="91" y="501" type="line"/>
      <point x="258" y="224" type="line"/>
      <point x="258" y="82" type="line"/>
      <point x="142" y="82" type="line"/>
      <point x="142" y="0" type="line"/>
      <point x="458" y="0" type="line"/>
      <point x="458" y="82" type="line"/>
      <point x="344" y="82" type="line"/>
      <point x="344" y="224" type="line"/>
      <point x="509" y="501" type="line"/>
      <point x="579" y="501" type="line"/>
      <point x="579" y="583" type="line"/>
      <point x="352" y="583" type="line"/>
      <point x="352" y="501" type="line"/>
      <point x="412" y="501" type="line"/>
      <point x="303" y="316" type="line"/>
      <point x="192" y="501" type="line"/>
      <point x="250" y="501" type="line"/>
      <point x="250" y="583" type="line"/>
    </contour>
  </outline>
</glyph>
<glyph name="Z" format="2">
  <advance width="1334"/>
  <unicode hex="005A"/>
  <outline>
    <contour>
      <point x="174" y="1296" type="line"/>
      <point x="174" y="796" type="line"/>
      <point x="367" y="796" type="line"/>
      <point x="367" y="1114" type="line"/>
      <point x="859" y="1114" type="line"/>
      <point x="160" y="155" type="line"/>
      <point x="160" y="0" type="line"/>
      <point x="1173" y="0" type="line"/>
      <point x="1173" y="534" type="line"/>
      <point x="980" y="534" type="line"/>
      <point x="980" y="182" type="line"/>
      <point x="418" y="182" type="line"/>
      <point x="1124" y="1149" type="line"/>
      <point x="1124" y="1296" type="line"/>
    </contour>
  </outline>
</glyph>
<glyph name="bracketleft" format="2">
  <advance width="600"/>
  <unicode hex="005B"/>
  <outline>
    <contour>
      <point x="290" y="672" type="line"/>
      <point x="290" y="-91" type="line"/>
      <point x="498" y="-91" type="line"/>
      <point x="498" y="-4" type="line"/>
      <point x="377" y="-4" type="line"/>
      <point x="377" y="583" type="line"/>
      <point x="498" y="583" type="line"/>
      <point x="498" y="672" type="line"/>
    </contour>
  </outline>
</glyph>
<glyph name="backslash" format="2">
  <advance width="600"/>
  <unicode hex="005C"/>
  <outline>
    <contour>
      <point x="149" y="727" type="line"/>
      <point x="72" y="693" type="line"/>
      <point x="450" y="-139" type="line"/>
      <point x="528" y="-104" type="line"/>
    </contour>
  </outline>
</glyph>
<glyph name="bracketright" format="2">
  <advance width="600"/>
  <unicode hex="005D"/>
  <outline>
    <contour>
      <point x="310" y="-91" type="line"/>
      <point x="310" y="672" type="line"/>
      <point x="102" y="672" type="line"/>
      <point x="102" y="583" type="line"/>
      <point x="223" y="583" type="line"/>
      <point x="223" y="-4" type="line"/>
      <point x="102" y="-4" type="line"/>
      <point x="102" y="-91" type="line"/>
    </contour>
  </outline>
</glyph>
<glyph name="asciicircum" format="2">
  <advance width="1334"/>
  <unicode hex="005E"/>
  <outline>
    <contour>
      <point x="1194" y="340" type="line"/>
      <point x="809" y="1296" type="line"/>
      <point x="511" y="1296" type="line"/>
      <point x="140" y="340" type="line"/>
      <point x="378" y="340" type="line"/>
      <point x="660" y="1069" type="line"/>
      <point x="956" y="340" type="line"/>
    </contour>
  </outline>
</glyph>
<glyph name="underscore" format="2">
  <advance width="1334"/>
  <unicode hex="005F"/>
  <outline>
    <contour>
      <point x="-106" y="-167" type="line"/>
      <point x="-106" y="-278" type="line"/>
      <point x="1440" y="-278" type="line"/>
      <point x="1440" y="-167" type="line"/>
    </contour>
  </outline>
</glyph>
<glyph name="grave" format="2">
  <advance width="600"/>
  <unicode hex="0060"/>
  <outline>
    <contour>
      <point x="156" y="638" type="line"/>
      <point x="323" y="544" type="line"/>
      <point x="410" y="544" type="line"/>
      <point x="305" y="642" type="line"/>
      <point x="156" y="642" type="line"/>
    </contour>
  </outline>
</glyph>
<glyph name="a" format="2">
  <advance width="600"/>
  <unicode hex="0061"/>
  <outline>
    <contour>
      <point x="475" y="307" type="line"/>
      <point x="475" y="384"/>
      <point x="387" y="474"/>
      <point x="291" y="474" type="qcurve"/>
      <point x="230" y="474"/>
      <point x="127" y="441"/>
      <point x="81" y="422" type="qcurve"/>
      <point x="115" y="342" type="line"/>
      <point x="129" y="348"/>
      <point x="167" y="364"/>
      <point x="213" y="378"/>
      <point x="264" y="388"/>
      <point x="290" y="388" type="qcurve"/>
      <point x="327" y="388"/>
      <point x="367" y="370"/>
      <point x="385" y="343"/>
      <point x="388" y="312"/>
      <point x="388" y="299" type="qcurve"/>
      <point x="361" y="302"/>
      <point x="308" y="307"/>
      <point x="274" y="307" type="qcurve"/>
      <point x="208" y="307"/>
      <point x="121" y="273"/>
      <point x="69" y="222"/>
      <point x="48" y="165"/>
      <point x="48" y="142" type="qcurve"/>
      <point x="48" y="113"/>
      <point x="73" y="57"/>
      <point x="119" y="13"/>
      <point x="183" y="-14"/>
      <point x="223" y="-14" type="qcurve"/>
      <point x="253" y="-14"/>
      <point x="303" y="-1"/>
      <point x="343" y="17"/>
      <point x="376" y="39"/>
      <point x="388" y="48" type="qcurve"/>
      <point x="388" y="0" type="line"/>
      <point x="561" y="0" type="line"/>
      <point x="561" y="82" type="line"/>
      <point x="475" y="82" type="line"/>
    </contour>
    <contour>
      <point x="388" y="162" type="line"/>
      <point x="359" y="130"/>
      <point x="306" y="94"/>
      <point x="262" y="76"/>
      <point x="229" y="72"/>
      <point x="222" y="72" type="qcurve"/>
      <point x="206" y="72"/>
      <point x="176" y="83"/>
      <point x="152" y="102"/>
      <point x="138" y="127"/>
      <point x="138" y="141" type="qcurve"/>
      <point x="138" y="145"/>
      <point x="144" y="173"/>
      <point x="172" y="202"/>
      <point x="231" y="225"/>
      <point x="284" y="225" type="qcurve"/>
      <point x="313" y="225"/>
      <point x="362" y="218"/>
      <point x="388" y="214" type="qcurve"/>
    </contour>
  </outline>
</glyph>
<glyph name="b" format="2">
  <advance width="600"/>
  <unicode hex="0062"/>
  <outline>
    <contour>
      <point x="0" y="638" type="line"/>
      <point x="6" y="553" type="line"/>
      <point x="83" y="557" type="line"/>
      <point x="83" y="82" type="line"/>
      <point x="6" y="82" type="line"/>
      <point x="6" y="0" type="line"/>
      <point x="170" y="0" type="line"/>
      <point x="170" y="44" type="line"/>
      <point x="194" y="25"/>
      <point x="238" y="4"/>
      <point x="277" y="-7"/>
      <point x="310" y="-10"/>
      <point x="321" y="-10" type="qcurve"/>
      <point x="373" y="-10"/>
      <point x="458" y="30"/>
      <point x="520" y="95"/>
      <point x="554" y="179"/>
      <point x="554" y="223" type="qcurve"/>
      <point x="554" y="271"/>
      <point x="516" y="357"/>
      <point x="452" y="420"/>
      <point x="366" y="457"/>
      <point x="317" y="457" type="qcurve"/>
      <point x="275" y="457"/>
      <point x="203" y="429"/>
      <point x="170" y="402" type="qcurve"/>
      <point x="170" y="648" type="line"/>
    </contour>
    <contour>
      <point x="170" y="224" type="qcurve"/>
      <point x="170" y="253"/>
      <point x="193" y="306"/>
      <point x="234" y="347"/>
      <point x="288" y="371"/>
      <point x="319" y="371" type="qcurve"/>
      <point x="349" y="371"/>
      <point x="402" y="348"/>
      <point x="440" y="307"/>
      <point x="462" y="253"/>
      <point x="462" y="223" type="qcurve"/>
      <point x="462" y="193"/>
      <point x="441" y="140"/>
      <point x="404" y="100"/>
      <point x="351" y="76"/>
      <point x="320" y="76" type="qcurve"/>
      <point x="288" y="76"/>
      <point x="233" y="100"/>
      <point x="193" y="141"/>
      <point x="170" y="194"/>
    </contour>
  </outline>
</glyph>
<glyph name="c" format="2">
  <advance width="1334"/>
  <unicode hex="0063"/>
  <outline>
    <contour>
      <point x="1009" y="1038" type="line"/>
      <point x="989" y="916" type="line"/>
      <point x="905" y="987"/>
      <point x="758" y="1038"/>
      <point x="674" y="1038" type="qcurve"/>
      <point x="543" y="1038"/>
      <point x="340" y="944"/>
      <point x="202" y="791"/>
      <point x="131" y="600"/>
      <point x="131" y="503" type="qcurve"/>
      <point x="131" y="389"/>
      <point x="212" y="195"/>
      <point x="358" y="51"/>
      <point x="560" y="-31"/>
      <point x="681" y="-31" type="qcurve"/>
      <point x="778" y="-31"/>
      <point x="956" y="22"/>
      <point x="1105" y="98"/>
      <point x="1220" y="180"/>
      <point x="1260" y="212" type="qcurve"/>
      <point x="1154" y="363" type="line"/>
      <point x="1105" y="329"/>
      <point x="996" y="256"/>
      <point x="878" y="198"/>
      <point x="753" y="160"/>
      <point x="689" y="160" type="qcurve"/>
      <point x="592" y="160"/>
      <point x="458" y="225"/>
      <point x="373" y="327"/>
      <point x="335" y="447"/>
      <point x="335" y="505" type="qcurve"/>
      <point x="335" y="541"/>
      <point x="363" y="656"/>
      <point x="443" y="767"/>
      <point x="587" y="847"/>
      <point x="704" y="847" type="qcurve"/>
      <point x="800" y="847"/>
      <point x="910" y="802"/>
      <point x="967" y="727"/>
      <point x="989" y="630"/>
      <point x="996" y="577" type="qcurve"/>
      <point x="1183" y="602" type="line"/>
      <point x="1178" y="640"/>
      <point x="1169" y="734"/>
      <point x="1169" y="798" type="qcurve"/>
      <point x="1169" y="859"/>
      <point x="1178" y="976"/>
      <point x="1183" y="1020" type="qcurve"/>
    </contour>
  </outline>
</glyph>
<glyph name="d" format="2">
  <advance width="1334"/>
  <unicode hex="0064"/>
  <outline>
    <contour>
      <point x="602" y="1394" type="line"/>
      <point x="583" y="1205" type="line"/>
      <point x="940" y="1232" type="line"/>
      <point x="940" y="900" type="line"/>
      <point x="869" y="958"/>
      <point x="694" y="1016"/>
      <point x="611" y="1016" type="qcurve"/>
      <point x="513" y="1016"/>
      <point x="329" y="942"/>
      <point x="187" y="804"/>
      <point x="98" y="613"/>
      <point x="98" y="498" type="qcurve"/>
      <point x="98" y="393"/>
      <point x="178" y="204"/>
      <point x="316" y="62"/>
      <point x="505" y="-22"/>
      <point x="615" y="-22" type="qcurve"/>
      <point x="638" y="-22"/>
      <point x="711" y="-15"/>
      <point x="798" y="9"/>
      <point x="893" y="53"/>
      <point x="940" y="93" type="qcurve"/>
      <point x="940" y="0" type="line"/>
      <point x="1313" y="0" type="line"/>
      <point x="1313" y="182" type="line"/>
      <point x="1133" y="182" type="line"/>
      <point x="1133" y="1440" type="line"/>
    </contour>
    <contour>
      <point x="936" y="496" type="qcurve"/>
      <point x="936" y="424"/>
      <point x="882" y="305"/>
      <point x="796" y="218"/>
      <point x="681" y="169"/>
      <point x="618" y="169" type="qcurve"/>
      <point x="554" y="169"/>
      <point x="441" y="218"/>
      <point x="354" y="307"/>
      <point x="303" y="427"/>
      <point x="303" y="500" type="qcurve"/>
      <point x="303" y="573"/>
      <point x="354" y="694"/>
      <point x="441" y="778"/>
      <point x="556" y="825"/>
      <point x="618" y="825" type="qcurve"/>
      <point x="698" y="825"/>
      <point x="818" y="762"/>
      <point x="895" y="666"/>
      <point x="936" y="549"/>
    </contour>
  </outline>
</glyph>
<glyph name="f" format="2">
  <advance width="1334"/>
  <unicode hex="0066"/>
  <outline>
    <contour>
      <point x="187" y="984" type="line"/>
      <point x="187" y="802" type="line"/>
      <point x="411" y="802" type="line"/>
      <point x="411" y="182" type="line"/>
      <point x="187" y="182" type="line"/>
      <point x="187" y="0" type="line"/>
      <point x="1063" y="0" type="line"/>
      <point x="1063" y="182" type="line"/>
      <point x="605" y="182" type="line"/>
      <point x="605" y="802" type="line"/>
      <point x="1063" y="802" type="line"/>
      <point x="1063" y="984" type="line"/>
      <point x="605" y="984" type="line"/>
      <point x="605" y="1060" type="line"/>
      <point x="605" y="1105"/>
      <point x="609" y="1171"/>
      <point x="638" y="1216"/>
      <point x="704" y="1238"/>
      <point x="767" y="1238" type="qcurve"/>
      <point x="804" y="1238"/>
      <point x="961" y="1224"/>
      <point x="1080" y="1200" type="qcurve"/>
      <point x="1158" y="1391" type="line"/>
      <point x="1107" y="1400"/>
      <point x="902" y="1429"/>
      <point x="791" y="1429" type="qcurve"/>
      <point x="653" y="1429"/>
      <point x="503" y="1360"/>
      <point x="427" y="1251"/>
      <point x="411" y="1122"/>
      <point x="411" y="1063" type="qcurve"/>
      <point x="411" y="984" type="line"/>
    </contour>
  </outline>
</glyph>
<glyph name="g" format="2">
  <advance width="600"/>
  <unicode hex="0067"/>
  <outline>
    <contour>
      <point x="398" y="453" type="line"/>
      <point x="398" y="410" type="line"/>
      <point x="366" y="436"/>
      <point x="291" y="457"/>
      <point x="262" y="457" type="qcurve"/>
      <point x="218" y="457"/>
      <point x="136" y="423"/>
      <point x="73" y="363"/>
      <point x="36" y="281"/>
      <point x="36" y="232" type="qcurve"/>
      <point x="36" y="187"/>
      <point x="71" y="105"/>
      <point x="131" y="44"/>
      <point x="213" y="8"/>
      <point x="261" y="8" type="qcurve"/>
      <point x="290" y="8"/>
      <point x="335" y="19"/>
      <point x="369" y="35"/>
      <point x="392" y="52"/>
      <point x="398" y="57" type="qcurve"/>
      <point x="398" y="37"/>
      <point x="396" y="2"/>
      <point x="386" y="-28"/>
      <point x="364" y="-52"/>
      <point x="343" y="-59" type="qcurve"/>
      <point x="335" y="-62"/>
      <point x="314" y="-66"/>
      <point x="276" y="-69"/>
      <point x="213" y="-70"/>
      <point x="162" y="-70" type="qcurve"/>
      <point x="162" y="-152" type="line"/>
      <point x="266" y="-152" type="line"/>
      <point x="314" y="-152"/>
      <point x="394" y="-136"/>
      <point x="452" y="-92"/>
      <point x="485" y="-15"/>
      <point x="485" y="45" type="qcurve"/>
      <point x="485" y="371" type="line"/>
      <point x="564" y="371" type="line"/>
      <point x="564" y="453" type="line"/>
    </contour>
    <contour>
      <point x="398" y="231" type="qcurve"/>
      <point x="398" y="204"/>
      <point x="378" y="155"/>
      <point x="343" y="117"/>
      <point x="294" y="94"/>
      <point x="264" y="94" type="qcurve"/>
      <point x="236" y="94"/>
      <point x="186" y="116"/>
      <point x="149" y="153"/>
      <point x="128" y="204"/>
      <point x="128" y="233" type="qcurve"/>
      <point x="128" y="263"/>
      <point x="151" y="314"/>
      <point x="189" y="351"/>
      <point x="239" y="371"/>
      <point x="265" y="371" type="qcurve"/>
      <point x="291" y="371"/>
      <point x="339" y="351"/>
      <point x="376" y="314"/>
      <point x="398" y="262"/>
    </contour>
  </outline>
</glyph>
<glyph name="h" format="2">
  <advance width="1334"/>
  <unicode hex="0068"/>
  <outline>
    <contour>
      <point x="27" y="1409" type="line"/>
      <point x="42" y="1222" type="line"/>
      <point x="242" y="1236" type="line"/>
      <point x="242" y="182" type="line"/>
      <point x="58" y="182" type="line"/>
      <point x="58" y="0" type="line"/>
      <point x="605" y="0" type="line"/>
      <point x="605" y="182" type="line"/>
      <point x="435" y="182" type="line"/>
      <point x="435" y="696" type="line"/>
      <point x="503" y="745"/>
      <point x="602" y="804"/>
      <point x="683" y="836"/>
      <point x="740" y="847"/>
      <point x="762" y="847" type="qcurve"/>
      <point x="806" y="847"/>
      <point x="869" y="809"/>
      <point x="910" y="749"/>
      <point x="929" y="671"/>
      <point x="929" y="632" type="qcurve"/>
      <point x="929" y="182" type="line"/>
      <point x="742" y="182" type="line"/>
      <point x="742" y="0" type="line"/>
      <point x="1302" y="0" type="line"/>
      <point x="1302" y="182" type="line"/>
      <point x="1122" y="182" type="line"/>
      <point x="1122" y="640" type="line"/>
      <point x="1122" y="727"/>
      <point x="1071" y="874"/>
      <point x="976" y="980"/>
      <point x="840" y="1038"/>
      <point x="758" y="1038" type="qcurve"/>
      <point x="702" y="1038"/>
      <point x="607" y="1014"/>
      <point x="526" y="976"/>
      <point x="462" y="931"/>
      <point x="435" y="914" type="qcurve"/>
      <point x="435" y="1440" type="line"/>
    </contour>
  </outline>
</glyph>
<glyph name="i" format="2">
  <advance width="600"/>
  <unicode hex="0069"/>
  <outline>
    <contour>
      <point x="115" y="453" type="line"/>
      <point x="115" y="371" type="line"/>
      <point x="258" y="371" type="line"/>
      <point x="258" y="82" type="line"/>
      <point x="88" y="82" type="line"/>
      <point x="88" y="0" type="line"/>
      <point x="512" y="0" type="line"/>
      <point x="512" y="82" type="line"/>
      <point x="345" y="82" type="line"/>
      <point x="345" y="453" type="line"/>
    </contour>
    <contour>
      <point x="239" y="540" type="line"/>
      <point x="345" y="540" type="line"/>
      <point x="345" y="672" type="line"/>
      <point x="239" y="672" type="line"/>
    </contour>
  </outline>
</glyph>
<glyph name="j" format="2">
  <advance width="600"/>
  <unicode hex="006A"/>
  <outline>
    <contour>
      <point x="72" y="453" type="line"/>
      <point x="72" y="371" type="line"/>
      <point x="320" y="371" type="line"/>
      <point x="320" y="63" type="line"/>
      <point x="320" y="42"/>
      <point x="316" y="-2"/>
      <point x="295" y="-37"/>
      <point x="249" y="-60"/>
      <point x="208" y="-60" type="qcurve"/>
      <point x="171" y="-60"/>
      <point x="103" y="-47"/>
      <point x="72" y="-41" type="qcurve"/>
      <point x="52" y="-125" type="line"/>
      <point x="84" y="-132"/>
      <point x="162" y="-146"/>
      <point x="207" y="-146" type="qcurve"/>
      <point x="257" y="-146"/>
      <point x="326" y="-123"/>
      <point x="370" y="-85"/>
      <point x="394" y="-39"/>
      <point x="405" y="6"/>
      <point x="407" y="47"/>
      <point x="407" y="59" type="qcurve"/>
      <point x="407" y="453" type="line"/>
    </contour>
    <contour>
      <point x="282" y="540" type="line"/>
      <point x="388" y="540" type="line"/>
      <point x="388" y="672" type="line"/>
      <point x="282" y="672" type="line"/>
    </contour>
  </outline>
</glyph>
<glyph name="k" format="2">
  <advance width="600"/>
  <unicode hex="006B"/>
  <outline>
    <contour>
      <point x="24" y="632" type="line"/>
      <point x="32" y="548" type="line"/>
      <point x="122" y="556" type="line"/>
      <point x="122" y="82" type="line"/>
      <point x="42" y="82" type="line"/>
      <point x="42" y="0" type="line"/>
      <point x="209" y="0" type="line"/>
      <point x="209" y="187" type="line"/>
      <point x="242" y="212" type="line"/>
      <point x="250" y="204"/>
      <point x="284" y="172"/>
      <point x="322" y="133"/>
      <point x="359" y="95"/>
      <point x="371" y="82" type="qcurve"/>
      <point x="334" y="82" type="line"/>
      <point x="334" y="0" type="line"/>
      <point x="573" y="0" type="line"/>
      <point x="573" y="82" type="line"/>
      <point x="482" y="82" type="line"/>
      <point x="418" y="157"/>
      <point x="334" y="243"/>
      <point x="311" y="263" type="qcurve"/>
      <point x="471" y="371" type="line"/>
      <point x="537" y="371" type="line"/>
      <point x="537" y="453" type="line"/>
      <point x="290" y="453" type="line"/>
      <point x="290" y="371" type="line"/>
      <point x="335" y="371" type="line"/>
      <point x="335" y="369" type="line"/>
      <point x="209" y="291" type="line"/>
      <point x="209" y="648" type="line"/>
    </contour>
  </outline>
</glyph>
<glyph name="l" format="2">
  <advance width="600"/>
  <unicode hex="006C"/>
  <outline>
    <contour>
      <point x="92" y="631" type="line"/>
      <point x="100" y="548" type="line"/>
      <point x="256" y="558" type="line"/>
      <point x="256" y="82" type="line"/>
      <point x="88" y="82" type="line"/>
      <point x="88" y="0" type="line"/>
      <point x="511" y="0" type="line"/>
      <point x="511" y="82" type="line"/>
      <point x="343" y="82" type="line"/>
      <point x="343" y="648" type="line"/>
    </contour>
  </outline>
</glyph>
<glyph name="m" format="2">
  <advance width="1334"/>
  <unicode hex="006D"/>
  <outline>
    <contour>
      <point x="0" y="1007" type="line"/>
      <point x="0" y="825" type="line"/>
      <point x="127" y="825" type="line"/>
      <point x="127" y="182" type="line"/>
      <point x="0" y="182" type="line"/>
      <point x="0" y="0" type="line"/>
      <point x="473" y="0" type="line"/>
      <point x="473" y="182" type="line"/>
      <point x="320" y="182" type="line"/>
      <point x="320" y="751" type="line"/>
      <point x="358" y="789"/>
      <point x="437" y="847"/>
      <point x="484" y="847" type="qcurve"/>
      <point x="520" y="847"/>
      <point x="560" y="804"/>
      <point x="581" y="740"/>
      <point x="583" y="666"/>
      <point x="583" y="636" type="qcurve"/>
      <point x="583" y="0" type="line"/>
      <point x="907" y="0" type="line"/>
      <point x="907" y="182" type="line"/>
      <point x="776" y="182" type="line"/>
      <point x="776" y="732" type="line"/>
      <point x="806" y="770"/>
      <point x="882" y="847"/>
      <point x="940" y="847" type="qcurve"/>
      <point x="976" y="847"/>
      <point x="1016" y="814"/>
      <point x="1035" y="755"/>
      <point x="1038" y="676"/>
      <point x="1038" y="627" type="qcurve"/>
      <point x="1038" y="0" type="line"/>
      <point x="1334" y="0" type="line"/>
      <point x="1334" y="182" type="line"/>
      <point x="1232" y="182" type="line"/>
      <point x="1232" y="627" type="line"/>
      <point x="1232" y="669"/>
      <point x="1222" y="809"/>
      <point x="1169" y="942"/>
      <point x="1054" y="1038"/>
      <point x="949" y="1038" type="qcurve"/>
      <point x="865" y="1038"/>
      <point x="751" y="965"/>
      <point x="713" y="933" type="qcurve"/>
      <point x="707" y="942"/>
      <point x="681" y="978"/>
      <point x="636" y="1012"/>
      <point x="573" y="1038"/>
      <point x="531" y="1038" type="qcurve"/>
      <point x="492" y="1038"/>
      <point x="427" y="1016"/>
      <point x="373" y="982"/>
      <point x="331" y="946"/>
      <point x="318" y="933" type="qcurve"/>
      <point x="318" y="1007" type="line"/>
    </contour>
  </outline>
</glyph>
<glyph name="n" format="2">
  <advance width="1334"/>
  <unicode hex="006E"/>
  <outline>
    <contour>
      <point x="51" y="1007" type="line"/>
      <point x="51" y="825" type="line"/>
      <point x="231" y="825" type="line"/>
      <point x="231" y="182" type="line"/>
      <point x="47" y="182" type="line"/>
      <point x="47" y="0" type="line"/>
      <point x="594" y="0" type="line"/>
      <point x="594" y="182" type="line"/>
      <point x="424" y="182" type="line"/>
      <point x="424" y="696" type="line"/>
      <point x="460" y="723"/>
      <point x="536" y="776"/>
      <point x="618" y="818"/>
      <point x="704" y="847"/>
      <point x="751" y="847" type="qcurve"/>
      <point x="834" y="847"/>
      <point x="918" y="721"/>
      <point x="918" y="630" type="qcurve"/>
      <point x="918" y="182" type="line"/>
      <point x="732" y="182" type="line"/>
      <point x="732" y="0" type="line"/>
      <point x="1292" y="0" type="line"/>
      <point x="1292" y="182" type="line"/>
      <point x="1111" y="182" type="line"/>
      <point x="1111" y="638" type="line"/>
      <point x="1111" y="725"/>
      <point x="1060" y="872"/>
      <point x="965" y="978"/>
      <point x="829" y="1038"/>
      <point x="747" y="1038" type="qcurve"/>
      <point x="694" y="1038"/>
      <point x="598" y="1014"/>
      <point x="518" y="976"/>
      <point x="452" y="933"/>
      <point x="424" y="914" type="qcurve"/>
      <point x="424" y="1007" type="line"/>
    </contour>
  </outline>
</glyph>
<glyph name="p" format="2">
  <advance width="600"/>
  <unicode hex="0070"/>
  <outline>
    <contour>
      <point x="10" y="453" type="line"/>
      <point x="10" y="371" type="line"/>
      <point x="89" y="371" type="line"/>
      <point x="89" y="-70" type="line"/>
      <point x="10" y="-70" type="line"/>
      <point x="10" y="-152" type="line"/>
      <point x="320" y="-152" type="line"/>
      <point x="320" y="-70" type="line"/>
      <point x="176" y="-70" type="line"/>
      <point x="176" y="48" type="line"/>
      <point x="196" y="31"/>
      <point x="239" y="9"/>
      <point x="280" y="-3"/>
      <point x="314" y="-7"/>
      <point x="326" y="-7" type="qcurve"/>
      <point x="369" y="-7"/>
      <point x="452" y="27"/>
      <point x="518" y="90"/>
      <point x="559" y="178"/>
      <point x="559" y="232" type="qcurve"/>
      <point x="559" y="277"/>
      <point x="526" y="361"/>
      <point x="465" y="427"/>
      <point x="378" y="467"/>
      <point x="325" y="467" type="qcurve"/>
      <point x="318" y="467"/>
      <point x="287" y="465"/>
      <point x="246" y="456"/>
      <point x="199" y="434"/>
      <point x="176" y="415" type="qcurve"/>
      <point x="176" y="453" type="line"/>
    </contour>
    <contour>
      <point x="172" y="234" type="qcurve"/>
      <point x="172" y="264"/>
      <point x="195" y="317"/>
      <point x="235" y="357"/>
      <point x="292" y="381"/>
      <point x="325" y="381" type="qcurve"/>
      <point x="361" y="381"/>
      <point x="415" y="354"/>
      <point x="450" y="311"/>
      <point x="467" y="258"/>
      <point x="467" y="232" type="qcurve"/>
      <point x="467" y="199"/>
      <point x="444" y="143"/>
      <point x="405" y="102"/>
      <point x="353" y="79"/>
      <point x="324" y="79" type="qcurve"/>
      <point x="299" y="79"/>
      <point x="246" y="99"/>
      <point x="201" y="138"/>
      <point x="172" y="196"/>
    </contour>
  </outline>
</glyph>
<glyph name="q" format="2">
  <advance width="1334"/>
  <unicode hex="0071"/>
  <outline>
    <contour>
      <point x="1313" y="1007" type="line"/>
      <point x="944" y="1007" type="line"/>
      <point x="944" y="923" type="line"/>
      <point x="893" y="965"/>
      <point x="789" y="1014"/>
      <point x="698" y="1033"/>
      <point x="630" y="1038"/>
      <point x="613" y="1038" type="qcurve"/>
      <point x="496" y="1038"/>
      <point x="303" y="949"/>
      <point x="167" y="802"/>
      <point x="93" y="615"/>
      <point x="93" y="516" type="qcurve"/>
      <point x="93" y="396"/>
      <point x="185" y="200"/>
      <point x="331" y="60"/>
      <point x="516" y="-15"/>
      <point x="611" y="-15" type="qcurve"/>
      <point x="638" y="-15"/>
      <point x="713" y="-7"/>
      <point x="804" y="20"/>
      <point x="900" y="68"/>
      <point x="944" y="106" type="qcurve"/>
      <point x="944" y="-155" type="line"/>
      <point x="624" y="-155" type="line"/>
      <point x="624" y="-338" type="line"/>
      <point x="1313" y="-338" type="line"/>
      <point x="1313" y="-155" type="line"/>
      <point x="1139" y="-155" type="line"/>
      <point x="1139" y="825" type="line"/>
      <point x="1313" y="825" type="line"/>
    </contour>
    <contour>
      <point x="954" y="520" type="qcurve"/>
      <point x="954" y="435"/>
      <point x="889" y="307"/>
      <point x="789" y="220"/>
      <point x="671" y="176"/>
      <point x="615" y="176" type="qcurve"/>
      <point x="551" y="176"/>
      <point x="435" y="227"/>
      <point x="349" y="318"/>
      <point x="297" y="443"/>
      <point x="297" y="516" type="qcurve"/>
      <point x="297" y="573"/>
      <point x="335" y="691"/>
      <point x="414" y="787"/>
      <point x="534" y="847"/>
      <point x="613" y="847" type="qcurve"/>
      <point x="687" y="847"/>
      <point x="814" y="793"/>
      <point x="902" y="704"/>
      <point x="954" y="587"/>
    </contour>
  </outline>
</glyph>
<glyph name="r" format="2">
  <advance width="600"/>
  <unicode hex="0072"/>
  <outline>
    <contour>
      <point x="71" y="453" type="line"/>
      <point x="71" y="371" type="line"/>
      <point x="182" y="371" type="line"/>
      <point x="182" y="82" type="line"/>
      <point x="62" y="82" type="line"/>
      <point x="62" y="0" type="line"/>
      <point x="454" y="0" type="line"/>
      <point x="454" y="82" type="line"/>
      <point x="269" y="82" type="line"/>
      <point x="269" y="269" type="line"/>
      <point x="272" y="272"/>
      <point x="306" y="308"/>
      <point x="354" y="348"/>
      <point x="409" y="381"/>
      <point x="433" y="381" type="qcurve"/>
      <point x="459" y="381"/>
      <point x="489" y="352"/>
      <point x="497" y="338" type="qcurve"/>
      <point x="586" y="406" type="line"/>
      <point x="578" y="414"/>
      <point x="555" y="435"/>
      <point x="522" y="454"/>
      <point x="478" y="467"/>
      <point x="450" y="467" type="qcurve"/>
      <point x="418" y="467"/>
      <point x="365" y="451"/>
      <point x="321" y="425"/>
      <point x="285" y="394"/>
      <point x="269" y="379" type="qcurve"/>
      <point x="269" y="453" type="line"/>
    </contour>
  </outline>
</glyph>
<glyph name="s" format="2">
  <advance width="1334"/>
  <unicode hex="0073"/>
  <outline>
    <contour>
      <point x="925" y="1058" type="line"/>
      <point x="895" y="933" type="line"/>
      <point x="878" y="946"/>
      <point x="825" y="982"/>
      <point x="751" y="1016"/>
      <point x="658" y="1038"/>
      <point x="600" y="1038" type="qcurve"/>
      <point x="538" y="1038"/>
      <point x="393" y="1003"/>
      <point x="271" y="927"/>
      <point x="191" y="812"/>
      <point x="191" y="729" type="qcurve"/>
      <point x="191" y="651"/>
      <point x="274" y="522"/>
      <point x="338" y="484" type="qcurve"/>
      <point x="365" y="469"/>
      <point x="424" y="445"/>
      <point x="503" y="429"/>
      <point x="609" y="416"/>
      <point x="683" y="411" type="qcurve"/>
      <point x="747" y="407"/>
      <point x="847" y="398"/>
      <point x="916" y="378"/>
      <point x="952" y="340"/>
      <point x="952" y="307" type="qcurve"/>
      <point x="952" y="236"/>
      <point x="796" y="160"/>
      <point x="674" y="160" type="qcurve"/>
      <point x="594" y="160"/>
      <point x="487" y="195"/>
      <point x="418" y="256"/>
      <point x="380" y="338"/>
      <point x="371" y="382" type="qcurve"/>
      <point x="198" y="363" type="line"/>
      <point x="206" y="327"/>
      <point x="220" y="253"/>
      <point x="220" y="189" type="qcurve"/>
      <point x="220" y="118"/>
      <point x="204" y="17"/>
      <point x="198" y="-22" type="qcurve"/>
      <point x="371" y="-34" type="line"/>
      <point x="398" y="82" type="line"/>
      <point x="420" y="64"/>
      <point x="473" y="25"/>
      <point x="547" y="-9"/>
      <point x="643" y="-31"/>
      <point x="709" y="-31" type="qcurve"/>
      <point x="806" y="-31"/>
      <point x="969" y="20"/>
      <point x="1086" y="111"/>
      <point x="1152" y="231"/>
      <point x="1152" y="303" type="qcurve"/>
      <point x="1152" y="352"/>
      <point x="1103" y="471"/>
      <point x="1045" y="516" type="qcurve"/>
      <point x="1014" y="538"/>
      <point x="944" y="564"/>
      <point x="853" y="581"/>
      <point x="740" y="589"/>
      <point x="666" y="594" type="qcurve"/>
      <point x="620" y="596"/>
      <point x="522" y="607"/>
      <point x="443" y="632"/>
      <point x="391" y="681"/>
      <point x="391" y="723" type="qcurve"/>
      <point x="391" y="762"/>
      <point x="441" y="812"/>
      <point x="511" y="838"/>
      <point x="592" y="847"/>
      <point x="624" y="847" type="qcurve"/>
      <point x="638" y="847"/>
      <point x="715" y="842"/>
      <point x="802" y="823"/>
      <point x="880" y="774"/>
      <point x="895" y="732" type="qcurve"/>
      <point x="914" y="681" type="line"/>
      <point x="916" y="674"/>
      <point x="923" y="656"/>
      <point x="925" y="651" type="qcurve"/>
      <point x="1098" y="676" type="line"/>
      <point x="1090" y="709"/>
      <point x="1076" y="783"/>
      <point x="1076" y="836" type="qcurve"/>
      <point x="1076" y="887"/>
      <point x="1090" y="987"/>
      <point x="1098" y="1029" type="qcurve"/>
    </contour>
  </outline>
</glyph>
<glyph name="t" format="2">
  <advance width="600"/>
  <unicode hex="0074"/>
  <outline>
    <contour>
      <point x="159" y="583" type="line"/>
      <point x="159" y="443" type="line"/>
      <point x="93" y="443" type="line"/>
      <point x="93" y="361" type="line"/>
      <point x="159" y="361" type="line"/>
      <point x="159" y="193" type="line"/>
      <point x="159" y="170"/>
      <point x="161" y="126"/>
      <point x="169" y="85"/>
      <point x="186" y="47"/>
      <point x="201" y="31" type="qcurve"/>
      <point x="224" y="8"/>
      <point x="299" y="-14"/>
      <point x="332" y="-14" type="qcurve"/>
      <point x="362" y="-14"/>
      <point x="424" y="-1"/>
      <point x="482" y="19"/>
      <point x="533" y="41"/>
      <point x="553" y="50" type="qcurve"/>
      <point x="520" y="129" type="line"/>
      <point x="488" y="116" type="line"/>
      <point x="444" y="98"/>
      <point x="369" y="72"/>
      <point x="324" y="72" type="qcurve"/>
      <point x="294" y="72"/>
      <point x="263" y="90"/>
      <point x="248" y="123"/>
      <point x="246" y="167"/>
      <point x="246" y="193" type="qcurve"/>
      <point x="246" y="361" type="line"/>
      <point x="474" y="361" type="line"/>
      <point x="474" y="443" type="line"/>
      <point x="246" y="443" type="line"/>
      <point x="246" y="583" type="line"/>
    </contour>
  </outline>
</glyph>
<glyph name="v" format="2">
  <advance width="1334"/>
  <unicode hex="0076"/>
  <outline>
    <contour>
      <point x="25" y="1007" type="line"/>
      <point x="25" y="825" type="line"/>
      <point x="200" y="825" type="line"/>
      <point x="589" y="0" type="line"/>
      <point x="747" y="0" type="line"/>
      <point x="1136" y="825" type="line"/>
      <point x="1309" y="825" type="line"/>
      <point x="1309" y="1007" type="line"/>
      <point x="787" y="1007" type="line"/>
      <point x="787" y="825" type="line"/>
      <point x="931" y="825" type="line"/>
      <point x="674" y="271" type="line"/>
      <point x="420" y="825" type="line"/>
      <point x="569" y="825" type="line"/>
      <point x="569" y="1007" type="line"/>
    </contour>
  </outline>
</glyph>
<glyph name="w" format="2">
  <advance width="1334"/>
  <unicode hex="0077"/>
  <outline>
    <contour>
      <point x="0" y="1007" type="line"/>
      <point x="0" y="825" type="line"/>
      <point x="102" y="825" type="line"/>
      <point x="329" y="0" type="line"/>
      <point x="498" y="0" type="line"/>
      <point x="664" y="484" type="line"/>
      <point x="669" y="484" type="line"/>
      <point x="840" y="0" type="line"/>
      <point x="1016" y="0" type="line"/>
      <point x="1241" y="825" type="line"/>
      <point x="1334" y="825" type="line"/>
      <point x="1334" y="1007" type="line"/>
      <point x="882" y="1007" type="line"/>
      <point x="882" y="825" type="line"/>
      <point x="1050" y="825" type="line"/>
      <point x="925" y="354" type="line"/>
      <point x="920" y="354" type="line"/>
      <point x="742" y="825" type="line"/>
      <point x="607" y="825" type="line"/>
      <point x="433" y="354" type="line"/>
      <point x="429" y="354" type="line"/>
      <point x="307" y="825" type="line"/>
      <point x="471" y="825" type="line"/>
      <point x="471" y="1007" type="line"/>
    </contour>
  </outline>
</glyph>
<glyph name="x" format="2">
  <advance width="600"/>
  <unicode hex="0078"/>
  <outline>
    <contour>
      <point x="30" y="453" type="line"/>
      <point x="30" y="371" type="line"/>
      <point x="98" y="371" type="line"/>
      <point x="239" y="237" type="line"/>
      <point x="87" y="82" type="line"/>
      <point x="15" y="82" type="line"/>
      <point x="15" y="0" type="line"/>
      <point x="246" y="0" type="line"/>
      <point x="246" y="82" type="line"/>
      <point x="200" y="82" type="line"/>
      <point x="298" y="178" type="line"/>
      <point x="395" y="82" type="line"/>
      <point x="349" y="82" type="line"/>
      <point x="349" y="0" type="line"/>
      <point x="585" y="0" type="line"/>
      <point x="585" y="82" type="line"/>
      <point x="517" y="82" type="line"/>
      <point x="357" y="237" type="line"/>
      <point x="494" y="371" type="line"/>
      <point x="560" y="371" type="line"/>
      <point x="560" y="453" type="line"/>
      <point x="337" y="453" type="line"/>
      <point x="337" y="371" type="line"/>
      <point x="382" y="371" type="line"/>
      <point x="298" y="296" type="line"/>
      <point x="220" y="371" type="line"/>
      <point x="262" y="371" type="line"/>
      <point x="262" y="453" type="line"/>
    </contour>
  </outline>
</glyph>
<glyph name="y" format="2">
  <advance width="1334"/>
  <unicode hex="0079"/>
  <outline>
    <contour>
      <point x="31" y="1007" type="line"/>
      <point x="31" y="825" type="line"/>
      <point x="178" y="825" type="line"/>
      <point x="556" y="104" type="line"/>
      <point x="409" y="-147" type="line"/>
      <point x="64" y="-147" type="line"/>
      <point x="64" y="-329" type="line"/>
      <point x="798" y="-329" type="line"/>
      <point x="798" y="-147" type="line"/>
      <point x="632" y="-147" type="line"/>
      <point x="1190" y="825" type="line"/>
      <point x="1330" y="825" type="line"/>
      <point x="1330" y="1007" type="line"/>
      <point x="851" y="1007" type="line"/>
      <point x="851" y="825" type="line"/>
      <point x="967" y="825" type="line"/>
      <point x="669" y="305" type="line"/>
      <point x="398" y="825" type="line"/>
      <point x="518" y="825" type="line"/>
      <point x="518" y="1007" type="line"/>
    </contour>
  </outline>
</glyph>
<glyph name="z" format="2">
  <advance width="600"/>
  <unicode hex="007A"/>
  <outline>
    <contour>
      <point x="101" y="453" type="line"/>
      <point x="101" y="284" type="line"/>
      <point x="188" y="284" type="line"/>
      <point x="188" y="371" type="line"/>
      <point x="375" y="371" type="line"/>
      <point x="91" y="72" type="line"/>
      <point x="91" y="0" type="line"/>
      <point x="509" y="0" type="line"/>
      <point x="509" y="174" type="line"/>
      <point x="422" y="174" type="line"/>
      <point x="422" y="82" type="line"/>
      <point x="222" y="82" type="line"/>
      <point x="509" y="386" type="line"/>
      <point x="509" y="453" type="line"/>
    </contour>
  </outline>
</glyph>
<glyph name="braceleft" format="2">
  <advance width="1334"/>
  <unicode hex="007B"/>
  <outline>
    <contour>
      <point x="1056" y="1485" type="line"/>
      <point x="1025" y="1485"/>
      <point x="989" y="1487"/>
      <point x="974" y="1487" type="qcurve"/>
      <point x="865" y="1487"/>
      <point x="725" y="1425"/>
      <point x="645" y="1332"/>
      <point x="615" y="1220"/>
      <point x="615" y="1171" type="qcurve"/>
      <point x="615" y="1152"/>
      <point x="618" y="1118"/>
      <point x="624" y="1076"/>
      <point x="636" y="1018"/>
      <point x="647" y="971" type="qcurve"/>
      <point x="647" y="971"/>
      <point x="649" y="956" type="qcurve"/>
      <point x="653" y="942"/>
      <point x="660" y="900"/>
      <point x="666" y="853"/>
      <point x="666" y="836" type="qcurve"/>
      <point x="666" y="804"/>
      <point x="634" y="767"/>
      <point x="581" y="747"/>
      <point x="516" y="738"/>
      <point x="484" y="736" type="qcurve"/>
      <point x="484" y="547" type="line"/>
      <point x="509" y="545"/>
      <point x="573" y="538"/>
      <point x="630" y="518"/>
      <point x="666" y="482"/>
      <point x="666" y="452" type="qcurve"/>
      <point x="666" y="414"/>
      <point x="651" y="329"/>
      <point x="647" y="312" type="qcurve"/>
      <point x="636" y="265"/>
      <point x="624" y="206"/>
      <point x="618" y="165"/>
      <point x="615" y="127"/>
      <point x="615" y="104" type="qcurve"/>
      <point x="615" y="9"/>
      <point x="723" y="-153"/>
      <point x="823" y="-185" type="qcurve"/>
      <point x="882" y="-202"/>
      <point x="987" y="-206"/>
      <point x="1056" y="-202" type="qcurve"/>
      <point x="1056" y="-15" type="line"/>
      <point x="1003" y="-15"/>
      <point x="912" y="-11"/>
      <point x="849" y="11"/>
      <point x="814" y="60"/>
      <point x="814" y="104" type="qcurve"/>
      <point x="814" y="134"/>
      <point x="827" y="200"/>
      <point x="853" y="338"/>
      <point x="869" y="418"/>
      <point x="869" y="449" type="qcurve"/>
      <point x="869" y="524"/>
      <point x="804" y="615"/>
      <point x="780" y="640" type="qcurve"/>
      <point x="804" y="664"/>
      <point x="869" y="753"/>
      <point x="869" y="829" type="qcurve"/>
      <point x="869" y="859"/>
      <point x="859" y="923"/>
      <point x="855" y="933" type="qcurve"/>
      <point x="840" y="1012" type="line"/>
      <point x="831" y="1054"/>
      <point x="823" y="1107"/>
      <point x="816" y="1141"/>
      <point x="814" y="1162"/>
      <point x="814" y="1175" type="qcurve"/>
      <point x="814" y="1220"/>
      <point x="847" y="1267"/>
      <point x="910" y="1292"/>
      <point x="999" y="1296"/>
      <point x="1056" y="1296" type="qcurve"/>
    </contour>
  </outline>
</glyph>
<glyph name="bar" format="2">
  <advance width="1334"/>
  <unicode hex="007C"/>
  <outline>
    <contour>
      <point x="776" y="1496" type="line"/>
      <point x="558" y="1496" type="line"/>
      <point x="558" y="-409" type="line"/>
      <point x="776" y="-409" type="line"/>
    </contour>
  </outline>
</glyph>
<glyph name="braceright" format="2">
  <advance width="1334"/>
  <unicode hex="007D"/>
  <outline>
    <contour>
      <point x="849" y="736" type="line"/>
      <point x="823" y="738"/>
      <point x="758" y="747"/>
      <point x="704" y="767"/>
      <point x="666" y="800"/>
      <point x="666" y="831" type="qcurve"/>
      <point x="666" y="869"/>
      <point x="683" y="958"/>
      <point x="687" y="974" type="qcurve"/>
      <point x="696" y="1018"/>
      <point x="709" y="1076"/>
      <point x="715" y="1118"/>
      <point x="719" y="1154"/>
      <point x="719" y="1178" type="qcurve"/>
      <point x="719" y="1281"/>
      <point x="607" y="1438"/>
      <point x="511" y="1467" type="qcurve"/>
      <point x="454" y="1485"/>
      <point x="352" y="1489"/>
      <point x="278" y="1487" type="qcurve"/>
      <point x="278" y="1296" type="line"/>
      <point x="333" y="1296"/>
      <point x="424" y="1292"/>
      <point x="487" y="1269"/>
      <point x="520" y="1220"/>
      <point x="520" y="1178" type="qcurve"/>
      <point x="520" y="1160"/>
      <point x="505" y="1063"/>
      <point x="482" y="952"/>
      <point x="465" y="853"/>
      <point x="465" y="834" type="qcurve"/>
      <point x="465" y="758"/>
      <point x="531" y="669"/>
      <point x="554" y="645" type="qcurve"/>
      <point x="529" y="620"/>
      <point x="465" y="526"/>
      <point x="465" y="452" type="qcurve"/>
      <point x="465" y="422"/>
      <point x="475" y="360"/>
      <point x="478" y="349" type="qcurve"/>
      <point x="484" y="318"/>
      <point x="500" y="244"/>
      <point x="511" y="176"/>
      <point x="520" y="120"/>
      <point x="520" y="104" type="qcurve"/>
      <point x="520" y="60"/>
      <point x="484" y="11"/>
      <point x="422" y="-11"/>
      <point x="331" y="-15"/>
      <point x="278" y="-15" type="qcurve"/>
      <point x="278" y="-202" type="line"/>
      <point x="342" y="-206"/>
      <point x="449" y="-202"/>
      <point x="511" y="-185" type="qcurve"/>
      <point x="547" y="-174"/>
      <point x="620" y="-129"/>
      <point x="681" y="-55"/>
      <point x="719" y="45"/>
      <point x="719" y="111" type="qcurve"/>
      <point x="719" y="131"/>
      <point x="715" y="165"/>
      <point x="709" y="206"/>
      <point x="696" y="265"/>
      <point x="687" y="312" type="qcurve"/>
      <point x="678" y="344"/>
      <point x="666" y="414"/>
      <point x="666" y="447" type="qcurve"/>
      <point x="666" y="480"/>
      <point x="702" y="518"/>
      <point x="758" y="538"/>
      <point x="823" y="545"/>
      <point x="849" y="547" type="qcurve"/>
    </contour>
  </outline>
</glyph>
<glyph name="asciitilde" format="2">
  <advance width="600"/>
  <unicode hex="007E"/>
  <outline>
    <contour>
      <point x="464" y="412" type="line"/>
      <point x="444" y="379"/>
      <point x="414" y="340"/>
      <point x="391" y="340" type="qcurve"/>
      <point x="380" y="340"/>
      <point x="349" y="352"/>
      <point x="318" y="366" type="qcurve"/>
      <point x="291" y="378"/>
      <point x="256" y="390"/>
      <point x="232" y="396"/>
      <point x="218" y="397"/>
      <point x="213" y="397" type="qcurve"/>
      <point x="186" y="397"/>
      <point x="145" y="376"/>
      <point x="113" y="345"/>
      <point x="89" y="307"/>
      <point x="80" y="291" type="qcurve"/>
      <point x="80" y="290"/>
      <point x="77" y="286"/>
      <point x="77" y="285" type="qcurve"/>
      <point x="136" y="216" type="line"/>
      <point x="143" y="229" type="line"/>
      <point x="160" y="261"/>
      <point x="191" y="295"/>
      <point x="213" y="295" type="qcurve"/>
      <point x="224" y="295"/>
      <point x="273" y="276"/>
      <point x="313" y="260"/>
      <point x="342" y="248"/>
      <point x="363" y="241"/>
      <point x="381" y="238"/>
      <point x="391" y="238" type="qcurve"/>
      <point x="416" y="238"/>
      <point x="456" y="258"/>
      <point x="487" y="288"/>
      <point x="510" y="323"/>
      <point x="520" y="339" type="qcurve"/>
      <point x="520" y="340"/>
      <point x="523" y="344"/>
      <point x="523" y="345" type="qcurve"/>
    </contour>
  </outline>
</glyph>
<glyph name="exclamdown" format="2">
  <advance width="1334"/>
  <unicode hex="00A1"/>
  <outline>
    <contour>
      <point x="802" y="-293" type="line"/>
      <point x="758" y="602" type="line"/>
      <point x="575" y="602" type="line"/>
      <point x="534" y="-293" type="line"/>
    </contour>
    <contour>
      <point x="666" y="704" type="qcurve"/>
      <point x="751" y="704"/>
      <point x="861" y="809"/>
      <point x="861" y="880" type="qcurve"/>
      <point x="861" y="952"/>
      <point x="751" y="1054"/>
      <point x="666" y="1054" type="qcurve"/>
      <point x="581" y="1054"/>
      <point x="473" y="946"/>
      <point x="473" y="880" type="qcurve"/>
      <point x="473" y="814"/>
      <point x="577" y="704"/>
    </contour>
  </outline>
</glyph>
<glyph name="cent" format="2">
  <advance width="600"/>
  <unicode hex="00A2"/>
  <outline>
    <contour>
      <point x="343" y="411" type="line"/>
      <point x="364" y="411"/>
      <point x="390" y="395"/>
      <point x="405" y="367"/>
      <point x="412" y="326"/>
      <point x="416" y="300" type="qcurve"/>
      <point x="491" y="311" type="line"/>
      <point x="488" y="351"/>
      <point x="488" y="380" type="qcurve"/>
      <point x="488" y="404"/>
      <point x="493" y="459"/>
      <point x="497" y="501" type="qcurve"/>
      <point x="424" y="507" type="line"/>
      <point x="416" y="453" type="line"/>
      <point x="400" y="473"/>
      <point x="369" y="495"/>
      <point x="343" y="501" type="qcurve"/>
      <point x="343" y="630" type="line"/>
      <point x="272" y="630" type="line"/>
      <point x="272" y="495" type="line"/>
      <point x="243" y="489"/>
      <point x="184" y="457"/>
      <point x="136" y="406"/>
      <point x="106" y="335"/>
      <point x="106" y="290" type="qcurve"/>
      <point x="106" y="257"/>
      <point x="126" y="191"/>
      <point x="168" y="135"/>
      <point x="230" y="95"/>
      <point x="272" y="87" type="qcurve"/>
      <point x="272" y="-55" type="line"/>
      <point x="343" y="-55" type="line"/>
      <point x="343" y="87" type="line"/>
      <point x="408" y="98"/>
      <point x="493" y="145"/>
      <point x="520" y="165" type="qcurve"/>
      <point x="478" y="237" type="line"/>
      <point x="475" y="235"/>
      <point x="461" y="227"/>
      <point x="445" y="216"/>
      <point x="431" y="207"/>
      <point x="428" y="206" type="qcurve"/>
      <point x="411" y="197"/>
      <point x="387" y="185"/>
      <point x="368" y="179"/>
      <point x="352" y="175"/>
      <point x="343" y="174" type="qcurve"/>
    </contour>
    <contour>
      <point x="272" y="174" type="line"/>
      <point x="245" y="181"/>
      <point x="212" y="212"/>
      <point x="194" y="248"/>
      <point x="188" y="283"/>
      <point x="188" y="292" type="qcurve"/>
      <point x="188" y="301"/>
      <point x="193" y="332"/>
      <point x="211" y="367"/>
      <point x="244" y="400"/>
      <point x="272" y="409" type="qcurve"/>
    </contour>
  </outline>
</glyph>
<glyph name="sterling" format="2">
  <advance width="1334"/>
  <unicode hex="00A3"/>
  <outline>
    <contour>
      <point x="185" y="816" type="line"/>
      <point x="185" y="630" type="line"/>
      <point x="422" y="630" type="line"/>
      <point x="427" y="607"/>
      <point x="437" y="545"/>
      <point x="437" y="507" type="qcurve"/>
      <point x="437" y="427"/>
      <point x="391" y="291"/>
      <point x="327" y="189"/>
      <point x="263" y="118"/>
      <point x="242" y="98" type="qcurve"/>
      <point x="360" y="-55" type="line"/>
      <point x="437" y="-11"/>
      <point x="556" y="45"/>
      <point x="613" y="45" type="qcurve"/>
      <point x="645" y="45"/>
      <point x="696" y="29"/>
      <point x="753" y="7" type="qcurve"/>
      <point x="809" y="-13"/>
      <point x="885" y="-27"/>
      <point x="916" y="-27" type="qcurve"/>
      <point x="969" y="-27"/>
      <point x="1054" y="0"/>
      <point x="1122" y="40"/>
      <point x="1178" y="87"/>
      <point x="1200" y="109" type="qcurve"/>
      <point x="1205" y="111"/>
      <point x="1213" y="120"/>
      <point x="1216" y="123" type="qcurve"/>
      <point x="1101" y="267" type="line"/>
      <point x="1082" y="251" type="line"/>
      <point x="1022" y="202"/>
      <point x="954" y="160"/>
      <point x="912" y="160" type="qcurve"/>
      <point x="893" y="160"/>
      <point x="849" y="171"/>
      <point x="804" y="189" type="qcurve"/>
      <point x="745" y="214"/>
      <point x="669" y="231"/>
      <point x="630" y="231" type="qcurve"/>
      <point x="605" y="231"/>
      <point x="564" y="223"/>
      <point x="551" y="218" type="qcurve"/>
      <point x="589" y="287"/>
      <point x="624" y="441"/>
      <point x="624" y="518" type="qcurve"/>
      <point x="624" y="560"/>
      <point x="620" y="607"/>
      <point x="615" y="630" type="qcurve"/>
      <point x="1101" y="630" type="line"/>
      <point x="1101" y="816" type="line"/>
      <point x="564" y="816" type="line"/>
      <point x="538" y="889"/>
      <point x="518" y="967"/>
      <point x="518" y="1007" type="qcurve"/>
      <point x="518" y="1045"/>
      <point x="549" y="1118"/>
      <point x="609" y="1175"/>
      <point x="698" y="1211"/>
      <point x="753" y="1211" type="qcurve"/>
      <point x="770" y="1211"/>
      <point x="838" y="1205"/>
      <point x="907" y="1187"/>
      <point x="958" y="1160"/>
      <point x="958" y="1141" type="qcurve"/>
      <point x="958" y="1131"/>
      <point x="956" y="1096"/>
      <point x="954" y="1060"/>
      <point x="949" y="1029"/>
      <point x="949" y="1027" type="qcurve"/>
      <point x="1124" y="1007" type="line"/>
      <point x="1129" y="1060"/>
      <point x="1141" y="1149"/>
      <point x="1156" y="1230"/>
      <point x="1178" y="1311"/>
      <point x="1192" y="1362" type="qcurve"/>
      <point x="1009" y="1372" type="line"/>
      <point x="1001" y="1340" type="line"/>
      <point x="900" y="1385"/>
      <point x="774" y="1402"/>
      <point x="745" y="1402" type="qcurve"/>
      <point x="669" y="1402"/>
      <point x="520" y="1347"/>
      <point x="401" y="1243"/>
      <point x="325" y="1096"/>
      <point x="325" y="1005" type="qcurve"/>
      <point x="325" y="946"/>
      <point x="346" y="859"/>
      <point x="360" y="816" type="qcurve"/>
    </contour>
  </outline>
</glyph>
<glyph name="currency" format="2">
  <advance width="600"/>
  <unicode hex="00A4"/>
  <outline>
    <contour>
      <point x="462" y="193" type="line"/>
      <point x="489" y="227"/>
      <point x="492" y="287" type="qcurve"/>
      <point x="494" y="313"/>
      <point x="480" y="370"/>
      <point x="463" y="395" type="qcurve"/>
      <point x="545" y="475" type="line"/>
      <point x="483" y="535" type="line"/>
      <point x="402" y="456" type="line"/>
      <point x="381" y="467" type="line"/>
      <point x="361" y="478"/>
      <point x="316" y="485"/>
      <point x="293" y="485" type="qcurve"/>
      <point x="264" y="485"/>
      <point x="223" y="469"/>
      <point x="219" y="467" type="qcurve"/>
      <point x="197" y="456" type="line"/>
      <point x="116" y="535" type="line"/>
      <point x="54" y="475" type="line"/>
      <point x="137" y="394" type="line"/>
      <point x="124" y="371" type="line"/>
      <point x="114" y="351"/>
      <point x="108" y="309"/>
      <point x="108" y="287" type="qcurve"/>
      <point x="108" y="260"/>
      <point x="122" y="222"/>
      <point x="124" y="217" type="qcurve"/>
      <point x="137" y="193" type="line"/>
      <point x="54" y="112" type="line"/>
      <point x="116" y="52" type="line"/>
      <point x="197" y="132" type="line"/>
      <point x="217" y="121"/>
      <point x="262" y="102"/>
      <point x="300" y="102" type="qcurve"/>
      <point x="337" y="102"/>
      <point x="382" y="121"/>
      <point x="402" y="132" type="qcurve"/>
      <point x="483" y="52" type="line"/>
      <point x="545" y="112" type="line"/>
    </contour>
    <contour>
      <point x="407" y="294" type="qcurve"/>
      <point x="407" y="273"/>
      <point x="392" y="234"/>
      <point x="364" y="205"/>
      <point x="324" y="187"/>
      <point x="300" y="187" type="qcurve"/>
      <point x="275" y="187"/>
      <point x="236" y="205"/>
      <point x="208" y="234"/>
      <point x="193" y="273"/>
      <point x="193" y="294" type="qcurve"/>
      <point x="193" y="312"/>
      <point x="206" y="350"/>
      <point x="233" y="381"/>
      <point x="273" y="400"/>
      <point x="300" y="400" type="qcurve"/>
      <point x="325" y="400"/>
      <point x="365" y="382"/>
      <point x="393" y="352"/>
      <point x="407" y="314"/>
    </contour>
  </outline>
</glyph>
<glyph name="yen" format="2">
  <advance width="1334"/>
  <unicode hex="00A5"/>
  <outline>
    <contour>
      <point x="767" y="307" type="line"/>
      <point x="1078" y="307" type="line"/>
      <point x="1078" y="449" type="line"/>
      <point x="767" y="449" type="line"/>
      <point x="767" y="556" type="line"/>
      <point x="1078" y="556" type="line"/>
      <point x="1078" y="698" type="line"/>
      <point x="780" y="698" type="line"/>
      <point x="1133" y="1178" type="line"/>
      <point x="1285" y="1178" type="line"/>
      <point x="1285" y="1360" type="line"/>
      <point x="780" y="1360" type="line"/>
      <point x="780" y="1178" type="line"/>
      <point x="923" y="1178" type="line"/>
      <point x="678" y="825" type="line"/>
      <point x="437" y="1178" type="line"/>
      <point x="558" y="1178" type="line"/>
      <point x="558" y="1360" type="line"/>
      <point x="49" y="1360" type="line"/>
      <point x="49" y="1178" type="line"/>
      <point x="202" y="1178" type="line"/>
      <point x="567" y="698" type="line"/>
      <point x="263" y="698" type="line"/>
      <point x="263" y="556" type="line"/>
      <point x="577" y="556" type="line"/>
      <point x="577" y="449" type="line"/>
      <point x="263" y="449" type="line"/>
      <point x="263" y="307" type="line"/>
      <point x="577" y="307" type="line"/>
      <point x="577" y="182" type="line"/>
      <point x="322" y="182" type="line"/>
      <point x="322" y="0" type="line"/>
      <point x="1025" y="0" type="line"/>
      <point x="1025" y="182" type="line"/>
      <point x="767" y="182" type="line"/>
    </contour>
  </outline>
</glyph>
<glyph name="brokenbar" format="2">
  <advance width="1334"/>
  <unicode hex="00A6"/>
  <outline>
    <contour>
      <point x="776" y="1496" type="line"/>
      <point x="558" y="1496" type="line"/>
      <point x="558" y="662" type="line"/>
      <point x="776" y="662" type="line"/>
    </contour>
    <contour>
      <point x="776" y="424" type="line"/>
      <point x="558" y="424" type="line"/>
      <point x="558" y="-409" type="line"/>
      <point x="776" y="-409" type="line"/>
    </contour>
  </outline>
</glyph>
<glyph name="section" format="2">
  <advance width="600"/>
  <unicode hex="00A7"/>
  <outline>
    <contour>
      <point x="482" y="583" type="line"/>
      <point x="299" y="583" type="line"/>
      <point x="285" y="583"/>
      <point x="236" y="580"/>
      <point x="188" y="559"/>
      <point x="152" y="515"/>
      <point x="152" y="475" type="qcurve"/>
      <point x="152" y="445"/>
      <point x="168" y="414"/>
      <point x="178" y="400" type="qcurve"/>
      <point x="173" y="400"/>
      <point x="168" y="399"/>
      <point x="163" y="394" type="qcurve"/>
      <point x="145" y="375"/>
      <point x="124" y="352"/>
      <point x="114" y="333"/>
      <point x="111" y="314"/>
      <point x="111" y="299" type="qcurve"/>
      <point x="111" y="279"/>
      <point x="121" y="247"/>
      <point x="141" y="220"/>
      <point x="170" y="194"/>
      <point x="190" y="179" type="qcurve"/>
      <point x="319" y="78" type="line"/>
      <point x="343" y="59"/>
      <point x="360" y="35"/>
      <point x="360" y="22" type="qcurve"/>
      <point x="360" y="5"/>
      <point x="336" y="0"/>
      <point x="308" y="0" type="qcurve"/>
      <point x="200" y="0" type="line"/>
      <point x="200" y="89" type="line"/>
      <point x="117" y="89" type="line"/>
      <point x="117" y="-91" type="line"/>
      <point x="308" y="-91" type="line"/>
      <point x="323" y="-91"/>
      <point x="372" y="-88"/>
      <point x="417" y="-68"/>
      <point x="450" y="-24"/>
      <point x="450" y="16" type="qcurve"/>
      <point x="450" y="33"/>
      <point x="447" y="46"/>
      <point x="442" y="55" type="qcurve"/>
      <point x="434" y="71"/>
      <point x="430" y="81"/>
      <point x="430" y="89" type="qcurve"/>
      <point x="437" y="89"/>
      <point x="454" y="92"/>
      <point x="462" y="103" type="qcurve"/>
      <point x="476" y="119"/>
      <point x="492" y="140"/>
      <point x="501" y="157"/>
      <point x="503" y="174"/>
      <point x="503" y="187" type="qcurve"/>
      <point x="503" y="227"/>
      <point x="458" y="282"/>
      <point x="416" y="315" type="qcurve"/>
      <point x="282" y="419" type="line"/>
      <point x="256" y="439"/>
      <point x="242" y="461"/>
      <point x="242" y="471" type="qcurve"/>
      <point x="242" y="489"/>
      <point x="266" y="495"/>
      <point x="295" y="495" type="qcurve"/>
      <point x="397" y="495" type="line"/>
      <point x="397" y="412" type="line"/>
      <point x="482" y="412" type="line"/>
    </contour>
    <contour>
      <point x="361" y="249" type="line"/>
      <point x="368" y="244"/>
      <point x="386" y="229"/>
      <point x="402" y="213"/>
      <point x="414" y="197"/>
      <point x="414" y="191" type="qcurve"/>
      <point x="414" y="180"/>
      <point x="402" y="167"/>
      <point x="386" y="158"/>
      <point x="370" y="154"/>
      <point x="366" y="153" type="qcurve"/>
      <point x="242" y="249" type="line"/>
      <point x="226" y="261"/>
      <point x="208" y="276"/>
      <point x="200" y="286"/>
      <point x="199" y="293"/>
      <point x="199" y="297" type="qcurve"/>
      <point x="199" y="306"/>
      <point x="209" y="322"/>
      <point x="222" y="333"/>
      <point x="237" y="340"/>
      <point x="242" y="341" type="qcurve"/>
    </contour>
  </outline>
</glyph>
<glyph name="dieresis" format="2">
  <advance width="1334"/>
  <unicode hex="00A8"/>
  <outline>
    <contour>
      <point x="396" y="1185" type="line"/>
      <point x="609" y="1185" type="line"/>
      <point x="609" y="1440" type="line"/>
      <point x="396" y="1440" type="line"/>
    </contour>
    <contour>
      <point x="725" y="1185" type="line"/>
      <point x="938" y="1185" type="line"/>
      <point x="938" y="1440" type="line"/>
      <point x="725" y="1440" type="line"/>
    </contour>
  </outline>
</glyph>
<glyph name="copyright" format="2">
  <advance width="1334"/>
  <unicode hex="00A9"/>
  <outline>
    <contour>
      <point x="963" y="999" type="line"/>
      <point x="916" y="1016"/>
      <point x="778" y="1054"/>
      <point x="694" y="1054" type="qcurve"/>
      <point x="596" y="1054"/>
      <point x="452" y="991"/>
      <point x="352" y="887"/>
      <point x="303" y="749"/>
      <point x="303" y="674" type="qcurve"/>
      <point x="303" y="596"/>
      <point x="352" y="458"/>
      <point x="443" y="356"/>
      <point x="577" y="293"/>
      <point x="664" y="293" type="qcurve"/>
      <point x="681" y="293"/>
      <point x="762" y="300"/>
      <point x="863" y="338"/>
      <point x="958" y="420"/>
      <point x="989" y="496" type="qcurve"/>
      <point x="905" y="529" type="line"/>
      <point x="898" y="516"/>
      <point x="874" y="475"/>
      <point x="829" y="435"/>
      <point x="765" y="407"/>
      <point x="721" y="407" type="qcurve"/>
      <point x="634" y="407"/>
      <point x="505" y="556"/>
      <point x="505" y="698" type="qcurve"/>
      <point x="505" y="825"/>
      <point x="620" y="952"/>
      <point x="704" y="952" type="qcurve"/>
      <point x="747" y="952"/>
      <point x="806" y="916"/>
      <point x="842" y="865"/>
      <point x="859" y="802"/>
      <point x="861" y="776" type="qcurve"/>
      <point x="963" y="776" type="line"/>
    </contour>
    <contour>
      <point x="666" y="29" type="qcurve"/>
      <point x="800" y="29"/>
      <point x="1038" y="131"/>
      <point x="1213" y="307"/>
      <point x="1318" y="545"/>
      <point x="1318" y="681" type="qcurve"/>
      <point x="1318" y="814"/>
      <point x="1216" y="1052"/>
      <point x="1040" y="1230"/>
      <point x="802" y="1332"/>
      <point x="666" y="1332" type="qcurve"/>
      <point x="531" y="1332"/>
      <point x="293" y="1230"/>
      <point x="118" y="1052"/>
      <point x="15" y="814"/>
      <point x="15" y="681" type="qcurve"/>
      <point x="15" y="543"/>
      <point x="120" y="307"/>
      <point x="295" y="129"/>
      <point x="534" y="29"/>
    </contour>
    <contour>
      <point x="666" y="157" type="qcurve"/>
      <point x="560" y="157"/>
      <point x="371" y="240"/>
      <point x="227" y="380"/>
      <point x="144" y="571"/>
      <point x="144" y="681" type="qcurve"/>
      <point x="144" y="789"/>
      <point x="227" y="978"/>
      <point x="369" y="1120"/>
      <point x="560" y="1203"/>
      <point x="666" y="1203" type="qcurve"/>
      <point x="774" y="1203"/>
      <point x="965" y="1120"/>
      <point x="1107" y="978"/>
      <point x="1190" y="789"/>
      <point x="1190" y="681" type="qcurve"/>
      <point x="1190" y="571"/>
      <point x="1107" y="380"/>
      <point x="963" y="240"/>
      <point x="774" y="157"/>
    </contour>
  </outline>
</glyph>
<glyph name="ordfeminine" format="2">
  <advance width="600"/>
  <unicode hex="00AA"/>
  <outline>
    <contour>
      <point x="200" y="520" type="line"/>
      <point x="232" y="534"/>
      <point x="273" y="546"/>
      <point x="292" y="546" type="qcurve"/>
      <point x="317" y="546"/>
      <point x="337" y="530"/>
      <point x="338" y="511" type="qcurve"/>
      <point x="320" y="513"/>
      <point x="298" y="514"/>
      <point x="284" y="514" type="qcurve"/>
      <point x="230" y="514"/>
      <point x="163" y="465"/>
      <point x="163" y="425" type="qcurve"/>
      <point x="163" y="389"/>
      <point x="218" y="340"/>
      <point x="258" y="340" type="qcurve"/>
      <point x="298" y="340"/>
      <point x="338" y="366" type="qcurve"/>
      <point x="338" y="347" type="line"/>
      <point x="436" y="347" type="line"/>
      <point x="436" y="400" type="line"/>
      <point x="392" y="400" type="line"/>
      <point x="392" y="509" type="line"/>
      <point x="392" y="600"/>
      <point x="293" y="600" type="qcurve"/>
      <point x="280" y="600"/>
      <point x="257" y="597"/>
      <point x="231" y="591"/>
      <point x="200" y="580"/>
      <point x="179" y="571" type="qcurve"/>
    </contour>
    <contour>
      <point x="338" y="437" type="line"/>
      <point x="295" y="394"/>
      <point x="258" y="394" type="qcurve"/>
      <point x="243" y="394"/>
      <point x="219" y="412"/>
      <point x="219" y="424" type="qcurve"/>
      <point x="219" y="441"/>
      <point x="257" y="461"/>
      <point x="289" y="461" type="qcurve"/>
      <point x="300" y="461"/>
      <point x="321" y="459"/>
      <point x="338" y="457" type="qcurve"/>
    </contour>
    <contour>
      <point x="169" y="305" type="line"/>
      <point x="169" y="251" type="line"/>
      <point x="431" y="251" type="line"/>
      <point x="431" y="305" type="line"/>
    </contour>
  </outline>
</glyph>
<glyph name="guillemotleft" format="2">
  <advance width="1334"/>
  <unicode hex="00AB"/>
  <outline>
    <contour>
      <point x="669" y="220" type="line"/>
      <point x="96" y="816" type="line"/>
      <point x="669" y="1432" type="line"/>
      <point x="789" y="1289" type="line"/>
      <point x="382" y="816" type="line"/>
      <point x="798" y="363" type="line"/>
    </contour>
    <contour>
      <point x="1107" y="220" type="line"/>
      <point x="534" y="816" type="line"/>
      <point x="1107" y="1432" type="line"/>
      <point x="1227" y="1289" type="line"/>
      <point x="821" y="816" type="line"/>
      <point x="1236" y="363" type="line"/>
    </contour>
  </outline>
</glyph>
<glyph name="logicalnot" format="2">
  <advance width="1334"/>
  <unicode hex="00AC"/>
  <outline>
    <contour>
      <point x="171" y="1027" type="line"/>
      <point x="171" y="831" type="line"/>
      <point x="984" y="831" type="line"/>
      <point x="984" y="363" type="line"/>
      <point x="1180" y="363" type="line"/>
      <point x="1180" y="1027" type="line"/>
    </contour>
  </outline>
</glyph>
<glyph name="uni00AD" format="2">
  <advance width="1334"/>
  <unicode hex="00AD"/>
  <outline>
    <contour>
      <point x="431" y="749" type="line"/>
      <point x="431" y="583" type="line"/>
      <point x="902" y="583" type="line"/>
      <point x="902" y="749" type="line"/>
    </contour>
  </outline>
</glyph>
<glyph name="registered" format="2">
  <advance width="1334"/>
  <unicode hex="00AE"/>
  <outline>
    <contour>
      <point x="356" y="961" type="line"/>
      <point x="391" y="961" type="line"/>
      <point x="420" y="961"/>
      <point x="433" y="949"/>
      <point x="433" y="923" type="qcurve"/>
      <point x="433" y="452" type="line"/>
      <point x="433" y="424"/>
      <point x="407" y="416"/>
      <point x="356" y="416" type="qcurve"/>
      <point x="356" y="340" type="line"/>
      <point x="671" y="340" type="line"/>
      <point x="671" y="416" type="line"/>
      <point x="653" y="416"/>
      <point x="634" y="416" type="qcurve"/>
      <point x="615" y="416"/>
      <point x="611" y="418" type="qcurve"/>
      <point x="600" y="420"/>
      <point x="598" y="433"/>
      <point x="598" y="462" type="qcurve"/>
      <point x="598" y="638" type="line"/>
      <point x="634" y="638"/>
      <point x="651" y="636"/>
      <point x="662" y="630" type="qcurve"/>
      <point x="676" y="620"/>
      <point x="702" y="571"/>
      <point x="734" y="496" type="qcurve"/>
      <point x="755" y="445"/>
      <point x="789" y="382"/>
      <point x="825" y="349"/>
      <point x="872" y="340"/>
      <point x="905" y="340" type="qcurve"/>
      <point x="1007" y="340" type="line"/>
      <point x="1007" y="416" type="line"/>
      <point x="978" y="416"/>
      <point x="963" y="418"/>
      <point x="956" y="427" type="qcurve"/>
      <point x="942" y="437"/>
      <point x="910" y="505"/>
      <point x="893" y="538" type="qcurve"/>
      <point x="876" y="575"/>
      <point x="849" y="622"/>
      <point x="827" y="651"/>
      <point x="806" y="669"/>
      <point x="798" y="676" type="qcurve"/>
      <point x="847" y="696"/>
      <point x="902" y="751"/>
      <point x="927" y="806"/>
      <point x="931" y="849"/>
      <point x="931" y="855" type="qcurve"/>
      <point x="931" y="925"/>
      <point x="867" y="1001"/>
      <point x="780" y="1033"/>
      <point x="694" y="1040"/>
      <point x="671" y="1040" type="qcurve"/>
      <point x="356" y="1040" type="line"/>
    </contour>
    <contour>
      <point x="598" y="920" type="line"/>
      <point x="598" y="942"/>
      <point x="605" y="958"/>
      <point x="630" y="958" type="qcurve"/>
      <point x="647" y="958"/>
      <point x="696" y="954"/>
      <point x="738" y="933"/>
      <point x="767" y="885"/>
      <point x="767" y="842" type="qcurve"/>
      <point x="767" y="798"/>
      <point x="738" y="749"/>
      <point x="689" y="727"/>
      <point x="630" y="721"/>
      <point x="598" y="721" type="qcurve"/>
    </contour>
    <contour>
      <point x="666" y="29" type="qcurve"/>
      <point x="800" y="29"/>
      <point x="1038" y="131"/>
      <point x="1213" y="307"/>
      <point x="1318" y="545"/>
      <point x="1318" y="681" type="qcurve"/>
      <point x="1318" y="814"/>
      <point x="1216" y="1052"/>
      <point x="1040" y="1230"/>
      <point x="802" y="1332"/>
      <point x="666" y="1332" type="qcurve"/>
      <point x="531" y="1332"/>
      <point x="293" y="1230"/>
      <point x="118" y="1052"/>
      <point x="15" y="814"/>
      <point x="15" y="681" type="qcurve"/>
      <point x="15" y="543"/>
      <point x="120" y="307"/>
      <point x="295" y="129"/>
      <point x="534" y="29"/>
    </contour>
    <contour>
      <point x="666" y="157" type="qcurve"/>
      <point x="560" y="157"/>
      <point x="371" y="240"/>
      <point x="227" y="380"/>
      <point x="144" y="571"/>
      <point x="144" y="681" type="qcurve"/>
      <point x="144" y="789"/>
      <point x="227" y="978"/>
      <point x="369" y="1120"/>
      <point x="560" y="1203"/>
      <point x="666" y="1203" type="qcurve"/>
      <point x="774" y="1203"/>
      <point x="965" y="1120"/>
      <point x="1107" y="978"/>
      <point x="1190" y="789"/>
      <point x="1190" y="681" type="qcurve"/>
      <point x="1190" y="571"/>
      <point x="1107" y="380"/>
      <point x="963" y="240"/>
      <point x="774" y="157"/>
    </contour>
  </outline>
</glyph>
<glyph name="overscore" format="2">
  <advance width="1334"/>
  <unicode hex="00AF"/>
  <outline>
    <contour>
      <point x="287" y="1411" type="line"/>
      <point x="287" y="1222" type="line"/>
      <point x="1047" y="1222" type="line"/>
      <point x="1047" y="1411" type="line"/>
    </contour>
  </outline>
</glyph>
<glyph name="degree" format="2">
  <advance width="600"/>
  <unicode hex="00B0"/>
  <outline>
    <contour>
      <point x="144" y="483" type="qcurve"/>
      <point x="144" y="450"/>
      <point x="169" y="393"/>
      <point x="211" y="350"/>
      <point x="268" y="326"/>
      <point x="300" y="326" type="qcurve"/>
      <point x="333" y="326"/>
      <point x="390" y="351"/>
      <point x="432" y="393"/>
      <point x="456" y="450"/>
      <point x="456" y="483" type="qcurve"/>
      <point x="456" y="515"/>
      <point x="431" y="572"/>
      <point x="389" y="614"/>
      <point x="332" y="639"/>
      <point x="300" y="639" type="qcurve"/>
      <point x="268" y="639"/>
      <point x="211" y="615"/>
      <point x="169" y="573"/>
      <point x="144" y="516"/>
    </contour>
    <contour>
      <point x="224" y="483" type="qcurve"/>
      <point x="224" y="514"/>
      <point x="268" y="559"/>
      <point x="300" y="559" type="qcurve"/>
      <point x="332" y="559"/>
      <point x="376" y="514"/>
      <point x="376" y="483" type="qcurve"/>
      <point x="376" y="451"/>
      <point x="332" y="406"/>
      <point x="300" y="406" type="qcurve"/>
      <point x="268" y="406"/>
      <point x="224" y="451"/>
    </contour>
  </outline>
</glyph>
<glyph name="plusminus" format="2">
  <advance width="600"/>
  <unicode hex="00B1"/>
  <outline>
    <contour>
      <point x="256" y="601" type="line"/>
      <point x="256" y="413" type="line"/>
      <point x="54" y="413" type="line"/>
      <point x="54" y="325" type="line"/>
      <point x="256" y="325" type="line"/>
      <point x="256" y="137" type="line"/>
      <point x="344" y="137" type="line"/>
      <point x="344" y="325" type="line"/>
      <point x="546" y="325" type="line"/>
      <point x="546" y="413" type="line"/>
      <point x="344" y="413" type="line"/>
      <point x="344" y="601" type="line"/>
    </contour>
    <contour>
      <point x="54" y="111" type="line"/>
      <point x="54" y="23" type="line"/>
      <point x="546" y="23" type="line"/>
      <point x="546" y="111" type="line"/>
    </contour>
  </outline>
</glyph>
<glyph name="twosuperior" format="2">
  <advance width="1334"/>
  <unicode hex="00B2"/>
  <outline>
    <contour>
      <point x="798" y="802" type="line"/>
      <point x="798" y="676" type="line"/>
      <point x="556" y="676" type="line"/>
      <point x="674" y="783" type="line"/>
      <point x="749" y="851"/>
      <point x="849" y="946"/>
      <point x="869" y="976" type="qcurve"/>
      <point x="925" y="1058"/>
      <point x="925" y="1147" type="qcurve"/>
      <point x="925" y="1203"/>
      <point x="880" y="1302"/>
      <point x="804" y="1378"/>
      <point x="702" y="1421"/>
      <point x="645" y="1421" type="qcurve"/>
      <point x="490" y="1421"/>
      <point x="376" y="1283" type="qcurve"/>
      <point x="376" y="1154" type="line"/>
      <point x="513" y="1154" type="line"/>
      <point x="507" y="1194" type="line"/>
      <point x="507" y="1232"/>
      <point x="587" y="1289"/>
      <point x="643" y="1289" type="qcurve"/>
      <point x="702" y="1289"/>
      <point x="789" y="1207"/>
      <point x="789" y="1149" type="qcurve"/>
      <point x="789" y="1120"/>
      <point x="780" y="1076"/>
      <point x="747" y="1027"/>
      <point x="683" y="961"/>
      <point x="627" y="912" type="qcurve"/>
      <point x="605" y="891"/>
      <point x="543" y="834"/>
      <point x="473" y="770"/>
      <point x="405" y="709"/>
      <point x="378" y="687" type="qcurve"/>
      <point x="352" y="664" type="line"/>
      <point x="352" y="547" type="line"/>
      <point x="923" y="547" type="line"/>
      <point x="923" y="802" type="line"/>
    </contour>
  </outline>
</glyph>
<glyph name="threesuperior" format="2">
  <advance width="1334"/>
  <unicode hex="00B3"/>
  <outline>
    <contour>
      <point x="422" y="1203" type="line"/>
      <point x="475" y="1236" type="line"/>
      <point x="526" y="1267"/>
      <point x="589" y="1289"/>
      <point x="624" y="1289" type="qcurve"/>
      <point x="676" y="1289"/>
      <point x="742" y="1230"/>
      <point x="742" y="1183" type="qcurve"/>
      <point x="742" y="1122"/>
      <point x="696" y="1090" type="qcurve"/>
      <point x="674" y="1071"/>
      <point x="620" y="1063"/>
      <point x="551" y="1063" type="qcurve"/>
      <point x="551" y="933" type="line"/>
      <point x="622" y="936" type="line"/>
      <point x="700" y="938"/>
      <point x="785" y="865"/>
      <point x="785" y="800" type="qcurve"/>
      <point x="785" y="736"/>
      <point x="698" y="656"/>
      <point x="627" y="656" type="qcurve"/>
      <point x="581" y="656"/>
      <point x="478" y="687"/>
      <point x="393" y="727" type="qcurve"/>
      <point x="342" y="609" type="line"/>
      <point x="403" y="583" type="line"/>
      <point x="480" y="547"/>
      <point x="571" y="529"/>
      <point x="622" y="529" type="qcurve"/>
      <point x="687" y="529"/>
      <point x="796" y="569"/>
      <point x="874" y="643"/>
      <point x="918" y="742"/>
      <point x="918" y="802" type="qcurve"/>
      <point x="918" y="938"/>
      <point x="804" y="1014" type="qcurve"/>
      <point x="844" y="1058"/>
      <point x="876" y="1133"/>
      <point x="876" y="1187" type="qcurve"/>
      <point x="876" y="1236"/>
      <point x="836" y="1321"/>
      <point x="770" y="1385"/>
      <point x="676" y="1421"/>
      <point x="622" y="1421" type="qcurve"/>
      <point x="592" y="1421"/>
      <point x="538" y="1411"/>
      <point x="478" y="1387"/>
      <point x="405" y="1345"/>
      <point x="356" y="1311" type="qcurve"/>
    </contour>
  </outline>
</glyph>
<glyph name="acute" format="2">
  <advance width="1334"/>
  <unicode hex="00B4"/>
  <outline>
    <contour>
      <point x="1031" y="1419" type="line"/>
      <point x="1031" y="1427" type="line"/>
      <point x="700" y="1427" type="line"/>
      <point x="467" y="1209" type="line"/>
      <point x="660" y="1209" type="line"/>
    </contour>
  </outline>
</glyph>
<glyph name="mu" format="2">
  <advance width="600"/>
  <unicode hex="00B5"/>
  <outline>
    <contour>
      <point x="23" y="457" type="line"/>
      <point x="23" y="381" type="line"/>
      <point x="105" y="381" type="line"/>
      <point x="105" y="-143" type="line"/>
      <point x="192" y="-143" type="line"/>
      <point x="192" y="22" type="line"/>
      <point x="211" y="8"/>
      <point x="254" y="-7"/>
      <point x="290" y="-14"/>
      <point x="314" y="-15"/>
      <point x="316" y="-15" type="qcurve"/>
      <point x="346" y="-15"/>
      <point x="366" y="0" type="qcurve"/>
      <point x="379" y="9"/>
      <point x="399" y="22"/>
      <point x="408" y="22" type="qcurve"/>
      <point x="408" y="0" type="line"/>
      <point x="578" y="0" type="line"/>
      <point x="578" y="76" type="line"/>
      <point x="495" y="76" type="line"/>
      <point x="495" y="457" type="line"/>
      <point x="326" y="457" type="line"/>
      <point x="326" y="381" type="line"/>
      <point x="408" y="381" type="line"/>
      <point x="408" y="208" type="line"/>
      <point x="408" y="171"/>
      <point x="398" y="130"/>
      <point x="384" y="112" type="qcurve"/>
      <point x="371" y="94"/>
      <point x="319" y="72"/>
      <point x="296" y="72" type="qcurve"/>
      <point x="273" y="72"/>
      <point x="227" y="94"/>
      <point x="211" y="114" type="qcurve"/>
      <point x="205" y="122"/>
      <point x="197" y="138"/>
      <point x="193" y="159"/>
      <point x="192" y="187"/>
      <point x="192" y="208" type="qcurve"/>
      <point x="192" y="457" type="line"/>
    </contour>
  </outline>
</glyph>
<glyph name="paragraph" format="2">
  <advance width="1334"/>
  <unicode hex="00B6"/>
  <outline>
    <contour>
      <point x="1056" y="1187" type="line"/>
      <point x="1173" y="1187" type="line"/>
      <point x="1173" y="1296" type="line"/>
      <point x="649" y="1296" type="line"/>
      <point x="560" y="1296"/>
      <point x="378" y="1283"/>
      <point x="307" y="1238" type="qcurve"/>
      <point x="233" y="1192"/>
      <point x="160" y="1033"/>
      <point x="160" y="949" type="qcurve"/>
      <point x="160" y="916"/>
      <point x="176" y="829"/>
      <point x="212" y="745"/>
      <point x="274" y="669"/>
      <point x="320" y="645" type="qcurve"/>
      <point x="405" y="600"/>
      <point x="551" y="592"/>
      <point x="600" y="596" type="qcurve"/>
      <point x="600" y="-64" type="line"/>
      <point x="456" y="-64" type="line"/>
      <point x="456" y="-176" type="line"/>
      <point x="774" y="-176" type="line"/>
      <point x="774" y="1187" type="line"/>
      <point x="885" y="1187" type="line"/>
      <point x="885" y="-176" type="line"/>
      <point x="1173" y="-176" type="line"/>
      <point x="1173" y="-64" type="line"/>
      <point x="1056" y="-64" type="line"/>
    </contour>
    <contour>
      <point x="600" y="696" type="line"/>
      <point x="585" y="698"/>
      <point x="545" y="707"/>
      <point x="511" y="738"/>
      <point x="487" y="800"/>
      <point x="487" y="855" type="qcurve"/>
      <point x="487" y="1029" type="line"/>
      <point x="487" y="1045"/>
      <point x="492" y="1098"/>
      <point x="511" y="1149"/>
      <point x="558" y="1187"/>
      <point x="600" y="1187" type="qcurve"/>
    </contour>
  </outline>
</glyph>
<glyph name="middot" format="2">
  <advance width="1334"/>
  <unicode hex="00B7"/>
  <outline>
    <contour>
      <point x="666" y="885" type="qcurve"/>
      <point x="630" y="885"/>
      <point x="556" y="859"/>
      <point x="496" y="809"/>
      <point x="458" y="740"/>
      <point x="458" y="696" type="qcurve"/>
      <point x="458" y="651"/>
      <point x="496" y="581"/>
      <point x="556" y="531"/>
      <point x="630" y="507"/>
      <point x="666" y="507" type="qcurve"/>
      <point x="704" y="507"/>
      <point x="780" y="534"/>
      <point x="840" y="583"/>
      <point x="876" y="651"/>
      <point x="876" y="696" type="qcurve"/>
      <point x="876" y="740"/>
      <point x="838" y="812"/>
      <point x="778" y="861"/>
      <point x="702" y="885"/>
    </contour>
  </outline>
</glyph>
<glyph name="cedilla" format="2">
  <advance width="1334"/>
  <unicode hex="00B8"/>
  <outline>
    <contour>
      <point x="838" y="13" type="line"/>
      <point x="676" y="13" type="line"/>
      <point x="653" y="-174" type="line"/>
      <point x="685" y="-178" type="line"/>
      <point x="698" y="-180"/>
      <point x="745" y="-185"/>
      <point x="789" y="-195"/>
      <point x="816" y="-206"/>
      <point x="809" y="-216" type="qcurve"/>
      <point x="806" y="-218"/>
      <point x="787" y="-225"/>
      <point x="770" y="-225" type="qcurve"/>
      <point x="740" y="-225"/>
      <point x="660" y="-214"/>
      <point x="585" y="-200"/>
      <point x="526" y="-187"/>
      <point x="520" y="-185" type="qcurve"/>
      <point x="496" y="-338" type="line"/>
      <point x="498" y="-338"/>
      <point x="511" y="-342"/>
      <point x="516" y="-342" type="qcurve"/>
      <point x="543" y="-349"/>
      <point x="696" y="-380"/>
      <point x="783" y="-380" type="qcurve"/>
      <point x="855" y="-380"/>
      <point x="940" y="-340"/>
      <point x="984" y="-284"/>
      <point x="999" y="-229"/>
      <point x="999" y="-214" type="qcurve"/>
      <point x="999" y="-167"/>
      <point x="954" y="-100"/>
      <point x="898" y="-60"/>
      <point x="842" y="-40"/>
      <point x="831" y="-40" type="qcurve"/>
    </contour>
  </outline>
</glyph>
<glyph name="onesuperior" format="2">
  <advance width="1334"/>
  <unicode hex="00B9"/>
  <outline>
    <contour>
      <point x="369" y="1289" type="line"/>
      <point x="420" y="1171" type="line"/>
      <point x="613" y="1258" type="line"/>
      <point x="613" y="674" type="line"/>
      <point x="386" y="674" type="line"/>
      <point x="386" y="547" type="line"/>
      <point x="967" y="547" type="line"/>
      <point x="967" y="674" type="line"/>
      <point x="742" y="674" type="line"/>
      <point x="742" y="1421" type="line"/>
      <point x="662" y="1421" type="line"/>
    </contour>
  </outline>
</glyph>
<glyph name="ordmasculine" format="2">
  <advance width="600"/>
  <unicode hex="00BA"/>
  <outline>
    <contour>
      <point x="162" y="470" type="qcurve"/>
      <point x="162" y="441"/>
      <point x="183" y="394"/>
      <point x="219" y="359"/>
      <point x="270" y="340"/>
      <point x="300" y="340" type="qcurve"/>
      <point x="330" y="340"/>
      <point x="381" y="359"/>
      <point x="417" y="394"/>
      <point x="438" y="441"/>
      <point x="438" y="470" type="qcurve"/>
      <point x="438" y="498"/>
      <point x="417" y="546"/>
      <point x="381" y="581"/>
      <point x="330" y="600"/>
      <point x="300" y="600" type="qcurve"/>
      <point x="270" y="600"/>
      <point x="219" y="581"/>
      <point x="182" y="546"/>
      <point x="162" y="498"/>
    </contour>
    <contour>
      <point x="220" y="470" type="qcurve"/>
      <point x="220" y="504"/>
      <point x="265" y="546"/>
      <point x="300" y="546" type="qcurve"/>
      <point x="336" y="546"/>
      <point x="380" y="504"/>
      <point x="380" y="470" type="qcurve"/>
      <point x="380" y="436"/>
      <point x="335" y="394"/>
      <point x="300" y="394" type="qcurve"/>
      <point x="265" y="394"/>
      <point x="220" y="436"/>
    </contour>
    <contour>
      <point x="169" y="306" type="line"/>
      <point x="169" y="251" type="line"/>
      <point x="431" y="251" type="line"/>
      <point x="431" y="306" type="line"/>
    </contour>
  </outline>
</glyph>
<glyph name="guillemotright" format="2">
  <advance width="600"/>
  <unicode hex="00BB"/>
  <outline>
    <contour>
      <point x="102" y="643" type="line"/>
      <point x="360" y="364" type="line"/>
      <point x="102" y="97" type="line"/>
      <point x="48" y="161" type="line"/>
      <point x="231" y="364" type="line"/>
      <point x="44" y="579" type="line"/>
    </contour>
    <contour>
      <point x="299" y="643" type="line"/>
      <point x="557" y="364" type="line"/>
      <point x="299" y="97" type="line"/>
      <point x="245" y="161" type="line"/>
      <point x="428" y="364" type="line"/>
      <point x="241" y="579" type="line"/>
    </contour>
  </outline>
</glyph>
<glyph name="onequarter" format="2">
  <advance width="600"/>
  <unicode hex="00BC"/>
  <outline>
    <contour>
      <point x="546" y="304" type="line"/>
      <point x="484" y="304" type="line"/>
      <point x="334" y="56" type="line"/>
      <point x="334" y="4" type="line"/>
      <point x="489" y="4" type="line"/>
      <point x="489" y="-24" type="line"/>
      <point x="411" y="-24" type="line"/>
      <point x="411" y="-79" type="line"/>
      <point x="598" y="-79" type="line"/>
      <point x="598" y="-24" type="line"/>
      <point x="546" y="-24" type="line"/>
      <point x="546" y="4" type="line"/>
      <point x="598" y="4" type="line"/>
      <point x="598" y="61" type="line"/>
      <point x="546" y="61" type="line"/>
    </contour>
    <contour>
      <point x="489" y="61" type="line"/>
      <point x="402" y="61" type="line"/>
      <point x="487" y="221" type="line"/>
      <point x="489" y="221" type="line"/>
    </contour>
    <contour>
      <point x="1" y="595" type="line"/>
      <point x="25" y="543" type="line"/>
      <point x="87" y="571" type="line"/>
      <point x="87" y="316" type="line"/>
      <point x="12" y="316" type="line"/>
      <point x="12" y="259" type="line"/>
      <point x="211" y="259" type="line"/>
      <point x="211" y="316" type="line"/>
      <point x="145" y="316" type="line"/>
      <point x="145" y="643" type="line"/>
      <point x="109" y="643" type="line"/>
    </contour>
    <contour>
      <point x="556" y="657" type="line"/>
      <point x="36" y="-58" type="line"/>
      <point x="82" y="-94" type="line"/>
      <point x="604" y="624" type="line"/>
    </contour>
  </outline>
</glyph>
<glyph name="onehalf" format="2">
  <advance width="600"/>
  <unicode hex="00BD"/>
  <outline>
    <contour>
      <point x="1" y="595" type="line"/>
      <point x="25" y="543" type="line"/>
      <point x="87" y="571" type="line"/>
      <point x="87" y="316" type="line"/>
      <point x="12" y="316" type="line"/>
      <point x="12" y="259" type="line"/>
      <point x="211" y="259" type="line"/>
      <point x="211" y="316" type="line"/>
      <point x="145" y="316" type="line"/>
      <point x="145" y="643" type="line"/>
      <point x="109" y="643" type="line"/>
    </contour>
    <contour>
      <point x="536" y="657" type="line"/>
      <point x="16" y="-58" type="line"/>
      <point x="62" y="-94" type="line"/>
      <point x="584" y="624" type="line"/>
    </contour>
    <contour>
      <point x="541" y="34" type="line"/>
      <point x="541" y="-22" type="line"/>
      <point x="434" y="-22" type="line"/>
      <point x="485" y="24" type="line"/>
      <point x="519" y="54"/>
      <point x="563" y="96"/>
      <point x="589" y="132"/>
      <point x="598" y="164"/>
      <point x="598" y="184" type="qcurve"/>
      <point x="598" y="209"/>
      <point x="578" y="253"/>
      <point x="544" y="285"/>
      <point x="499" y="304"/>
      <point x="473" y="304" type="qcurve"/>
      <point x="404" y="304"/>
      <point x="353" y="244" type="qcurve"/>
      <point x="353" y="186" type="line"/>
      <point x="414" y="186" type="line"/>
      <point x="413" y="196" type="line"/>
      <point x="412" y="207" type="line"/>
      <point x="412" y="222"/>
      <point x="449" y="246"/>
      <point x="472" y="246" type="qcurve"/>
      <point x="499" y="246"/>
      <point x="537" y="211"/>
      <point x="537" y="185" type="qcurve"/>
      <point x="537" y="173"/>
      <point x="533" y="154"/>
      <point x="518" y="132"/>
      <point x="489" y="103"/>
      <point x="464" y="81" type="qcurve"/>
      <point x="454" y="72"/>
      <point x="425" y="45"/>
      <point x="394" y="18"/>
      <point x="364" y="-8"/>
      <point x="354" y="-17" type="qcurve"/>
      <point x="342" y="-27" type="line"/>
      <point x="342" y="-79" type="line"/>
      <point x="597" y="-79" type="line"/>
      <point x="597" y="34" type="line"/>
    </contour>
  </outline>
</glyph>
<glyph name="threequarters" format="2">
  <advance width="1334"/>
  <unicode hex="00BE"/>
  <outline>
    <contour>
      <point x="1243" y="676" type="line"/>
      <point x="1105" y="676" type="line"/>
      <point x="772" y="125" type="line"/>
      <point x="772" y="9" type="line"/>
      <point x="1116" y="9" type="line"/>
      <point x="1116" y="-53" type="line"/>
      <point x="942" y="-53" type="line"/>
      <point x="942" y="-176" type="line"/>
      <point x="1360" y="-176" type="line"/>
      <point x="1360" y="-53" type="line"/>
      <point x="1243" y="-53" type="line"/>
      <point x="1243" y="9" type="line"/>
      <point x="1360" y="9" type="line"/>
      <point x="1360" y="136" type="line"/>
      <point x="1243" y="136" type="line"/>
    </contour>
    <contour>
      <point x="1116" y="136" type="line"/>
      <point x="925" y="136" type="line"/>
      <point x="1111" y="492" type="line"/>
      <point x="1116" y="492" type="line"/>
    </contour>
    <contour>
      <point x="87" y="1216" type="line"/>
      <point x="138" y="1247" type="line"/>
      <point x="187" y="1279"/>
      <point x="249" y="1300"/>
      <point x="282" y="1300" type="qcurve"/>
      <point x="335" y="1300"/>
      <point x="403" y="1243"/>
      <point x="403" y="1198" type="qcurve"/>
      <point x="403" y="1141"/>
      <point x="356" y="1107" type="qcurve"/>
      <point x="335" y="1090"/>
      <point x="291" y="1082"/>
      <point x="231" y="1080" type="qcurve"/>
      <point x="212" y="1080" type="line"/>
      <point x="212" y="954" type="line"/>
      <point x="233" y="954" type="line"/>
      <point x="284" y="956" type="line"/>
      <point x="363" y="956"/>
      <point x="445" y="889"/>
      <point x="445" y="825" type="qcurve"/>
      <point x="445" y="762"/>
      <point x="358" y="685"/>
      <point x="287" y="685" type="qcurve"/>
      <point x="240" y="685"/>
      <point x="142" y="713"/>
      <point x="58" y="753" type="qcurve"/>
      <point x="7" y="636" type="line"/>
      <point x="66" y="611" type="line"/>
      <point x="142" y="581"/>
      <point x="233" y="558"/>
      <point x="284" y="558" type="qcurve"/>
      <point x="346" y="558"/>
      <point x="456" y="598"/>
      <point x="531" y="669"/>
      <point x="575" y="767"/>
      <point x="575" y="825" type="qcurve"/>
      <point x="575" y="958"/>
      <point x="465" y="1031" type="qcurve"/>
      <point x="536" y="1103"/>
      <point x="536" y="1200" type="qcurve"/>
      <point x="536" y="1298"/>
      <point x="391" y="1429"/>
      <point x="282" y="1429" type="qcurve"/>
      <point x="253" y="1429"/>
      <point x="200" y="1421"/>
      <point x="140" y="1396"/>
      <point x="68" y="1353"/>
      <point x="20" y="1323" type="qcurve"/>
    </contour>
    <contour>
      <point x="1274" y="1461" type="line"/>
      <point x="118" y="-129" type="line"/>
      <point x="220" y="-209" type="line"/>
      <point x="1378" y="1387" type="line"/>
    </contour>
  </outline>
</glyph>
<glyph name="questiondown" format="2">
  <advance width="1334"/>
  <unicode hex="00BF"/>
  <outline>
    <contour>
      <point x="1082" y="87" type="line"/>
      <point x="889" y="87" type="line"/>
      <point x="889" y="-64" type="line"/>
      <point x="844" y="-80" type="line"/>
      <point x="829" y="-85"/>
      <point x="783" y="-93"/>
      <point x="734" y="-100"/>
      <point x="685" y="-102"/>
      <point x="669" y="-102" type="qcurve"/>
      <point x="627" y="-102"/>
      <point x="543" y="-78"/>
      <point x="475" y="-27"/>
      <point x="433" y="47"/>
      <point x="433" y="96" type="qcurve"/>
      <point x="433" y="157"/>
      <point x="492" y="238"/>
      <point x="581" y="289"/>
      <point x="689" y="320"/>
      <point x="740" y="333" type="qcurve"/>
      <point x="753" y="335"/>
      <point x="787" y="342"/>
      <point x="800" y="346" type="qcurve"/>
      <point x="804" y="346"/>
      <point x="816" y="352"/>
      <point x="818" y="352" type="qcurve"/>
      <point x="818" y="622" type="line"/>
      <point x="627" y="622" type="line"/>
      <point x="627" y="498" type="line"/>
      <point x="581" y="484"/>
      <point x="445" y="435"/>
      <point x="322" y="346"/>
      <point x="236" y="206"/>
      <point x="236" y="100" type="qcurve"/>
      <point x="236" y="22"/>
      <point x="295" y="-120"/>
      <point x="411" y="-231"/>
      <point x="583" y="-295"/>
      <point x="694" y="-295" type="qcurve"/>
      <point x="774" y="-295"/>
      <point x="914" y="-269"/>
      <point x="1018" y="-231" type="qcurve"/>
      <point x="1052" y="-220"/>
      <point x="1071" y="-214"/>
      <point x="1082" y="-209" type="qcurve"/>
    </contour>
    <contour>
      <point x="727" y="704" type="qcurve"/>
      <point x="812" y="704"/>
      <point x="918" y="809"/>
      <point x="918" y="880" type="qcurve"/>
      <point x="918" y="952"/>
      <point x="809" y="1056"/>
      <point x="727" y="1056" type="qcurve"/>
      <point x="647" y="1056"/>
      <point x="534" y="954"/>
      <point x="534" y="880" type="qcurve"/>
      <point x="534" y="806"/>
      <point x="647" y="704"/>
    </contour>
  </outline>
</glyph>
<glyph name="Agrave" format="2">
  <advance width="600"/>
  <unicode hex="00C0"/>
  <outline>
    <contour>
      <point x="100" y="583" type="line"/>
      <point x="100" y="501" type="line"/>
      <point x="229" y="501" type="line"/>
      <point x="58" y="82" type="line"/>
      <point x="0" y="82" type="line"/>
      <point x="0" y="0" type="line"/>
      <point x="237" y="0" type="line"/>
      <point x="237" y="82" type="line"/>
      <point x="148" y="82" type="line"/>
      <point x="187" y="180" type="line"/>
      <point x="412" y="180" type="line"/>
      <point x="451" y="82" type="line"/>
      <point x="363" y="82" type="line"/>
      <point x="363" y="0" type="line"/>
      <point x="600" y="0" type="line"/>
      <point x="600" y="82" type="line"/>
      <point x="544" y="82" type="line"/>
      <point x="341" y="583" type="line"/>
    </contour>
    <contour>
      <point x="380" y="262" type="line"/>
      <point x="221" y="262" type="line"/>
      <point x="300" y="453" type="line"/>
    </contour>
    <contour>
      <point x="156" y="768" type="line"/>
      <point x="323" y="674" type="line"/>
      <point x="410" y="674" type="line"/>
      <point x="305" y="772" type="line"/>
      <point x="156" y="772" type="line"/>
    </contour>
  </outline>
</glyph>
<glyph name="Aacute" format="2">
  <advance width="1334"/>
  <unicode hex="00C1"/>
  <outline>
    <contour>
      <point x="223" y="1296" type="line"/>
      <point x="223" y="1114" type="line"/>
      <point x="509" y="1114" type="line"/>
      <point x="129" y="182" type="line"/>
      <point x="0" y="182" type="line"/>
      <point x="0" y="0" type="line"/>
      <point x="526" y="0" type="line"/>
      <point x="526" y="182" type="line"/>
      <point x="329" y="182" type="line"/>
      <point x="416" y="401" type="line"/>
      <point x="916" y="401" type="line"/>
      <point x="1003" y="182" type="line"/>
      <point x="806" y="182" type="line"/>
      <point x="806" y="0" type="line"/>
      <point x="1334" y="0" type="line"/>
      <point x="1334" y="182" type="line"/>
      <point x="1209" y="182" type="line"/>
      <point x="758" y="1296" type="line"/>
    </contour>
    <contour>
      <point x="844" y="583" type="line"/>
      <point x="492" y="583" type="line"/>
      <point x="666" y="1007" type="line"/>
    </contour>
    <contour>
      <point x="1031" y="1707" type="line"/>
      <point x="1031" y="1716" type="line"/>
      <point x="700" y="1716" type="line"/>
      <point x="467" y="1498" type="line"/>
      <point x="660" y="1498" type="line"/>
    </contour>
  </outline>
</glyph>
<glyph name="Acircumflex" format="2">
  <advance width="1334"/>
  <unicode hex="00C2"/>
  <outline>
    <contour>
      <point x="223" y="1296" type="line"/>
      <point x="223" y="1114" type="line"/>
      <point x="509" y="1114" type="line"/>
      <point x="129" y="182" type="line"/>
      <point x="0" y="182" type="line"/>
      <point x="0" y="0" type="line"/>
      <point x="526" y="0" type="line"/>
      <point x="526" y="182" type="line"/>
      <point x="329" y="182" type="line"/>
      <point x="416" y="401" type="line"/>
      <point x="916" y="401" type="line"/>
      <point x="1003" y="182" type="line"/>
      <point x="806" y="182" type="line"/>
      <point x="806" y="0" type="line"/>
      <point x="1334" y="0" type="line"/>
      <point x="1334" y="182" type="line"/>
      <point x="1209" y="182" type="line"/>
      <point x="758" y="1296" type="line"/>
    </contour>
    <contour>
      <point x="844" y="583" type="line"/>
      <point x="492" y="583" type="line"/>
      <point x="666" y="1007" type="line"/>
    </contour>
    <contour>
      <point x="567" y="1739" type="line"/>
      <point x="360" y="1549" type="line"/>
      <point x="478" y="1478" type="line"/>
      <point x="658" y="1585" type="line"/>
      <point x="861" y="1478" type="line"/>
      <point x="976" y="1549" type="line"/>
      <point x="758" y="1739" type="line"/>
    </contour>
  </outline>
</glyph>
<glyph name="Atilde" format="2">
  <advance width="600"/>
  <unicode hex="00C3"/>
  <outline>
    <contour>
      <point x="100" y="583" type="line"/>
      <point x="100" y="501" type="line"/>
      <point x="229" y="501" type="line"/>
      <point x="58" y="82" type="line"/>
      <point x="0" y="82" type="line"/>
      <point x="0" y="0" type="line"/>
      <point x="237" y="0" type="line"/>
      <point x="237" y="82" type="line"/>
      <point x="148" y="82" type="line"/>
      <point x="187" y="180" type="line"/>
      <point x="412" y="180" type="line"/>
      <point x="451" y="82" type="line"/>
      <point x="363" y="82" type="line"/>
      <point x="363" y="0" type="line"/>
      <point x="600" y="0" type="line"/>
      <point x="600" y="82" type="line"/>
      <point x="544" y="82" type="line"/>
      <point x="341" y="583" type="line"/>
    </contour>
    <contour>
      <point x="380" y="262" type="line"/>
      <point x="221" y="262" type="line"/>
      <point x="300" y="453" type="line"/>
    </contour>
    <contour>
      <point x="407" y="790" type="line"/>
      <point x="398" y="767"/>
      <point x="379" y="735"/>
      <point x="362" y="735" type="qcurve"/>
      <point x="354" y="735"/>
      <point x="335" y="743"/>
      <point x="318" y="756" type="qcurve"/>
      <point x="301" y="768"/>
      <point x="263" y="788"/>
      <point x="237" y="788" type="qcurve"/>
      <point x="209" y="788"/>
      <point x="171" y="766"/>
      <point x="146" y="735"/>
      <point x="130" y="698"/>
      <point x="124" y="683" type="qcurve"/>
      <point x="193" y="660" type="line"/>
      <point x="194" y="661"/>
      <point x="196" y="667"/>
      <point x="197" y="668" type="qcurve"/>
      <point x="202" y="682"/>
      <point x="220" y="714"/>
      <point x="237" y="714" type="qcurve"/>
      <point x="240" y="714"/>
      <point x="246" y="713"/>
      <point x="255" y="709"/>
      <point x="269" y="700"/>
      <point x="280" y="692" type="qcurve"/>
      <point x="308" y="672"/>
      <point x="343" y="662"/>
      <point x="358" y="662" type="qcurve"/>
      <point x="389" y="662"/>
      <point x="430" y="685"/>
      <point x="457" y="719"/>
      <point x="471" y="755"/>
      <point x="476" y="769" type="qcurve"/>
    </contour>
  </outline>
</glyph>
<glyph name="Adieresis" format="2">
  <advance width="600"/>
  <unicode hex="00C4"/>
  <outline>
    <contour>
      <point x="100" y="583" type="line"/>
      <point x="100" y="501" type="line"/>
      <point x="229" y="501" type="line"/>
      <point x="58" y="82" type="line"/>
      <point x="0" y="82" type="line"/>
      <point x="0" y="0" type="line"/>
      <point x="237" y="0" type="line"/>
      <point x="237" y="82" type="line"/>
      <point x="148" y="82" type="line"/>
      <point x="187" y="180" type="line"/>
      <point x="412" y="180" type="line"/>
      <point x="451" y="82" type="line"/>
      <point x="363" y="82" type="line"/>
      <point x="363" y="0" type="line"/>
      <point x="600" y="0" type="line"/>
      <point x="600" y="82" type="line"/>
      <point x="544" y="82" type="line"/>
      <point x="341" y="583" type="line"/>
    </contour>
    <contour>
      <point x="380" y="262" type="line"/>
      <point x="221" y="262" type="line"/>
      <point x="300" y="453" type="line"/>
    </contour>
    <contour>
      <point x="178" y="663" type="line"/>
      <point x="274" y="663" type="line"/>
      <point x="274" y="778" type="line"/>
      <point x="178" y="778" type="line"/>
    </contour>
    <contour>
      <point x="326" y="663" type="line"/>
      <point x="422" y="663" type="line"/>
      <point x="422" y="778" type="line"/>
      <point x="326" y="778" type="line"/>
    </contour>
  </outline>
</glyph>
<glyph name="Aring" format="2">
  <advance width="1334"/>
  <unicode hex="00C5"/>
  <outline>
    <contour>
      <point x="223" y="1296" type="line"/>
      <point x="223" y="1114" type="line"/>
      <point x="509" y="1114" type="line"/>
      <point x="129" y="182" type="line"/>
      <point x="0" y="182" type="line"/>
      <point x="0" y="0" type="line"/>
      <point x="526" y="0" type="line"/>
      <point x="526" y="182" type="line"/>
      <point x="329" y="182" type="line"/>
      <point x="416" y="401" type="line"/>
      <point x="916" y="401" type="line"/>
      <point x="1003" y="182" type="line"/>
      <point x="806" y="182" type="line"/>
      <point x="806" y="0" type="line"/>
      <point x="1334" y="0" type="line"/>
      <point x="1334" y="182" type="line"/>
      <point x="1209" y="182" type="line"/>
      <point x="758" y="1296" type="line"/>
    </contour>
    <contour>
      <point x="844" y="583" type="line"/>
      <point x="492" y="583" type="line"/>
      <point x="666" y="1007" type="line"/>
    </contour>
    <contour>
      <point x="865" y="1631" type="qcurve"/>
      <point x="865" y="1714"/>
      <point x="749" y="1830"/>
      <point x="666" y="1830" type="qcurve"/>
      <point x="585" y="1830"/>
      <point x="471" y="1714"/>
      <point x="471" y="1631" type="qcurve"/>
      <point x="471" y="1549"/>
      <point x="585" y="1436"/>
      <point x="666" y="1436" type="qcurve"/>
      <point x="749" y="1436"/>
      <point x="865" y="1549"/>
    </contour>
    <contour>
      <point x="738" y="1631" type="qcurve"/>
      <point x="738" y="1603"/>
      <point x="698" y="1561"/>
      <point x="666" y="1561" type="qcurve"/>
      <point x="638" y="1561"/>
      <point x="596" y="1603"/>
      <point x="596" y="1631" type="qcurve"/>
      <point x="596" y="1663"/>
      <point x="638" y="1703"/>
      <point x="666" y="1703" type="qcurve"/>
      <point x="698" y="1703"/>
      <point x="738" y="1663"/>
    </contour>
  </outline>
</glyph>
<glyph name="AE" format="2">
  <advance width="600"/>
  <unicode hex="00C6"/>
  <outline>
    <contour>
      <point x="124" y="583" type="line"/>
      <point x="124" y="501" type="line"/>
      <point x="213" y="501" type="line"/>
      <point x="59" y="82" type="line"/>
      <point x="2" y="82" type="line"/>
      <point x="2" y="0" type="line"/>
      <point x="213" y="0" type="line"/>
      <point x="213" y="82" type="line"/>
      <point x="136" y="82" type="line"/>
      <point x="171" y="179" type="line"/>
      <point x="278" y="179" type="line"/>
      <point x="278" y="0" type="line"/>
      <point x="595" y="0" type="line"/>
      <point x="595" y="218" type="line"/>
      <point x="524" y="218" type="line"/>
      <point x="516" y="82" type="line"/>
      <point x="364" y="82" type="line"/>
      <point x="364" y="256" type="line"/>
      <point x="406" y="256" type="line"/>
      <point x="406" y="190" type="line"/>
      <point x="483" y="190" type="line"/>
      <point x="483" y="414" type="line"/>
      <point x="406" y="414" type="line"/>
      <point x="406" y="333" type="line"/>
      <point x="364" y="333" type="line"/>
      <point x="364" y="501" type="line"/>
      <point x="516" y="501" type="line"/>
      <point x="524" y="367" type="line"/>
      <point x="595" y="367" type="line"/>
      <point x="595" y="583" type="line"/>
    </contour>
    <contour>
      <point x="278" y="256" type="line"/>
      <point x="192" y="256" type="line"/>
      <point x="276" y="486" type="line"/>
      <point x="278" y="486" type="line"/>
    </contour>
  </outline>
</glyph>
<glyph name="Ccedilla" format="2">
  <advance width="600"/>
  <unicode hex="00C7"/>
  <outline>
    <contour>
      <point x="370" y="-14" type="line"/>
      <point x="412" y="-7"/>
      <point x="480" y="17"/>
      <point x="537" y="50"/>
      <point x="587" y="91"/>
      <point x="611" y="114" type="qcurve"/>
      <point x="553" y="178" type="line"/>
      <point x="536" y="163"/>
      <point x="492" y="126"/>
      <point x="437" y="94"/>
      <point x="371" y="72"/>
      <point x="332" y="72" type="qcurve"/>
      <point x="283" y="72"/>
      <point x="212" y="111"/>
      <point x="166" y="174"/>
      <point x="144" y="256"/>
      <point x="144" y="299" type="qcurve"/>
      <point x="144" y="351"/>
      <point x="174" y="432"/>
      <point x="225" y="486"/>
      <point x="292" y="514"/>
      <point x="328" y="514" type="qcurve"/>
      <point x="373" y="514"/>
      <point x="426" y="484"/>
      <point x="455" y="439"/>
      <point x="466" y="384"/>
      <point x="470" y="360" type="qcurve"/>
      <point x="553" y="371" type="line"/>
      <point x="549" y="397"/>
      <point x="543" y="453"/>
      <point x="543" y="496" type="qcurve"/>
      <point x="543" y="526"/>
      <point x="546" y="574"/>
      <point x="548" y="593" type="qcurve"/>
      <point x="465" y="593" type="line"/>
      <point x="459" y="537" type="line"/>
      <point x="446" y="549"/>
      <point x="418" y="571"/>
      <point x="383" y="589"/>
      <point x="341" y="600"/>
      <point x="314" y="600" type="qcurve"/>
      <point x="269" y="600"/>
      <point x="176" y="560"/>
      <point x="100" y="484"/>
      <point x="52" y="371"/>
      <point x="52" y="298" type="qcurve"/>
      <point x="52" y="232"/>
      <point x="89" y="121"/>
      <point x="155" y="40"/>
      <point x="245" y="-9"/>
      <point x="297" y="-14" type="qcurve"/>
      <point x="290" y="-78" type="line"/>
      <point x="293" y="-78"/>
      <point x="306" y="-80"/>
      <point x="320" y="-82"/>
      <point x="332" y="-84"/>
      <point x="334" y="-84" type="qcurve"/>
      <point x="346" y="-86"/>
      <point x="363" y="-93"/>
      <point x="363" y="-101" type="qcurve"/>
      <point x="363" y="-109"/>
      <point x="351" y="-113"/>
      <point x="345" y="-113" type="qcurve"/>
      <point x="331" y="-113"/>
      <point x="296" y="-108"/>
      <point x="263" y="-102"/>
      <point x="236" y="-96"/>
      <point x="230" y="-95" type="qcurve"/>
      <point x="219" y="-164" type="line"/>
      <point x="245" y="-171"/>
      <point x="312" y="-183"/>
      <point x="348" y="-183" type="qcurve"/>
      <point x="401" y="-183"/>
      <point x="445" y="-135"/>
      <point x="445" y="-102" type="qcurve"/>
      <point x="445" y="-80"/>
      <point x="429" y="-50"/>
      <point x="407" y="-31"/>
      <point x="380" y="-21"/>
      <point x="370" y="-18" type="qcurve"/>
    </contour>
  </outline>
</glyph>
<glyph name="Egrave" format="2">
  <advance width="600"/>
  <unicode hex="00C8"/>
  <outline>
    <contour>
      <point x="45" y="583" type="line"/>
      <point x="45" y="501" type="line"/>
      <point x="128" y="501" type="line"/>
      <point x="128" y="82" type="line"/>
      <point x="45" y="82" type="line"/>
      <point x="45" y="0" type="line"/>
      <point x="553" y="0" type="line"/>
      <point x="553" y="217" type="line"/>
      <point x="470" y="217" type="line"/>
      <point x="465" y="82" type="line"/>
      <point x="215" y="82" type="line"/>
      <point x="215" y="266" type="line"/>
      <point x="333" y="266" type="line"/>
      <point x="333" y="195" type="line"/>
      <point x="416" y="195" type="line"/>
      <point x="416" y="420" type="line"/>
      <point x="333" y="420" type="line"/>
      <point x="333" y="348" type="line"/>
      <point x="215" y="348" type="line"/>
      <point x="215" y="501" type="line"/>
      <point x="456" y="501" type="line"/>
      <point x="465" y="367" type="line"/>
      <point x="548" y="367" type="line"/>
      <point x="543" y="583" type="line"/>
    </contour>
    <contour>
      <point x="156" y="768" type="line"/>
      <point x="323" y="674" type="line"/>
      <point x="410" y="674" type="line"/>
      <point x="305" y="772" type="line"/>
      <point x="156" y="772" type="line"/>
    </contour>
  </outline>
</glyph>
<glyph name="Eacute" format="2">
  <advance width="1334"/>
  <unicode hex="00C9"/>
  <outline>
    <contour>
      <point x="100" y="1296" type="line"/>
      <point x="100" y="1114" type="line"/>
      <point x="284" y="1114" type="line"/>
      <point x="284" y="182" type="line"/>
      <point x="100" y="182" type="line"/>
      <point x="100" y="0" type="line"/>
      <point x="1230" y="0" type="line"/>
      <point x="1230" y="482" type="line"/>
      <point x="1045" y="482" type="line"/>
      <point x="1033" y="182" type="line"/>
      <point x="478" y="182" type="line"/>
      <point x="478" y="592" type="line"/>
      <point x="740" y="592" type="line"/>
      <point x="740" y="433" type="line"/>
      <point x="925" y="433" type="line"/>
      <point x="925" y="933" type="line"/>
      <point x="740" y="933" type="line"/>
      <point x="740" y="774" type="line"/>
      <point x="478" y="774" type="line"/>
      <point x="478" y="1114" type="line"/>
      <point x="1014" y="1114" type="line"/>
      <point x="1033" y="816" type="line"/>
      <point x="1218" y="816" type="line"/>
      <point x="1207" y="1296" type="line"/>
    </contour>
    <contour>
      <point x="1031" y="1707" type="line"/>
      <point x="1031" y="1716" type="line"/>
      <point x="700" y="1716" type="line"/>
      <point x="467" y="1498" type="line"/>
      <point x="660" y="1498" type="line"/>
    </contour>
  </outline>
</glyph>
<glyph name="Ecircumflex" format="2">
  <advance width="1334"/>
  <unicode hex="00CA"/>
  <outline>
    <contour>
      <point x="100" y="1296" type="line"/>
      <point x="100" y="1114" type="line"/>
      <point x="284" y="1114" type="line"/>
      <point x="284" y="182" type="line"/>
      <point x="100" y="182" type="line"/>
      <point x="100" y="0" type="line"/>
      <point x="1230" y="0" type="line"/>
      <point x="1230" y="482" type="line"/>
      <point x="1045" y="482" type="line"/>
      <point x="1033" y="182" type="line"/>
      <point x="478" y="182" type="line"/>
      <point x="478" y="592" type="line"/>
      <point x="740" y="592" type="line"/>
      <point x="740" y="433" type="line"/>
      <point x="925" y="433" type="line"/>
      <point x="925" y="933" type="line"/>
      <point x="740" y="933" type="line"/>
      <point x="740" y="774" type="line"/>
      <point x="478" y="774" type="line"/>
      <point x="478" y="1114" type="line"/>
      <point x="1014" y="1114" type="line"/>
      <point x="1033" y="816" type="line"/>
      <point x="1218" y="816" type="line"/>
      <point x="1207" y="1296" type="line"/>
    </contour>
    <contour>
      <point x="567" y="1739" type="line"/>
      <point x="360" y="1549" type="line"/>
      <point x="478" y="1478" type="line"/>
      <point x="658" y="1585" type="line"/>
      <point x="861" y="1478" type="line"/>
      <point x="976" y="1549" type="line"/>
      <point x="758" y="1739" type="line"/>
    </contour>
  </outline>
</glyph>
<glyph name="Edieresis" format="2">
  <advance width="600"/>
  <unicode hex="00CB"/>
  <outline>
    <contour>
      <point x="45" y="583" type="line"/>
      <point x="45" y="501" type="line"/>
      <point x="128" y="501" type="line"/>
      <point x="128" y="82" type="line"/>
      <point x="45" y="82" type="line"/>
      <point x="45" y="0" type="line"/>
      <point x="553" y="0" type="line"/>
      <point x="553" y="217" type="line"/>
      <point x="470" y="217" type="line"/>
      <point x="465" y="82" type="line"/>
      <point x="215" y="82" type="line"/>
      <point x="215" y="266" type="line"/>
      <point x="333" y="266" type="line"/>
      <point x="333" y="195" type="line"/>
      <point x="416" y="195" type="line"/>
      <point x="416" y="420" type="line"/>
      <point x="333" y="420" type="line"/>
      <point x="333" y="348" type="line"/>
      <point x="215" y="348" type="line"/>
      <point x="215" y="501" type="line"/>
      <point x="456" y="501" type="line"/>
      <point x="465" y="367" type="line"/>
      <point x="548" y="367" type="line"/>
      <point x="543" y="583" type="line"/>
    </contour>
    <contour>
      <point x="178" y="663" type="line"/>
      <point x="274" y="663" type="line"/>
      <point x="274" y="778" type="line"/>
      <point x="178" y="778" type="line"/>
    </contour>
    <contour>
      <point x="326" y="663" type="line"/>
      <point x="422" y="663" type="line"/>
      <point x="422" y="778" type="line"/>
      <point x="326" y="778" type="line"/>
    </contour>
  </outline>
</glyph>
<glyph name="Igrave" format="2">
  <advance width="600"/>
  <unicode hex="00CC"/>
  <outline>
    <contour>
      <point x="88" y="583" type="line"/>
      <point x="88" y="501" type="line"/>
      <point x="257" y="501" type="line"/>
      <point x="257" y="82" type="line"/>
      <point x="88" y="82" type="line"/>
      <point x="88" y="0" type="line"/>
      <point x="513" y="0" type="line"/>
      <point x="513" y="82" type="line"/>
      <point x="344" y="82" type="line"/>
      <point x="344" y="501" type="line"/>
      <point x="513" y="501" type="line"/>
      <point x="513" y="583" type="line"/>
    </contour>
    <contour>
      <point x="156" y="768" type="line"/>
      <point x="323" y="674" type="line"/>
      <point x="410" y="674" type="line"/>
      <point x="305" y="772" type="line"/>
      <point x="156" y="772" type="line"/>
    </contour>
  </outline>
</glyph>
<glyph name="Iacute" format="2">
  <advance width="1334"/>
  <unicode hex="00CD"/>
  <outline>
    <contour>
      <point x="195" y="1296" type="line"/>
      <point x="195" y="1114" type="line"/>
      <point x="571" y="1114" type="line"/>
      <point x="571" y="182" type="line"/>
      <point x="195" y="182" type="line"/>
      <point x="195" y="0" type="line"/>
      <point x="1141" y="0" type="line"/>
      <point x="1141" y="182" type="line"/>
      <point x="765" y="182" type="line"/>
      <point x="765" y="1114" type="line"/>
      <point x="1141" y="1114" type="line"/>
      <point x="1141" y="1296" type="line"/>
    </contour>
    <contour>
      <point x="1031" y="1707" type="line"/>
      <point x="1031" y="1716" type="line"/>
      <point x="700" y="1716" type="line"/>
      <point x="467" y="1498" type="line"/>
      <point x="660" y="1498" type="line"/>
    </contour>
  </outline>
</glyph>
<glyph name="Icircumflex" format="2">
  <advance width="600"/>
  <unicode hex="00CE"/>
  <outline>
    <contour>
      <point x="88" y="583" type="line"/>
      <point x="88" y="501" type="line"/>
      <point x="257" y="501" type="line"/>
      <point x="257" y="82" type="line"/>
      <point x="88" y="82" type="line"/>
      <point x="88" y="0" type="line"/>
      <point x="513" y="0" type="line"/>
      <point x="513" y="82" type="line"/>
      <point x="344" y="82" type="line"/>
      <point x="344" y="501" type="line"/>
      <point x="513" y="501" type="line"/>
      <point x="513" y="583" type="line"/>
    </contour>
    <contour>
      <point x="255" y="782" type="line"/>
      <point x="162" y="697" type="line"/>
      <point x="215" y="665" type="line"/>
      <point x="296" y="713" type="line"/>
      <point x="387" y="665" type="line"/>
      <point x="439" y="697" type="line"/>
      <point x="341" y="782" type="line"/>
    </contour>
  </outline>
</glyph>
<glyph name="Idieresis" format="2">
  <advance width="1334"/>
  <unicode hex="00CF"/>
  <outline>
    <contour>
      <point x="195" y="1296" type="line"/>
      <point x="195" y="1114" type="line"/>
      <point x="571" y="1114" type="line"/>
      <point x="571" y="182" type="line"/>
      <point x="195" y="182" type="line"/>
      <point x="195" y="0" type="line"/>
      <point x="1141" y="0" type="line"/>
      <point x="1141" y="182" type="line"/>
      <point x="765" y="182" type="line"/>
      <point x="765" y="1114" type="line"/>
      <point x="1141" y="1114" type="line"/>
      <point x="1141" y="1296" type="line"/>
    </contour>
    <contour>
      <point x="396" y="1474" type="line"/>
      <point x="609" y="1474" type="line"/>
      <point x="609" y="1729" type="line"/>
      <point x="396" y="1729" type="line"/>
    </contour>
    <contour>
      <point x="725" y="1474" type="line"/>
      <point x="938" y="1474" type="line"/>
      <point x="938" y="1729" type="line"/>
      <point x="725" y="1729" type="line"/>
    </contour>
  </outline>
</glyph>
